<?xml version="1.0" standalone="no"?>
<!DOCTYPE svg PUBLIC "-//W3C//DTD SVG 1.1//EN" "http://www.w3.org/Graphics/SVG/1.1/DTD/svg11.dtd" >
<svg>
<metadata>
Created by FontForge 20090914 at Fri Feb 17 18:12:05 2012
 By www-data
From the WSI-Font Collection.  Digital font data Copyright (c)1995 Weatherly Systems, Inc.  All Rights Reserved.  Redistribution strictly prohibited.
</metadata>
<defs>
<font id="ArdleysHand-Plain" horiz-adv-x="516" >
  <font-face 
    font-family="ArdleysHand"
    font-weight="5"
    font-stretch="normal"
    units-per-em="1000"
    panose-1="0 0 0 0 0 0 0 0 0 0"
    ascent="800"
    descent="-200"
    x-height="383.001"
    cap-height="557.997"
    bbox="-286.999 -681.999 1162 991.002"
    underline-thickness="20"
    underline-position="-90"
    unicode-range="U+0020-U+F002"
  />
<missing-glyph horiz-adv-x="750" 
d="M46 0v750h658v-750h-658zM658 46v658h-566v-658h566z" />
    <glyph glyph-name=".notdef" horiz-adv-x="750" 
d="M46 0v750h658v-750h-658zM658 46v658h-566v-658h566z" />
    <glyph glyph-name="space" unicode=" " horiz-adv-x="360" 
 />
    <glyph glyph-name="exclam" unicode="!" horiz-adv-x="282" 
d="M279 732c0 -15.333 -1.83301 -33.998 -5.5 -55.998l-11.5 -71.5c-4 -25.667 -6.5 -52.334 -7.5 -80.001s-1.5 -67.834 -1.5 -120.501v-30c0 -6.66699 -1 -15 -3 -25c-4.66699 -22.667 -7 -36.667 -7 -42c0 -8 2.66699 -20 8 -36s8 -28 8 -36
c0 -10.667 -3.33301 -21.167 -10 -31.5s-15 -15.5 -25 -15.5c-12.667 0 -24 9.66699 -34 29s-15 36.333 -15 51c0 36 2 78 6 126c9.33301 112 14 182 14 210c0 13.333 -0.833008 31.166 -2.5 53.499s-2.5 35.833 -2.5 40.5c0 34 1.33301 54.667 4 62
c6.66699 17.333 23 26 49 26h4c11.333 0 20 -6.66699 26 -20c4 -9.33301 6 -20.666 6 -33.999zM273 86.002l-32.999 -47.001c-16.667 -20 -31.667 -30 -45 -30c-9.33301 0 -18 4.83301 -26 14.5s-12 19.167 -12 28.5c0 14 9.33301 27.333 28 40
c13.333 8.66699 29.666 16.334 48.999 23.001c8 -4.66699 14.667 -9 20 -13c0.666992 -0.666992 7 -6 19 -16z" />
    <glyph glyph-name="quotedbl" unicode="&#x22;" horiz-adv-x="370" 
d="M298 651c0 -5.33301 -2.49805 -12 -7.49805 -20s-7.83301 -13.667 -8.5 -17c-4.66699 -36.667 -9.66699 -67.334 -15 -92.001c-10.667 -48 -24.334 -72 -41.001 -72c-11.333 0 -19.666 5.16699 -24.999 15.5s-8 21.5 -8 33.5c0 6.66699 0.666992 14.334 2 23.001
s2.66602 16.667 3.99902 24l12 79c9.33301 36 24.666 54 45.999 54c8 0 16.833 -3 26.5 -9s14.5 -12.333 14.5 -19zM155.002 631c0 -6.66699 -1.66699 -16.668 -5 -30.001s-5 -23.666 -5 -30.999l3 -54c0 -15.333 -3.83301 -28 -11.5 -38s-19.167 -15 -34.5 -15
c-9.33301 0 -15.666 4.5 -18.999 13.5s-5 19.167 -5 30.5c0 7.33301 2 32 6 74s7.16699 66 9.5 72s9.83301 9 22.5 9c11.333 0 20.666 -2.5 27.999 -7.5s11 -12.833 11 -23.5z" />
    <glyph glyph-name="numbersign" unicode="#" horiz-adv-x="624" 
d="M624 297c-10 -5.33301 -36 -14.334 -78 -27.001c-58.667 -17.333 -88 -46.666 -88 -87.999c0 -6.66699 1.33301 -15 4 -25c6 -23.333 9 -38 9 -44c0 -24.667 -13 -37 -39 -37c-14.667 0 -25.334 11 -32.001 33s-10 55.667 -10 101c-41.333 -4 -63.333 -18.5 -66 -43.5
s-15 -40.167 -37 -45.5c-8 2.66699 -18.667 14.667 -32 36c-10 15.333 -39 23 -87 23c-9.33301 6 -14.333 9.66699 -15 11c-2 4.66699 -4.33301 11 -7 19c48 16.667 74.333 26.667 79 30c15.333 10.667 23 24.334 23 41.001c0 11.333 -1.66699 23 -5 35
c-16.667 -4.66699 -42.834 -11.167 -78.501 -19.5s-55.5 -12.5 -59.5 -12.5l-27 3v38c79.333 13.333 129 31 149 53c17.333 19.333 26 60.333 26 123v64c42 0 66.333 -28.333 73 -85c2 -37.333 3.66699 -63.333 5 -78h16c28.667 0 48.667 13 60 39
c8 18.667 12 45.334 12 80.001c0 8 -0.166992 15.667 -0.5 23s-0.5 14.666 -0.5 21.999c0 32.667 2.66699 55.834 8 69.501s14 20.5 26 20.5c13.333 0 24 -6.5 32 -19.5s12 -26.5 12 -40.5c0 -10 -1.5 -24 -4.5 -42s-4.5 -30.333 -4.5 -37l-9 -9
c-0.666992 -1.33301 -1 -4.66602 -1 -9.99902c0 -22 11.333 -38.667 34 -50l64 -26c-19.333 -17.333 -36.666 -28.333 -51.999 -33c-26 -7.33301 -43.333 -13.333 -52 -18c-2 -4.66699 -3.66699 -8.33398 -5 -11.001c-3.33301 -6.66699 -5 -10.334 -5 -11.001
c0 -8 1 -16.333 3 -25s3.33301 -14.334 4 -17.001c11.333 0 25 2.33301 41 7c36.667 10.667 59 16 67 16c10 0 18.833 -3 26.5 -9s14.834 -14 21.501 -24zM404 327.999c0 10 -3.66699 17.5 -11 22.5s-16.333 7.5 -27 7.5c-13.333 0 -24.333 -3.66699 -33 -11
s-13 -17.333 -13 -30c0 -16 1.66699 -28.333 5 -37s11 -13 23 -13c16 0 29.333 6.33301 40 19s16 26.667 16 42z" />
    <glyph glyph-name="dollar" unicode="$" horiz-adv-x="458" 
d="M452 223c0 -30.667 -24.333 -54.3301 -73 -70.9971s-73 -50 -73 -100c0 -20 2 -39 6 -57s10.333 -38.667 19 -62c-12.667 0 -26.667 1.33301 -42 4s-27.333 4.66699 -36 6c5.33301 26 9 45.667 11 59s3 28.666 3 45.999c0 15.333 -1.66699 27.666 -5 36.999
c-5.33301 14.667 -14.333 22 -27 22c-16.667 0 -28 -8.5 -34 -25.5s-9 -39.5 -9 -67.5c0 -14.667 0.333008 -27.667 1 -39s1.33398 -22 2.00098 -32c-28.667 3.33301 -49 27.666 -61 72.999s-30.667 71.666 -56 78.999c3.33301 16 17.166 32 41.499 48s36.5 36 36.5 60
c0 18 -17 43.333 -51 76c-16.667 16 -25 30.333 -25 43c0 12 16.667 33 50 63s50 61.667 50 95c0 10 -1 22 -3 36c-4.66699 32 -7 52.333 -7 61c0 14 1.83301 26.167 5.5 36.5s10.167 19.833 19.5 28.5c4.66699 -2 8 -3.33301 10 -4c8 -3.33301 14.333 -5.33301 19 -6
c0 -10.667 -0.666992 -26.334 -2 -47.001s-2 -36.334 -2 -47.001c0 -18 0.833008 -32.167 2.5 -42.5s5.5 -22.166 11.5 -35.499c20 9.33301 33.333 18.333 40 27s10 20 10 34c0 4.66699 -0.666992 14.667 -2 30s-2 25.666 -2 30.999c0 12.667 2.33301 22.5 7 29.5
s13 10.5 25 10.5c12.667 0 21 -1.66699 25 -5s8.66699 -11.666 14 -24.999l-20 -75c0 -20 19.167 -37.667 57.5 -53s57.5 -36.666 57.5 -63.999c0 -10.667 -3.33301 -19.667 -10 -27s-15.667 -13.666 -27 -18.999c-12 19.333 -22.333 33 -31 41s-17.667 13.667 -27 17
c-13.333 -6 -23.5 -15.333 -30.5 -28s-10.5 -27 -10.5 -43c0 -24 23.667 -42.333 71 -55s71 -33.667 71 -63zM268 350.004c0 5.33301 -0.167969 10.5 -0.500977 15.5s-1.83301 13.833 -4.5 26.5h-20c-9.33301 0 -17.166 -2.5 -23.499 -7.5s-9.5 -11.833 -9.5 -20.5
c0 -12.667 5.66699 -25 17 -37s23.333 -18.667 36 -20c2 9.33301 3.33301 16.333 4 21s1 12 1 22zM389.999 230.004c-10 8.66699 -17.667 14.335 -23 17.002s-13.666 4 -24.999 4c-7.33301 0 -13.5 -2.83301 -18.5 -8.5s-7.5 -11.834 -7.5 -18.501c0 -6 1.66699 -13 5 -21
c1.33301 -3.33301 4.66602 -10.333 9.99902 -21c20 5.33301 33 10.166 39 14.499s12.667 15.5 20 33.5zM252.999 199.005c0 7.33301 -2.66699 17.666 -8 30.999s-9 23 -11 29h-10c-10 -8 -17 -13.333 -21 -16c-6.66699 -5.33301 -10 -13.333 -10 -24
c0 -7.33301 1 -14.166 3 -20.499s8 -21.5 18 -45.5c12.667 6 21.667 11.667 27 17c8 8 12 17.667 12 29z" />
    <glyph glyph-name="percent" unicode="%" horiz-adv-x="546" 
d="M539 676c-4.66699 -29.333 -38.6641 -102.331 -101.997 -218.998c-58.667 -107.333 -120.334 -212 -185.001 -314c-68.667 -108 -111.334 -165.333 -128.001 -172c-7.33301 3.33301 -14.166 8.83301 -20.499 16.5s-9.5 15.5 -9.5 23.5c0 12.667 4.66699 27.334 14 44.001
c6.66699 12 15.667 25.333 27 40c50 67.333 89.667 122.666 119 165.999c41.333 60.667 77.666 119.334 108.999 176.001c35.333 64 63.666 125.667 84.999 185c-10.667 2 -23 4 -37 6s-26.333 3 -37 3c-46.667 0 -79 -10.667 -97 -32
c-15.333 -18.667 -23 -51.334 -23 -98.001c0 -26.667 -7.33301 -48.834 -22 -66.501s-35.334 -26.5 -62.001 -26.5c-28.667 0 -51.167 10.833 -67.5 32.5s-24.5 47.167 -24.5 76.5c0 52.667 26.667 94 80 124c42 23.333 100 39.666 174 48.999c48.667 6 103.667 9 165 9
c12.667 0 21.334 -1.16699 26.001 -3.5s10 -8.83301 16 -19.5zM517.003 128.002c0 -38 -11.668 -69 -35.001 -93s-54.666 -36 -93.999 -36c-27.333 0 -48.833 6.66699 -64.5 20s-23.5 33.333 -23.5 60c0 36 14.167 68.833 42.5 98.5s60.833 44.5 97.5 44.5
c24.667 0 43.667 -9.16699 57 -27.5s20 -40.5 20 -66.5zM214.002 519.002c0 16 -3 29.832 -9 41.499s-16.333 17.5 -31 17.5c-16.667 0 -29.167 -4.83301 -37.5 -14.5s-12.5 -23.167 -12.5 -40.5s3.66699 -32.666 11 -45.999c10 -18 22.667 -27 38 -27
c14.667 0 25.667 8.33301 33 25c5.33301 12 8 26.667 8 44zM466.002 102.001c0 15.333 -6.33203 28.333 -18.999 39s-27.334 16 -44.001 16c-15.333 0 -29.333 -4.5 -42 -13.5s-19 -20.833 -19 -35.5c0 -16 6.16699 -29 18.5 -39s26.833 -15 43.5 -15h15
c11.333 0 22 5 32 15s15 21 15 33z" />
    <glyph glyph-name="ampersand" unicode="&#x26;" horiz-adv-x="429" 
d="M429 249l-166.004 -57.001c17.333 -4.66699 29.333 -15 36 -31s10 -34.333 10 -55c0 -60.667 -5.66699 -111.834 -17 -153.501s-26 -62.5 -44 -62.5c-12 0 -20.667 5.66699 -26 17s-8 23.333 -8 36c0 44 6 96 18 156c10 42 17 73 21 93l-52 -2
c-21.333 0 -38 2.33301 -50 7c-18.667 7.33301 -28 19.666 -28 36.999c0 10.667 6.33301 22.334 19 35.001c2 2 13 11.333 33 28c-23.333 4 -44.666 13 -63.999 27c-24 17.333 -36 36.333 -36 57c0 18.667 27.333 49.334 82 92.001c26 20 39 39.333 39 58
c0 9.33301 -3.33301 30.333 -10 63c-3.33301 16 -5 29.333 -5 40c0 14 3 25.333 9 34s16 13 30 13c20.667 0 33.667 -18 39 -54c2 -27.333 4.33301 -54.333 7 -81c2.66699 -11.333 19.334 -21.666 50.001 -30.999s46 -25 46 -47l-2 -27
c-8.66699 0 -21.334 1.66699 -38.001 5s-29 5 -37 5c-25.333 0 -49.5 -7.16699 -72.5 -21.5s-38.833 -32.833 -47.5 -55.5c5.33301 -1.33301 10.5 -2.33301 15.5 -3s10.833 -1 17.5 -1c11.333 0 25.333 1.33301 42 4c38 6 62 9 72 9h16c6.66699 0 11.667 -1 15 -3
c4.66699 -2.66699 9.33398 -8 14.001 -16c-4.66699 -13.333 -12 -25.666 -22 -36.999c-2 -2.66699 -19.667 -19.334 -53 -50.001c16.667 -2.66699 32.334 -4 47.001 -4c6 0 16 0.333008 30 1s25.667 1 35 1c6.66699 0 12.834 -2.66699 18.501 -8s11.167 -11.333 16.5 -18z
" />
    <glyph glyph-name="quotesingle" unicode="'" horiz-adv-x="234" 
d="M246 648c0 -49.333 -2.66602 -86.333 -7.99902 -111c-8.66699 -40.667 -26.334 -72.667 -53.001 -96l-23 22c-5.33301 6.66699 -8 16.334 -8 29.001c0 12 3.5 29.333 10.5 52s10.5 38.667 10.5 48l-1 60c0 25.333 2.33301 43 7 53s12.667 15 24 15
c17.333 0 29 -8.33301 35 -25c4 -10.667 6 -26.334 6 -47.001z" />
    <glyph glyph-name="parenleft" unicode="(" horiz-adv-x="331" 
d="M236 767c-4 -6.66699 -21.668 -29.666 -53.001 -68.999c-22.667 -28.667 -37.667 -53.334 -45 -74.001c-24.667 -68 -43 -126.667 -55 -176c-14.667 -62 -22 -122.667 -22 -182c0 -87.333 17 -154 51 -200l103 -123h-10c-2 -2.66699 -4.66699 -6 -8 -10h-10
c-65.333 0 -114.666 42.667 -147.999 128c-24.667 62.667 -37 132 -37 208c0 42 7.66699 100.333 23 175c18 88.667 40.333 163 67 223c32.667 74 67 111 103 111c6.66699 0 13 -0.833008 19 -2.5s13.333 -4.5 22 -8.5z" />
    <glyph glyph-name="parenright" unicode=")" horiz-adv-x="292" 
d="M270 409c0 -28 -11.3291 -81.665 -33.9961 -160.998s-47.667 -149.333 -75 -210c-32.667 -72.667 -60.334 -112.334 -83.001 -119.001c-13.333 6.66699 -20.333 10.334 -21 11.001c-2.66699 5.33301 -6.33398 13.333 -11.001 24c7.33301 38.667 25.666 85.667 54.999 141
c43.333 81.333 67.666 127.666 72.999 138.999c25.333 56.667 38 108.667 38 156c0 108.667 -20 189.667 -60 243c-14.667 19.333 -53.334 59.666 -116.001 120.999c3.33301 4.66699 7.33301 8.5 12 11.5s10.334 6.16699 17.001 9.5c66 0 118.667 -46.667 158 -140
c31.333 -74 47 -149.333 47 -226z" />
    <glyph glyph-name="asterisk" unicode="*" horiz-adv-x="536" 
d="M505 532c0 -26.667 -24.333 -43.334 -73 -50.001s-73 -21.667 -73 -45c0 -22.667 17.5 -52.5 52.5 -89.5s52.5 -60.167 52.5 -69.5s-4 -17.666 -12 -24.999s-16.667 -11 -26 -11c-16 0 -32 10 -48 30c-9.33301 12 -19.666 29 -30.999 51l-12 -60
c-8 -24.667 -21.333 -37 -40 -37c-10.667 0 -19.334 5.66699 -26.001 17s-10 32 -10 62v22c0 6.66699 0.333008 13 1 19c0 8 -0.666992 15.667 -2 23s-4 17.333 -8 30c-33.333 -33.333 -60 -59 -80 -77c-37.333 -33.333 -67.333 -50 -90 -50l-25 3
c3.33301 21.333 16 44 38 68c28 26 47.667 44.667 59 56c-17.333 4 -31 9.5 -41 16.5s-19 17.5 -27 31.5l136 58c-27.333 22.667 -45.666 38.667 -54.999 48c-22.667 22 -36.667 41 -42 57c8 4 14.833 6.83301 20.5 8.5s11.834 2.5 18.501 2.5
c11.333 0 26.666 -6.33301 45.999 -19l42 -30l9 9c0 15.333 -0.666992 29.833 -2 43.5s-2.66602 30.5 -3.99902 50.5c0 10.667 3.16699 19.5 9.5 26.5s14.833 10.5 25.5 10.5c19.333 0 32.333 -17.333 39 -52l10 -79c15.333 13.333 29.666 24 42.999 32
c18.667 11.333 35.667 17 51 17c13.333 0 24.333 -4.66699 33 -14s15 -21 19 -35c-12 -2.66699 -24.5 -7.16699 -37.5 -13.5l-30.5 -14.5c22 0 37.667 0.5 47 1.5s22.666 3.5 39.999 7.5z" />
    <glyph glyph-name="plus" unicode="+" horiz-adv-x="487" 
d="M487 350c0 -13.333 -6.33008 -22.335 -18.9971 -27.002s-29.334 -7 -50.001 -7h-22c-6.66699 0 -13 0.333008 -19 1c-18.667 0 -33.334 -4 -44.001 -12s-16 -21 -16 -39c0 -13.333 1.66699 -27.666 5 -42.999c8.66699 -40 13 -64.333 13 -73
c0 -14.667 -3.33301 -26.667 -10 -36s-17.334 -14 -32.001 -14c-12 0 -20.333 7.33301 -25 22s-7 33.667 -7 57c0 9.33301 0.333008 21 1 35s1 22.333 1 25c0 18 -3 31.333 -9 40c-8 11.333 -20.667 17 -38 17c-6 0 -22 -1.66699 -48 -5c-10 -1.33301 -19.667 -2 -29 -2
c-16 0 -28.833 2.5 -38.5 7.5s-17.167 14.5 -22.5 28.5c96.667 12.667 149.667 23.334 159 32.001c13.333 12 20 59.333 20 142c0 16 1.5 28.833 4.5 38.5s9.83301 18.834 20.5 27.501c15.333 -8.66699 25.666 -19.5 30.999 -32.5s8 -28.833 8 -47.5
c0 -8 -0.166992 -16 -0.5 -24s-0.5 -16 -0.5 -24c0 -12 0.833008 -22.333 2.5 -31s4.83398 -17.334 9.50098 -26.001c6.66699 -3.33301 12.667 -5.33301 18 -6s12.333 -1 21 -1c8 0 20 1 36 3s28.333 3 37 3c10 0 19.667 -2.5 29 -7.5s14 -12.167 14 -21.5z" />
    <glyph glyph-name="comma" unicode="," horiz-adv-x="224" 
d="M226 82c0 -28 -16.334 -82.666 -49.001 -163.999c-35.333 -88.667 -64.666 -133 -87.999 -133c-9.33301 0 -17.666 3.33301 -24.999 10s-11 15 -11 25c26.667 38 50.5 76 71.5 114s31.5 75.667 31.5 113c0 13.333 -2 28 -6 44c-1.33301 6 -9.33301 29.667 -24 71l9 9
c1.33301 0.666992 5 1 11 1c7.33301 4.66699 15.666 7 24.999 7c20.667 0 35.667 -11.667 45 -35c6.66699 -16.667 10 -37.334 10 -62.001z" />
    <glyph glyph-name="hyphen" unicode="-" horiz-adv-x="429" 
d="M430 307c0 -20 -9.33398 -34.333 -28.001 -43c-14 -6.66699 -32.333 -10 -55 -10c-14 0 -43 3.33301 -87 10c-22 3.33301 -39.333 5 -52 5c-11.333 0 -21.666 -0.666992 -30.999 -2c-32 -4.66699 -49 -7 -51 -7c-14 0 -24.667 4 -32 12s-12.666 19.667 -15.999 35
c22 6.66699 38 11 48 13c18 4 34.667 6 50 6c14 0 30.667 -1 50 -3c45.333 -4.66699 74 -7 86 -7c8.66699 0 23.167 1.83301 43.5 5.5s34.166 5.5 41.499 5.5c8 0 15.5 -0.833008 22.5 -2.5s10.5 -7.5 10.5 -17.5z" />
    <glyph glyph-name="period" unicode="." horiz-adv-x="282" 
d="M287 82c0 -20 -7.5 -38.668 -22.5 -56.001s-32.833 -26 -53.5 -26c-17.333 0 -31.833 6.5 -43.5 19.5s-17.5 28.5 -17.5 46.5c0 20.667 8.33301 39 25 55s35.667 24 57 24c16.667 0 30 -6.16699 40 -18.5s15 -27.166 15 -44.499z" />
    <glyph glyph-name="slash" unicode="/" horiz-adv-x="575" 
d="M574 596c0 -8 -2.16602 -15.5 -6.49902 -22.5s-10.5 -14.833 -18.5 -23.5c-43.333 -48 -82.333 -96 -117 -144c-36.667 -50.667 -70.334 -103 -101.001 -157l-142 -232c-6.66699 -15.333 -12.334 -27 -17.001 -35c-8 -13.333 -16.667 -23 -26 -29
c-12 -8.66699 -26 -15 -42 -19c-10.667 4.66699 -16 12.667 -16 24c0 28.667 34.667 99 104 211c64.667 104.667 133 205 205 301c76.667 102 123.667 153 141 153c8.66699 0 16.834 -2.5 24.501 -7.5s11.5 -11.5 11.5 -19.5z" />
    <glyph glyph-name="zero" unicode="0" horiz-adv-x="487" 
d="M480 304c0 -77.333 -24.335 -148.666 -73.002 -213.999c-53.333 -72 -118 -108 -194 -108c-48 0 -82 23 -102 69c-14 32.667 -21 76.667 -21 132c0 59.333 4.33301 112.333 13 159c12.667 67.333 32.667 120.666 60 159.999c34.667 49.333 79.334 74 134.001 74
c58.667 0 105.334 -32.333 140.001 -97c28.667 -54 43 -112.333 43 -175zM427.998 321c0 49.333 -11.333 88.667 -34 118c-26 33.333 -63.333 50 -112 50c-45.333 0 -80.333 -40.667 -105 -122c-18 -59.333 -27 -118.666 -27 -177.999c0 -40.667 4.33301 -73.334 13 -98.001
c14 -38.667 37.333 -58 70 -58c52 0 98.667 36 140 108c36.667 63.333 55 123.333 55 180z" />
    <glyph glyph-name="one" unicode="1" horiz-adv-x="195" 
d="M188 33c0 -14.667 -6.16992 -27.166 -18.5029 -37.499s-26.166 -15.5 -41.499 -15.5c-22 0 -36.667 9.66699 -44 29c-4.66699 12.667 -7 32 -7 58c0 14.667 -0.166992 31.667 -0.5 51s-0.5 41 -0.5 65c0 75.333 1.33301 140.333 4 195s8.33398 103.834 17.001 147.501
s21.334 65.5 38.001 65.5c13.333 0 24 -5.83301 32 -17.5s12 -24.834 12 -39.501c0 -23.333 -3.66699 -50 -11 -80c-17.333 -71.333 -26 -117 -26 -137c0 -29.333 2.16699 -71.833 6.5 -127.5s8.83301 -89.167 13.5 -100.5c8.66699 -15.333 15.167 -27.333 19.5 -36
s6.5 -15.334 6.5 -20.001z" />
    <glyph glyph-name="two" unicode="2" horiz-adv-x="594" 
d="M594 57l-8.99902 -10c-2 -12 -9.33301 -20.667 -22 -26c-3.33301 -1.33301 -9.66602 -2 -18.999 -2h-18c-46 0 -110.667 -3.66699 -194 -11s-143 -11 -179 -11c-21.333 0 -36.666 1.33301 -45.999 4c-18.667 5.33301 -28 15.666 -28 30.999
c0 24.667 23.667 60.334 71 107.001c69.333 68.667 113 114.334 131 137.001c48 60.667 72 119 72 175c0 13.333 -3 24.5 -9 33.5s-15.333 13.5 -28 13.5c-24.667 0 -52.334 -10 -83.001 -30l-87 -66c-20.667 0 -31 10.333 -31 31c0 34.667 25.667 67 77 97
c45.333 26.667 87.333 40 126 40c34 0 58.333 -10 73 -30c12.667 -17.333 19 -43.333 19 -78c0 -48 -12 -96.333 -36 -145c-19.333 -40 -48 -82.333 -86 -127c-4 -4.66699 -38.333 -42.334 -103 -113.001c21.333 -4.66699 44.666 -7 69.999 -7c24 0 68.667 3.33301 134 10
c39.333 4 66.666 6 81.999 6c26.667 0 49.167 -1.83301 67.5 -5.5s36.833 -11.5 55.5 -23.5z" />
    <glyph glyph-name="three" unicode="3" horiz-adv-x="536" 
d="M531 130c0 -60 -48.998 -99.001 -146.998 -117.001c-42.667 -8 -115.334 -12 -218.001 -12c-21.333 0 -39.333 3.33301 -54 10s-26 18.667 -34 36c18.667 8 39.667 13.5 63 16.5s48.666 4.5 75.999 4.5c14 0 28.167 -0.166992 42.5 -0.5s28.5 -0.5 42.5 -0.5
c38 0 68.667 2.66699 92 8c42 10 63 27.333 63 52c0 40.667 -39.5 78.5 -118.5 113.5s-118.5 60.5 -118.5 76.5c0 19.333 26.667 53 80 101c56 50.667 86 83.667 90 99c-3.33301 2.66699 -6.33301 5.66699 -9 9c-1.33301 0.666992 -5 1 -11 1c-38 0 -78.667 -11 -122 -33
c-62.667 -31.333 -99.667 -49 -111 -53c-8 1.33301 -15.167 5 -21.5 11s-9.5 13.333 -9.5 22c0 28.667 38.333 56 115 82c65.333 22 117.333 33 156 33c25.333 0 47 -3.66699 65 -11c24.667 -10 37 -25.667 37 -47c0 -27.333 -31.667 -72.666 -95 -135.999l-72 -70
c72 -38.667 117 -64.334 135 -77.001c56 -39.333 84 -78.666 84 -117.999z" />
    <glyph glyph-name="four" unicode="4" horiz-adv-x="614" 
d="M615 229c-8.66699 -18 -21.6699 -26.999 -39.0029 -26.999c-6.66699 0 -16.667 1.33301 -30 4s-23.333 4 -30 4c-58 0 -96 -9.66699 -114 -29c-13.333 -14.667 -20 -44.334 -20 -89.001v-25c0 -8.66699 0.333008 -17.667 1 -27c0 -17.333 -1.33301 -30 -4 -38
c-4.66699 -14 -14 -21 -28 -21c-24 0 -39 25.333 -45 76c-2.66699 22 -4 46 -4 72v33h-10c-11.333 0 -34.666 -9.83301 -69.999 -29.5s-61.666 -29.5 -78.999 -29.5c-26 0 -44 15 -54 45c-6.66699 20 -10 45.667 -10 77c0 104.667 6 189.834 18 255.501
s29 101.834 51 108.501c11.333 -2.66699 19.333 -6.5 24 -11.5s9 -13.167 13 -24.5c-11.333 -37.333 -22.333 -75.5 -33 -114.5s-16 -76.833 -16 -113.5c0 -28 2.16699 -53.5 6.5 -76.5s11.833 -45.167 22.5 -66.5l111 34c43.333 19.333 65 46.333 65 81
c0 65.333 6.16699 114.5 18.5 147.5s30.833 49.5 55.5 49.5c10.667 0 18.5 -4.83301 23.5 -14.5s7.5 -19.834 7.5 -30.501c0 -14.667 -8.33301 -48.334 -25 -101.001c-8.66699 -27.333 -13 -49.333 -13 -66l1 -23c12.667 0 28.334 1.33301 47.001 4c42 6 68.333 9 79 9
c20 0 36.833 -3 50.5 -9s23.5 -17.333 29.5 -34z" />
    <glyph glyph-name="five" unicode="5" horiz-adv-x="507" 
d="M507 537c-4.66699 -4.66699 -9.66992 -9.33496 -15.0029 -14.002s-10.333 -7 -15 -7c-5.33301 0 -12.666 1.33301 -21.999 4c-20.667 6 -34.334 9 -41.001 9c-13.333 0 -33.666 -2 -60.999 -6s-47.666 -6 -60.999 -6c-55.333 0 -93 -13.667 -113 -41
c-17.333 -23.333 -26 -64 -26 -122c0 -10.667 0.833008 -19.167 2.5 -25.5s5.5 -13.5 11.5 -21.5s39.833 -16 101.5 -24s105.834 -17 132.501 -27c48.667 -17.333 73 -44.333 73 -81c0 -57.333 -42 -100 -126 -128c-60 -20 -126 -30 -198 -30c-16 0 -30.333 3.33301 -43 10
c-16 8.66699 -24 20.334 -24 35.001c0 10 4.5 18.5 13.5 25.5s19.167 10.5 30.5 10.5c9.33301 0 16 -1.33301 20 -4c6 -6 12 -11.667 18 -17c11.333 -3.33301 22 -5 32 -5c34 0 72.667 7 116 21c57.333 18.667 86 41.667 86 69c0 30 -27.667 48 -83 54
c-102.667 10.667 -154.667 16.334 -156 17.001c-56 14.667 -84 48 -84 100c0 17.333 3.5 37.5 10.5 60.5l20.5 66.5c2 8 5 19.333 9 34s7.66699 26 11 34c9.33301 19.333 50.666 34 123.999 44c52 7.33301 99.333 11 142 11c26 0 48.833 -3.16699 68.5 -9.5
s34.834 -18.5 45.501 -36.5z" />
    <glyph glyph-name="six" unicode="6" horiz-adv-x="487" 
d="M488 135c0 -31.333 -18.667 -57.667 -56 -79c-32 -18 -65.667 -27 -101 -27c-27.333 0 -75.666 15.667 -144.999 47c-73.333 33.333 -110 59 -110 77c0 5.33301 8.16699 21.333 24.5 48s24.5 56.667 24.5 90c0 44 23.333 101.333 70 172c50 76 96 114 138 114
c11.333 0 20.5 -2.33301 27.5 -7s10.5 -12 10.5 -22c-44 -48.667 -82.667 -94.667 -116 -138c-36.667 -48 -55 -95.667 -55 -143c0 -5.33301 1.33301 -11.333 4 -18c5.33301 4.66699 11.666 7.5 18.999 8.5s17.333 1.5 30 1.5l10 9l33 3c46 0 87.667 -11 125 -33
c44.667 -26 67 -60.333 67 -103zM410 152.999c0 18.667 -8.99902 33.499 -26.999 44.499s-37.333 16.5 -58 16.5c-18.667 0 -39.334 -3.33301 -62.001 -10c-15.333 -4.66699 -35 -12 -59 -22l10 -29c5.33301 -15.333 18.333 -30.666 39 -45.999s39.667 -23 57 -23
c22 0 43.333 6 64 18c24 14 36 31 36 51z" />
    <glyph glyph-name="seven" unicode="7" horiz-adv-x="536" 
d="M526 239l-48.001 14.5c-16.667 5 -31.667 7.5 -45 7.5c-39.333 0 -63.833 -43.333 -73.5 -130s-36.167 -133.334 -79.5 -140.001c-8.66699 4.66699 -14.667 8.83398 -18 12.501s-5 9.83398 -5 18.501c0 23.333 7.66699 58.333 23 105s23 82 23 106l-1 16l-70 -19
c-40.667 -11.333 -61.667 -17 -63 -17c-25.333 0 -42.666 12 -51.999 36l193 65c22 16 51.667 77.333 89 184c-16 8 -33.333 13.167 -52 15.5s-41 3.5 -67 3.5h-46c-14 0 -33.5 -4.16699 -58.5 -12.5s-42.833 -12.5 -53.5 -12.5c-10 0 -18.667 3.16699 -26 9.5
s-13.333 14.833 -18 25.5c14.667 2.66699 48.667 12 102 28c40.667 12 76.667 18 108 18c53.333 0 91.333 -2.33301 114 -7c48.667 -10 73 -30.667 73 -62c0 -25.333 -9.66699 -61 -29 -107l-27 -62c44.667 -18 69 -28.333 73 -31c22.667 -14.667 34 -36.334 34 -65.001z
" />
    <glyph glyph-name="eight" unicode="8" horiz-adv-x="546" 
d="M536 210c0 -80 -37.001 -146.001 -111.001 -198.001c-67.333 -47.333 -143.333 -71 -228 -71c-38 0 -66.667 8 -86 24c-22 18 -33 45.333 -33 82c0 26 8 55.667 24 89c34.667 72.667 52 113.334 52 122.001c0 8 -1.83301 21.167 -5.5 39.5s-5.5 30.5 -5.5 36.5
c0 54 33.5 109.333 100.5 166s128.5 85 184.5 85c37.333 0 63 -15.667 77 -47c9.33301 -20.667 14 -52.334 14 -95.001c0 -29.333 -3.66699 -54.333 -11 -75c-1.33301 -3.33301 -8 -18 -20 -44c2.66699 -11.333 11.334 -29.166 26.001 -53.499s22 -44.5 22 -60.5z
M460.999 441.999c0 50 -23.667 75.001 -71 75.001c-30.667 0 -66 -21.333 -106 -64s-60 -79.334 -60 -110.001c0 -22.667 10.667 -34 32 -34c11.333 0 24.333 1.83301 39 5.5l30 7.5c54 14 86 24 96 30c26.667 16.667 40 46.667 40 90zM470.999 196
c0 18.667 -3 33.667 -9 45c-8 15.333 -20.333 23 -37 23c-12 0 -23 -2.66699 -33 -8c-2 -1.33301 -17.333 -13.333 -46 -36c-4.66699 -4 -10.5 -6.66699 -17.5 -8s-14.167 -2 -21.5 -2h-17c-12.667 0 -22 -1 -28 -3c-24 -9.33301 -49.5 -29.833 -76.5 -61.5
s-40.5 -59.5 -40.5 -83.5c0 -21.333 8.66699 -38 26 -50s37.333 -18 60 -18c52.667 0 105 20.333 157 61c55.333 43.333 83 90.333 83 141z" />
    <glyph glyph-name="nine" unicode="9" horiz-adv-x="448" 
d="M448 392c0 -72 -22.6689 -158.999 -68.002 -260.999c-51.333 -115.333 -106 -181.333 -164 -198c-6 2.66699 -12 5 -18 7c-2 0.666992 -6 8 -12 22c41.333 44 74.833 84.667 100.5 122s38.5 81.666 38.5 132.999l-4 13c-6 -8 -16.5 -13.667 -31.5 -17s-30.5 -5 -46.5 -5
c-49.333 0 -87.666 11.333 -114.999 34c-30 24.667 -45 61 -45 109c0 54 15.333 103 46 147c34.667 50 78.334 75 131.001 75c60 0 106.333 -15.667 139 -47s49 -76 49 -134zM384.998 394.001c0 30.667 -8 57.999 -24 81.999c-18.667 27.333 -43 41 -73 41
c-38.667 0 -72.167 -17.167 -100.5 -51.5s-42.5 -71.166 -42.5 -110.499c0 -29.333 10.667 -52.333 32 -69s47.333 -25 78 -25c40 0 71.667 12.333 95 37s35 56.667 35 96z" />
    <glyph glyph-name="colon" unicode=":" horiz-adv-x="273" 
d="M245 328c0 -19.333 -4 -34.167 -12 -44.5s-21.667 -15.5 -41 -15.5c-13.333 0 -23.5 4.5 -30.5 13.5s-10.5 20.5 -10.5 34.5c0 17.333 5 33.5 15 48.5s23.667 22.5 41 22.5c12 0 21.333 -6.5 28 -19.5s10 -26.167 10 -39.5zM262 94.999
c0 -18 -6.66895 -33.332 -20.002 -45.999s-29.666 -19 -48.999 -19c-13.333 0 -23.666 4.66699 -30.999 14s-11 20.666 -11 33.999c0 18 6.83301 33.5 20.5 46.5s29.5 19.5 47.5 19.5c13.333 0 23.833 -4.5 31.5 -13.5s11.5 -20.833 11.5 -35.5z" />
    <glyph glyph-name="semicolon" unicode=";" horiz-adv-x="263" 
d="M224 354l-20 -47.001c-18.667 4.66699 -31 9.33398 -37 14.001s-13 15.667 -21 33l15 14.5c5.33301 5 11 7.5 17 7.5s13.167 -2.5 21.5 -7.5zM263 -9.00098c0 -40.667 -11.332 -84.666 -33.999 -131.999c-27.333 -56.667 -58.333 -85 -93 -85c-6 0 -12.667 1.33301 -20 4
l-21 8c1.33301 2 24.333 30.667 69 86c22.667 28 34 61 34 99c0 25.333 -3.33301 52.666 -10 81.999c-2.66699 12.667 -10.334 39.667 -23.001 81l10 10h20c30 0 50 -19 60 -57c5.33301 -20.667 8 -52.667 8 -96z" />
    <glyph glyph-name="less" unicode="&#x3c;" horiz-adv-x="614" 
d="M547 37c0 -8 -2.49902 -15.834 -7.49902 -23.501s-11.5 -11.5 -19.5 -11.5c-68.667 26.667 -134.334 50 -197.001 70c-68.667 22 -121.334 33 -158.001 33c-20.667 0 -36.667 2 -48 6c-18 6 -27 17.333 -27 34c0 11.333 16.667 40.333 50 87
c29.333 41.333 62.666 85 99.999 131c2 2 28.333 34 79 96c22.667 26.667 43.667 46.167 63 58.5s36.333 18.5 51 18.5c16.667 0 31.334 -6.33301 44.001 -19c-26 -31.333 -59 -68 -99 -110l-102 -108c-39.333 -44 -69.666 -83 -90.999 -117
c36.667 -20 85.667 -38.667 147 -56l153 -40c17.333 -4.66699 30.333 -9.66699 39 -15c15.333 -9.33301 23 -20.666 23 -33.999z" />
    <glyph glyph-name="equal" unicode="=" horiz-adv-x="487" 
d="M487 354c0 -28.667 -13.9971 -43 -41.9971 -43c-10 0 -27.667 3 -53 9c-14 3.33301 -24.667 5 -32 5c-18.667 0 -61.667 -9.66699 -129 -29c-32.667 -9.33301 -59.334 -14 -80.001 -14s-37.334 4 -50.001 12s-20.334 21.667 -23.001 41c24.667 10 69.667 18.667 135 26
c46 4 92 8.33301 138 13l94 20c28 0 42 -13.333 42 -40zM470.003 199c0 -10.667 -4.66895 -18 -14.002 -22s-22.333 -6 -39 -6c-6 0 -14.167 0.333008 -24.5 1s-16.833 1 -19.5 1c-32 0 -63.667 -2.83301 -95 -8.5s-65 -13.5 -101 -23.5c-8.66699 -2.66699 -16.5 0 -23.5 8
s-10.5 16.667 -10.5 26c0 22.667 33.667 38.667 101 48c38 4 60.667 6.33301 68 7c32.667 4.66699 65.334 9.66699 98.001 15c18.667 0 33.334 -3.33301 44.001 -10s16 -18.667 16 -36z" />
    <glyph glyph-name="greater" unicode="&#x3e;" horiz-adv-x="526" 
d="M520 265c0 -12.667 -7.33105 -24.333 -21.998 -35c-8 -6 -21.333 -12.667 -40 -20c-38.667 -14.667 -76.667 -35 -114 -61c-26.667 -18.667 -60.334 -46 -101.001 -82l-36 -46c-17.333 -22 -32.333 -33 -45 -33c-8 0 -15.167 4.5 -21.5 13.5s-9.5 17.833 -9.5 26.5
c0 25.333 24.333 56.333 73 93c135.333 102.667 203.666 154.667 204.999 156c-39.333 24 -92.333 66 -159 126c-76 68 -117.333 116 -124 144c6.66699 6.66699 11 10 13 10h12c8 -2 14.667 -3 20 -3s28 -17.333 68 -52l120 -104c47.333 -39.333 80.333 -63.5 99 -72.5
s31.667 -16.5 39 -22.5c15.333 -12 23 -24.667 23 -38z" />
    <glyph glyph-name="question" unicode="?" 
d="M510 625c0 -46.667 -18.999 -101.001 -56.999 -163.001l-102 -146c-8.66699 -12.667 -15 -27.667 -19 -45c-12.667 -50.667 -19.334 -77 -20.001 -79c-20 5.33301 -34.667 12 -44 20c-13.333 10.667 -20 25 -20 43c0 26 17 61.333 51 106l97 124c34.667 50 52 93 52 129
c0 14 -5.16699 24.333 -15.5 31s-23.5 10 -39.5 10c-32.667 0 -69.667 -14.167 -111 -42.5l-125 -87.5c-6 0 -12.5 1.16699 -19.5 3.5s-13.833 5.5 -20.5 9.5v10c2.66699 2.66699 5.66699 5.33398 9 8.00098c7.33301 34.667 47 69.667 119 105
c65.333 32 119.666 48 162.999 48c30.667 0 55.334 -6.5 74.001 -19.5s28 -34.5 28 -64.5zM360.001 66.999l-9 -38.001c-1.33301 -5.33301 -7.5 -10.166 -18.5 -14.499s-19.833 -6.5 -26.5 -6.5c-29.333 0 -44 14.333 -44 43c0 20 11.667 30 35 30
c10.667 0 20.667 -1.16699 30 -3.5s20.333 -5.83301 33 -10.5z" />
    <glyph glyph-name="at" unicode="@" horiz-adv-x="653" 
d="M651 171c-4 -48.667 -47.002 -96.666 -129.002 -143.999c-75.333 -43.333 -140.666 -65 -195.999 -65c-76 0 -136.667 24.5 -182 73.5s-68 111.5 -68 187.5c0 110 27.667 217.667 83 323c66.667 127.333 151 191 253 191c62 0 110 -35 144 -105
c27.333 -56 41 -118 41 -186c0 -40.667 -2.66699 -68.334 -8 -83.001c-10 -27.333 -31 -43 -63 -47c-8 3.33301 -12.667 5.33301 -14 6c-4 1.33301 -9 2.33301 -15 3c-8 -8 -19.333 -26 -34 -54c-23.333 -44.667 -50.333 -67 -81 -67c-23.333 0 -40.333 14.667 -51 44
c-7.33301 20.667 -11 45 -11 73c0 37.333 7.33301 79 22 125c18.667 59.333 42.334 89 71.001 89c17.333 0 40.333 -15.333 69 -46l34 -39c8.66699 20 13 41.667 13 65c0 40.667 -12.667 76.667 -38 108c-27.333 34 -61.333 51 -102 51c-54 0 -101.333 -30.667 -142 -92
c-33.333 -50 -60 -116 -80 -198c-16.667 -68.667 -25 -129 -25 -181c0 -66 17.667 -114.833 53 -146.5s87.333 -47.5 156 -47.5c38.667 0 74.667 12.667 108 38c14 10.667 42 38 84 82c34 36 64 60 90 72c4.66699 -2 8.5 -6 11.5 -12s5.16699 -12 6.5 -18zM459.998 400.001
c0 23.333 -3.66699 40.499 -11 51.499s-17.333 16.5 -30 16.5c-20 0 -36.667 -20.333 -50 -61c-10 -31.333 -15 -60.666 -15 -87.999c0 -13.333 2 -24 6 -32s12.333 -12 25 -12c26.667 0 46.667 15.333 60 46c10 22.667 15 49 15 79z" />
    <glyph glyph-name="A" unicode="A" horiz-adv-x="565" 
d="M556 44c0 -12.667 -2.50195 -23.332 -7.50195 -31.999s-13.5 -14.667 -25.5 -18c-26.667 7.33301 -46.167 52.166 -58.5 134.499s-39.166 123.5 -80.499 123.5c-78 0 -133.333 -20 -166 -60c-11.333 -14 -26.666 -51.333 -45.999 -112c-12.667 -40 -34.667 -60 -66 -60
c-8 0 -13.833 3 -17.5 9s-5.5 13.333 -5.5 22s13 58.667 39 150l77 264l54 179c4.66699 16.667 11.5 29.5 20.5 38.5s21.5 13.5 37.5 13.5c13.333 0 25.333 -3 36 -9s21.667 -14.667 33 -26c6 -6 19.5 -40.5 40.5 -103.5s40.667 -126 59 -189s27.5 -99.5 27.5 -109.5
l-10 -10c0 -22 6 -48 18 -78c27.333 -68 41 -110.333 41 -127zM405.998 362.002c0 26 -6.83105 59.167 -20.498 99.5s-28.5 74.833 -44.5 103.5l-20 -19c-2 -2 -17.333 -42 -46 -120l-51 -139c3.33301 -0.666992 9.16602 -1.66699 17.499 -3s17.166 -2 26.499 -2
c48 0 84 8.33301 108 25c20 14 30 32.333 30 55z" />
    <glyph glyph-name="B" unicode="B" horiz-adv-x="624" 
d="M615 150c0 -83.333 -61.999 -131 -185.999 -143l-157 -10l-97 -29c-21.333 0 -41 6.66699 -59 20s-30.667 30 -38 50c10 10 30.667 19.667 62 29c12 3.33301 18 29 18 77c0 41.333 0.333008 80.166 1 116.499s1.33398 70.5 2.00098 102.5
c0 46.667 -1.16699 87.334 -3.5 122.001s-6.16602 58.334 -11.499 71.001h-10l-10 9v10c0 11.333 4 22 12 32c10.667 13.333 16.667 21.666 18 24.999l19 77l15 12c11.333 -2.66699 25.666 -10 42.999 -22s35.333 -18 54 -18c16 0 47 6 93 18
c25.333 6.66699 44.666 10 57.999 10c31.333 0 55.666 -3.33301 72.999 -10c26.667 -10 40 -28.333 40 -55c0 -44.667 -38.333 -103.334 -115 -176.001l-95 -85l178 -79c64 -37.333 96 -88.666 96 -153.999zM484.001 630c0 15.333 -6.16699 25.998 -18.5 31.998
s-27.166 9 -44.499 9c-12 0 -24.833 -1.16699 -38.5 -3.5s-27.5 -5.83301 -41.5 -10.5c-52.667 -17.333 -87.167 -38.166 -103.5 -62.499s-24.5 -65.166 -24.5 -122.499c0 -20.667 0.666992 -39.5 2 -56.5s4.33301 -34.167 9 -51.5c7.33301 6.66699 16.666 13.667 27.999 21
c32.667 20 50 31 52 33c53.333 47.333 89 80.333 107 99c48.667 50 73 87.667 73 113zM558.001 162.998c0 61.333 -43.001 104.665 -129.001 129.998c-15.333 4.66699 -83.666 15.334 -204.999 32.001l-10 -9c0 -7.33301 -0.666992 -15.666 -2 -24.999
c-3.33301 -23.333 -5 -38 -5 -44c0 -14.667 -0.666992 -38.834 -2 -72.501s-2 -51.5 -2 -53.5c0 -22.667 4.5 -40.667 13.5 -54s24.5 -20 46.5 -20h52c60.667 0 110.667 6 150 18c62 18.667 93 51.334 93 98.001z" />
    <glyph glyph-name="C" unicode="C" horiz-adv-x="594" 
d="M593 144c0 -28.667 -49.001 -63.668 -147.001 -105.001c-90.667 -38 -155.334 -57 -194.001 -57c-60 0 -105 25.667 -135 77c-24.667 42.667 -37 95.667 -37 159c0 38 8.33301 90.667 25 158c19.333 76.667 43 142 71 196c34 64.667 68.667 97 104 97
c36.667 0 74.667 -23.333 114 -70c28.667 -34.667 53.334 -74.667 74.001 -120c-6.66699 -3.33301 -14.834 -6.66602 -24.501 -9.99902s-18.167 -5 -25.5 -5c-9.33301 0 -31 31 -65 93c-16 29.333 -35 44 -57 44c-31.333 0 -66.666 -53.333 -105.999 -160
c-36 -96.667 -54 -167 -54 -211c0 -52.667 12 -96 36 -130c28 -39.333 67.667 -59 119 -59c45.333 0 97.333 21.333 156 64s98.334 64 119.001 64c18 0 27 -8.33301 27 -25z" />
    <glyph glyph-name="D" unicode="D" horiz-adv-x="536" 
d="M565 364c0 -55.333 -18.333 -106.668 -55 -154.001c-28.667 -36.667 -72 -74.667 -130 -114c-24.667 -16.667 -73.334 -45.667 -146.001 -87l-33 -19c-16.667 -8.66699 -28 -13 -34 -13c-31.333 0 -51.333 56.667 -60 170c-3.33301 43.333 -5 99.333 -5 168v65.5
c0 19.667 0.333008 37.167 1 52.5v28c0 56.667 2.66699 101.334 8 134.001c9.33301 55.333 26 83 50 83c4.66699 0 13.334 -1.66699 26.001 -5c5.33301 -1.33301 14.333 -4 27 -8l155 -36c57.333 -26 103.333 -61 138 -105c38.667 -48.667 58 -102 58 -160zM502 361.998
c0 62 -24.168 117.502 -72.501 166.502s-104.5 73.5 -168.5 73.5c-12 0 -23.5 -1.83301 -34.5 -5.5s-20.167 -9.16699 -27.5 -16.5c-13.333 -14 -23.166 -61.333 -29.499 -142s-9.5 -146.667 -9.5 -198c0 -38 2.33301 -70.833 7 -98.5s14 -55.834 28 -84.501h9l193 118
c70 53.333 105 115.666 105 186.999z" />
    <glyph glyph-name="E" unicode="E" horiz-adv-x="477" 
d="M477 507c-11.333 -2.66699 -23.334 -4.33398 -36.001 -5.00098s-27.667 -1 -45 -1c-72.667 0 -120 -3.33301 -142 -10c-46 -14 -69 -47 -69 -99c0 -19.333 2 -33.666 6 -42.999c6.66699 -15.333 18.667 -23 36 -23c16 0 39.333 6.83301 70 20.5s53.334 20.5 68.001 20.5
c21.333 0 36 -10.667 44 -32l-156 -53c-53.333 -25.333 -80 -65.666 -80 -120.999c0 -21.333 2 -43.333 6 -66s9.33301 -48 16 -76l112 92c54 40.667 94.667 61 122 61c11.333 0 20.833 -1.16699 28.5 -3.5s11.5 -7.5 11.5 -15.5c0 -3.33301 -2.83301 -8.83301 -8.5 -16.5
s-10.167 -12.5 -13.5 -14.5c-10.667 -10.667 -30.334 -23 -59.001 -37s-49.5 -26.5 -62.5 -37.5s-25.333 -22 -37 -33l-35.5 -33.5c-17.333 -14.667 -31.5 -24.5 -42.5 -29.5s-21.833 -7.5 -32.5 -7.5c-23.333 0 -39.5 9.83301 -48.5 29.5s-13.5 45.5 -13.5 77.5
c0 14.667 1.16699 36 3.5 64s3.5 42.667 3.5 44c0 22 -3 40 -9 54s-18 26 -36 36c32 41.333 48 86 48 134c0 10.667 -6.83301 22.667 -20.5 36s-21.5 23.666 -23.5 30.999c10 34 56 61.333 138 82c63.333 16 120.333 24 171 24c22.667 0 40.834 -3.33301 54.501 -10
s24.167 -19.667 31.5 -39z" />
    <glyph glyph-name="F" unicode="F" horiz-adv-x="487" 
d="M551 533c0 -6 -5.33203 -12.334 -15.999 -19.001s-19 -10 -25 -10s-18.333 5.5 -37 16.5s-34.667 16.5 -48 16.5c-62.667 0 -112.334 -5.66699 -149.001 -17c-59.333 -18 -89 -50 -89 -96c0 -22 4.33301 -48.667 13 -80c6.66699 -21.333 11.334 -37 14.001 -47l92 25
c32.667 8.66699 60.334 13 83.001 13c20 0 36.833 -3.66699 50.5 -11s23.167 -19.666 28.5 -36.999l-162 -21c-68 -18 -102 -51 -102 -99c0 -10 1 -25.333 3 -46s3 -36.334 3 -47.001c0 -32.667 -4.83301 -56.667 -14.5 -72s-22.834 -23 -39.501 -23
c-12 0 -20.167 8.83301 -24.5 26.5s-6.5 38.5 -6.5 62.5v25.5c0 7.66699 0.333008 14.834 1 21.501c0 26 -1.33301 65 -4 117s-4 91.333 -4 118c0 14.667 -3.33301 44 -10 88c-3.33301 22 -5 39.333 -5 52c0 37.333 46.333 65.333 139 84
c65.333 13.333 130.666 20 195.999 20c16 0 38.833 -6.66699 68.5 -20s44.5 -27 44.5 -41z" />
    <glyph glyph-name="G" unicode="G" horiz-adv-x="633" 
d="M633 345c0 -9.33301 -2.66797 -17.667 -8.00098 -25c-10.667 -4 -20.334 -6 -29.001 -6c-4.66699 0 -11.5 0.5 -20.5 1.5s-15.167 1.5 -18.5 1.5c-14.667 0 -32 -5 -52 -15c-12.667 -7.33301 -22 -12.333 -28 -15l20 -42c8 -18.667 12 -33 12 -43
c0 -54 -29.333 -101 -88 -141c-53.333 -36.667 -108.333 -55 -165 -55c-61.333 0 -107 20 -137 60c-26.667 35.333 -40 84 -40 146c0 79.333 24 165.666 72 258.999c56 108.667 120 163 192 163c36 0 66.333 -10.333 91 -31s42.334 -49 53.001 -85
c-0.666992 -2 -1.66699 -5.5 -3 -10.5s-3.66602 -11.167 -6.99902 -18.5c-11.333 2 -38.333 20.667 -81 56c-20 16.667 -37 25 -51 25c-56 0 -105 -45.667 -147 -137c-36 -78 -54 -148.667 -54 -212c0 -44.667 7.33301 -81.334 22 -110.001
c19.333 -37.333 49.666 -56 90.999 -56c48 0 90.833 16 128.5 48s56.5 71 56.5 117c0 22.667 -9.83301 37.834 -29.5 45.501s-44.5 11.5 -74.5 11.5c-7.33301 0 -14.333 -0.166992 -21 -0.5s-13 -0.5 -19 -0.5c-26 0 -45 3 -57 9c-17.333 8.66699 -27.333 24.334 -30 47.001
l11 18c8.66699 2 20.334 3.33301 35.001 4s23 1 25 1c10 0 24.667 -0.333008 44 -1s33 -1 41 -1c26.667 0 59.667 3 99 9c87.333 13.333 131.333 20 132 20c23.333 0 35 -12.333 35 -37z" />
    <glyph glyph-name="H" unicode="H" horiz-adv-x="448" 
d="M448 287c-14 -6 -24.166 -16.168 -30.499 -30.501s-9.5 -29.833 -9.5 -46.5c0 -21.333 3 -46.333 9 -75c14 -66.667 21 -108.667 21 -126c0 -9.33301 -2 -18 -6 -26s-10.667 -12 -20 -12c-20 0 -33.833 8.33301 -41.5 25s-11.5 38.334 -11.5 65.001
c0 13.333 0.333008 25.5 1 36.5l2 31.5c0 27.333 -1.5 51.5 -4.5 72.5s-8.5 43.167 -16.5 66.5c-55.333 -12.667 -93.333 -22.667 -114 -30c-54 -19.333 -81 -41.333 -81 -66c0 -26 4.16699 -51.833 12.5 -77.5l24.5 -75.5c-4 -6.66699 -9.33301 -11.667 -16 -15
s-14.334 -5 -23.001 -5c-16.667 0 -31.667 36 -45 108c-10 56 -18 124.167 -24 204.5s-9 136.166 -9 167.499c0 39.333 1.5 76 4.5 110s8.5 67.667 16.5 101c16.667 -1.33301 30 -5.83301 40 -13.5s15 -19.834 15 -36.501c0 -24.667 -1 -53.667 -3 -87
c-4.66699 -78 -7 -126.667 -7 -146c0 -31.333 0.833008 -55.666 2.5 -72.999s5.5 -39.333 11.5 -66l136 28c46 16.667 69 48.667 69 96c0 20.667 -4 65.667 -12 135c-4 34.667 -6 61.334 -6 80.001c0 25.333 1.5 45.833 4.5 61.5s10.5 29.167 22.5 40.5
c16 -8 27 -19.5 33 -34.5s9 -32.833 9 -53.5c0 -10.667 -0.333008 -21.5 -1 -32.5l-2 -32.5v-154c0 -20.667 5.33301 -40.5 16 -59.5s21.667 -37.5 33 -55.5z" />
    <glyph glyph-name="I" unicode="I" horiz-adv-x="682" 
d="M682 38c-19.333 -6.66699 -38.5039 -11.6699 -57.5039 -15.0029s-39.833 -6 -62.5 -8s-60.5 -4.66699 -113.5 -8s-95.167 -8.66602 -126.5 -15.999c-10 -2.66699 -38.667 -12.667 -86 -30c-36 -13.333 -65.333 -20 -88 -20c-28.667 0 -52 10 -70 30
c70 18.667 124.667 33.667 164 45c73.333 21.333 110 50 110 86c0 50.667 -3.5 108 -10.5 172l-20.5 186l-181 -44c-12 -2.66699 -23.833 -0.5 -35.5 6.5s-20.5 16.167 -26.5 27.5c32 13.333 112.833 34.666 242.5 63.999s209.5 44 239.5 44
c20.667 0 37.334 -3.66699 50.001 -11s20.334 -20.666 23.001 -39.999c-116.667 0 -187.667 -15.667 -213 -47c-20 -25.333 -30 -98.666 -30 -219.999c0 -53.333 3.66699 -91.666 11 -114.999c13.333 -42 40 -63 80 -63c14.667 0 31.334 1.66699 50.001 5
c45.333 8 74 12 86 12c17.333 0 31.333 -2.83301 42 -8.5s18.334 -16.5 23.001 -32.5z" />
    <glyph glyph-name="J" unicode="J" horiz-adv-x="711" 
d="M858 614c-47.333 -10.667 -102.334 -20.333 -165.001 -29l-189 -26.5c-63.333 -9 -117.666 -19.5 -162.999 -31.5c-3.33301 -0.666992 -30.333 -13 -81 -37c-21.333 -10 -37.333 -15 -48 -15c-17.333 0 -29.666 9.33301 -36.999 28c3.33301 10 10.5 19.167 21.5 27.5
s63.667 23 158 44s191 40.667 290 59s157.167 27.5 174.5 27.5c13.333 0 22.666 -5 27.999 -15c1.33301 -2 5 -12.667 11 -32zM560.999 172.001c0 -49.333 -8.33398 -91.3359 -25.001 -126.003c-22 -45.333 -55.333 -68 -100 -68c-28 0 -79.333 18.333 -154 55
c-66 32.667 -115 60.834 -147 84.501s-48 51.5 -48 83.5c26 0 59.333 -14 100 -42l110 -78c45.333 -28.667 86 -43 122 -43c29.333 0 52 14 68 42c13.333 23.333 20 50.666 20 81.999c0 38.667 -3.33301 80.667 -10 126c-16.667 114 -25 183 -25 207
c0 12.667 0.666992 20.334 2 23.001c2 4 8 8.66699 18 14c22.667 -5.33301 38.334 -16.666 47.001 -33.999c6.66699 -13.333 10 -32.333 10 -57c0 -11.333 -0.333008 -22.666 -1 -33.999l-2 -33c0 -20 3.33301 -62 10 -126c3.33301 -32 5 -57.333 5 -76z" />
    <glyph glyph-name="K" unicode="K" 
d="M516 38c-7.33301 -9.33301 -15.167 -16.3311 -23.5 -20.998s-17.833 -7 -28.5 -7c-26 0 -55.667 17.667 -89 53l-85 100c-32.667 36 -59.667 54 -81 54c-20 0 -33.5 -11.5 -40.5 -34.5s-10.5 -52.5 -10.5 -88.5c0 -10.667 0.166992 -21.667 0.5 -33s0.833008 -23 1.5 -35
c0 -18 -3 -31.667 -9 -41s-17.333 -14 -34 -14c-9.33301 0 -16.666 3.83301 -21.999 11.5s-8 20.5 -8 38.5c0 12 1 26 3 42c4.66699 37.333 7 61 7 71l9 9c0.666992 1.33301 1 4.66602 1 9.99902l-29 29v19c0 10 4.66699 28.333 14 55s14 47 14 61v32v28v24v21v18v16v14v12
c0 12.667 -0.166992 25.334 -0.5 38.001s-0.5 25.667 -0.5 39v11c0 15.333 1.5 25.166 4.5 29.499s11.167 9.5 24.5 15.5c16 0 27.333 -6.33301 34 -19c4.66699 -9.33301 7 -22.666 7 -39.999c0 -22.667 -0.666992 -43.334 -2 -62.001c-4.66699 -64 -7 -98.333 -7 -103
c0 -28 3 -56 9 -84c41.333 39.333 77 89 107 149l78 166c7.33301 12 11.666 19 12.999 21c6.66699 8 14 12 22 12c7.33301 0 14.333 -3.66699 21 -11s10 -15 10 -23c0 -18 -18.333 -59 -55 -123l-119 -203c0 -16.667 37 -59.334 111 -128.001
c66 -61.333 117 -104.333 153 -129z" />
    <glyph glyph-name="L" unicode="L" horiz-adv-x="536" 
d="M536 124c-10 -12 -19.501 -19.833 -28.501 -23.5s-19.833 -5.5 -32.5 -5.5h-27c-18 0 -65 -15.667 -141 -47s-127.667 -47 -155 -47s-46.666 22.667 -57.999 68c-8 32.667 -12 76 -12 130v31c0 10 0.333008 19.333 1 28v300c0 24 11.333 36 34 36
c12.667 0 22.167 -4.16699 28.5 -12.5s9.5 -19.5 9.5 -33.5c0 -26 -3.33301 -83.667 -10 -173c-3.33301 -44.667 -5 -80 -5 -106c0 -41.333 2.33301 -78 7 -110s14 -62.667 28 -92l153 53c76 25.333 127 38 153 38c24 0 42.333 -11.333 55 -34z" />
    <glyph glyph-name="M" unicode="M" horiz-adv-x="663" 
d="M655 -25c0 -14 -4.49902 -25.834 -13.499 -35.501s-20.833 -14.5 -35.5 -14.5c-16.667 0 -28.167 14 -34.5 42s-9.5 64 -9.5 108c0 18.667 0.333008 37.5 1 56.5s1.66699 38.833 3 59.5c0 39.333 -1.5 76.333 -4.5 111s-8.16699 68 -15.5 100l-70 -167
c-38.667 -74 -80.334 -111 -125.001 -111c-37.333 0 -68.333 19 -93 57c-16 24 -30.667 59.333 -44 106c-6 -13.333 -12.333 -47 -19 -101c-10.667 -84.667 -36.667 -134 -78 -148c-8.66699 20 -13 42 -13 66c0 39.333 3.33301 88.333 10 147c14.667 128.667 22 211 22 247
c0 12 2 22.5 6 31.5s11.333 13.5 22 13.5c39.333 0 68.333 -24.667 87 -74l39 -154c16.667 -65.333 40 -109.666 70 -132.999c14 17.333 36.333 61.333 67 132l78 178c26.667 59.333 45 89 55 89c8.66699 0 16.667 -6.33301 24 -19c4.66699 -7.33301 9 -17.333 13 -30
c17.333 -50 28.333 -121.667 33 -215c2 -40 3 -114 3 -222c0 -13.333 3.66699 -33.333 11 -60s11 -46.667 11 -60z" />
    <glyph glyph-name="N" unicode="N" horiz-adv-x="507" 
d="M497 527c0 -154.667 -8.50098 -281 -25.501 -379s-41.5 -147 -73.5 -147c-26 0 -51 22.333 -75 67c-4 7.33301 -24 53.333 -60 138c-24 56.667 -46.667 93.334 -68 110.001c-8 -32 -13.167 -63.5 -15.5 -94.5s-3.5 -68.5 -3.5 -112.5c0 -20.667 -1.66699 -36 -5 -46
c-6 -17.333 -17.333 -26 -34 -26c-15.333 0 -26.333 5.16699 -33 15.5s-10 23.833 -10 40.5c0 18.667 5 91.5 15 218.5s16.833 195 20.5 204s8.33398 16.333 14.001 22s13.5 8.5 23.5 8.5c18.667 0 43 -32 73 -96c14.667 -31.333 40 -94.333 76 -189
c28.667 -76 48 -120.333 58 -133c4.66699 -0.666992 10 -2 16 -4c2.66699 -0.666992 5 -1 7 -1c0.666992 0 4.66699 3.66699 12 11c0 17.333 2.33301 38.333 7 63c10.667 57.333 16 93.666 16 108.999c0 22 -1.33301 49.333 -4 82c-6 74 -9 120.333 -9 139c0 14 3 27 9 39
s15.667 18 29 18s23.333 -6 30 -18s10 -25 10 -39z" />
    <glyph glyph-name="O" unicode="O" 
d="M515 368c0 -96.667 -19.333 -178.33 -58 -244.997c-48 -82.667 -117.333 -124 -208 -124c-56.667 0 -99.667 22.333 -129 67c-24.667 37.333 -37 85.666 -37 144.999c0 61.333 11 141 33 239c26 116.667 55.333 187 88 211c5.33301 4 17.833 8.5 37.5 13.5
s33.167 7.5 40.5 7.5c15.333 0 31 -7.33301 47 -22c20.667 -18.667 34.667 -29.334 42 -32.001c3.33301 2.66699 6 4 8 4h11c42.667 0 75.667 -35.333 99 -106c17.333 -52.667 26 -105.334 26 -158.001zM458 392.004c0 34.667 -12.334 68.666 -37.001 101.999
c-9.33301 12.667 -55.666 55.334 -138.999 128.001c-43.333 -42.667 -78.666 -105 -105.999 -187c-24.667 -74 -37 -145.333 -37 -214c0 -43.333 10 -80.333 30 -111c23.333 -36 56 -54 98 -54c65.333 0 115.666 42.333 150.999 127c26.667 64 40 133.667 40 209z" />
    <glyph glyph-name="P" unicode="P" horiz-adv-x="399" 
d="M444 509c0 -42.667 -22.001 -80.999 -66.001 -114.999l-122 -84c-44.667 -36.667 -67 -78.334 -67 -125.001c0 -14.667 7 -41.667 21 -81c6.66699 -18.667 10 -33.334 10 -44.001c0 -13.333 -4.16699 -25.666 -12.5 -36.999s-19.166 -17 -32.499 -17
c-24.667 0 -40 35.333 -46 106c-2.66699 30.667 -4 61.334 -4 92.001v26c0 49.333 2 100.666 6 153.999c2 30.667 7 81.667 15 153c-22.667 0 -36.667 0.666992 -42 2c-16.667 4 -25 13.667 -25 29c0 26.667 19.333 48 58 64c30.667 12.667 62 19 94 19
c49.333 0 95 -11.333 137 -34c50.667 -27.333 76 -63.333 76 -108zM373.999 517.001c0 22.667 -10 40.332 -30 52.999s-42 19 -66 19c-29.333 0 -50.333 -15.667 -63 -47c-9.33301 -22.667 -14 -51 -14 -85c0 -39.333 4.33301 -76.666 13 -111.999
c6.66699 6 16 12.333 28 19c18 10 28.667 16 32 18c28.667 20 50.667 39 66 57c22.667 26 34 52 34 78z" />
    <glyph glyph-name="Q" unicode="Q" horiz-adv-x="507" 
d="M497 335c0 -37.333 -10.335 -79.6689 -31.002 -127.002s-31 -79.666 -31 -96.999c0 -22 9.5 -53 28.5 -93s28.5 -70.333 28.5 -91c0 -10 -1.66699 -20.667 -5 -32c-31.333 6.66699 -61.666 47 -90.999 121c-13.333 32.667 -29 49 -47 49
c-7.33301 0 -23.333 -2.33301 -48 -7c-14 -2.66699 -24.667 -4 -32 -4c-52.667 0 -97.667 16.333 -135 49s-56 75 -56 127c0 54 5.66699 109.333 17 166c14.667 74.667 36.334 133.334 65.001 176.001c36 54.667 81.333 82 136 82c52.667 0 100.667 -41 144 -123
c38 -72 57 -137.333 57 -196zM440.998 327.997c0 37.333 -17 89.668 -51 157.001c-37.333 74 -71.666 111 -102.999 111c-49.333 0 -87 -50 -113 -150c-18.667 -71.333 -28 -140.333 -28 -207c0 -45.333 9.66699 -79.166 29 -101.499s51.666 -33.5 96.999 -33.5
c18.667 0 32.667 2.66699 42 8c12 7.33301 18 19.666 18 36.999c0 20.667 -9 47.667 -27 81s-27 54.333 -27 63c0 8 3.5 13.833 10.5 17.5s14.833 5.5 23.5 5.5c16.667 0 37.334 -24 62.001 -72l25 -52c17.333 34.667 28.666 61.667 33.999 81s8 37.666 8 54.999z" />
    <glyph glyph-name="R" unicode="R" 
d="M513 30c0 -7.33301 -3.16699 -14.8311 -9.5 -22.498s-13.166 -11.5 -20.499 -11.5c-16.667 0 -41.834 18.333 -75.501 55l-99.5 109c-40.667 38.667 -75.334 58 -104.001 58c-15.333 0 -25.666 -6.5 -30.999 -19.5s-8 -28.167 -8 -45.5c0 -10 3.33301 -33.667 10 -71
c3.33301 -18.667 5 -33.667 5 -45c0 -17.333 -1.66699 -30 -5 -38c-5.33301 -12.667 -15 -19 -29 -19c-14.667 0 -25.667 6.83301 -33 20.5s-11 37.167 -11 70.5c0 18.667 2.5 45.167 7.5 79.5s7.5 57.5 7.5 69.5v307c0 49.333 22.333 87.666 67 114.999
c38 23.333 84 35 138 35c48 0 85 -12.333 111 -37s39 -61 39 -109c0 -52.667 -16.167 -103.834 -48.5 -153.501s-72.833 -86.167 -121.5 -109.5c8 -7.33301 21.667 -25 41 -53c9.33301 -12.667 18 -23.667 26 -33c12.667 -14.667 30.667 -31.667 54 -51l57 -48
c8.66699 -8 15.667 -15.667 21 -23c8 -11.333 12 -21.333 12 -30zM417 538.002c0 25.333 -9.16699 46.5029 -27.5 63.5029s-40.5 25.5 -66.5 25.5c-49.333 0 -86.333 -17.667 -111 -53c-20.667 -30 -31 -70.333 -31 -121c0 -8.66699 -0.166992 -16.834 -0.5 -24.501
s-0.5 -14.834 -0.5 -21.501c0 -34 2 -59.333 6 -76c6.66699 -26.667 18 -40 34 -40c38.667 0 81.667 32 129 96c45.333 61.333 68 111.666 68 150.999z" />
    <glyph glyph-name="S" unicode="S" horiz-adv-x="526" 
d="M513 461c0 -14 -1.99902 -27.001 -5.99902 -39.001c-20 4 -46.833 37.833 -80.5 101.5s-73.834 95.5 -120.501 95.5c-26 0 -48.833 -13.667 -68.5 -41s-29.5 -55 -29.5 -83c0 -42 25.667 -90 77 -144l143 -136c51.333 -52 77 -96.667 77 -134
c0 -32.667 -19 -55.667 -57 -69c-26 -9.33301 -59 -14 -99 -14c-8 0 -23.167 -0.333008 -45.5 -1s-39.833 -1 -52.5 -1c-40.667 0 -74 3 -100 9c-34.667 8 -59 22 -73 42c4 6.66699 10.333 12.834 19 18.501s16.667 8.5 24 8.5c9.33301 0 52 -6 128 -18
c38 -6 68.667 -9 92 -9c26 0 46.333 2.33301 61 7c24 7.33301 36 21 36 41c0 31.333 -25.333 68.666 -76 111.999c-94 80 -141.667 120.667 -143 122c-51.333 54 -77 109 -77 165c0 44 14.833 85 44.5 123s66.167 57 109.5 57c52.667 0 102 -22.667 148 -68
s69 -93.666 69 -144.999z" />
    <glyph glyph-name="T" unicode="T" horiz-adv-x="487" 
d="M600 597c-8 -24.667 -47.5 -40.5 -118.5 -47.5s-110.167 -11.833 -117.5 -14.5c-14 -5.33301 -25.333 -30.666 -34 -75.999s-13 -121.666 -13 -228.999c0 -21.333 0.166992 -42.833 0.5 -64.5s0.833008 -43.5 1.5 -65.5c0 -12 3.66699 -26 11 -42
c10 -22.667 15.667 -36.667 17 -42c0 -9.33301 -6.33301 -19 -19 -29s-23.667 -15 -33 -15c-14.667 0 -25.834 14 -33.501 42s-11.5 68 -11.5 120c0 29.333 2.66699 73 8 131s8 101.667 8 131c0 42 -4.33301 82.333 -13 121c-10.667 -1.33301 -69 -12.333 -175 -33
c-44 -8.66699 -75 -13 -93 -13c-6.66699 0 -12.5 0.333008 -17.5 1s-13.5 3 -25.5 7v10c0 12 6 22.167 18 30.5s25.5 14.166 40.5 17.499s68.5 12.666 160.5 27.999c103.333 17.333 183 30 239 38c85.333 12.667 134 19 146 19c16 0 26.833 -1.16699 32.5 -3.5
s12.834 -9.5 21.501 -21.5z" />
    <glyph glyph-name="U" unicode="U" horiz-adv-x="711" 
d="M704 8c0 -20 -9.66699 -29.9971 -29 -29.9971c-26.667 0 -51.334 47.667 -74.001 143c-20 105.333 -32 167.333 -36 186c-39.333 -101.333 -78.166 -178.5 -116.499 -231.5s-74.166 -79.5 -107.499 -79.5c-28.667 0 -51.334 15.333 -68.001 46c-14 26 -21 54.333 -21 85
c0 36 4.66699 80.333 14 133c20.667 116 31 189 31 219c0 18.667 -1.66699 34.667 -5 48l-109 -73c-71.333 -46.667 -113.333 -71.667 -126 -75c-13.333 4 -22.5 7.66699 -27.5 11s-11.833 10.666 -20.5 21.999c35.333 16 76 40.333 122 73
c102.667 72 169.334 115 200.001 129l35 -22c9.33301 -8 14 -20 14 -36c0 -39.333 -10.167 -99.333 -30.5 -180s-30.5 -141 -30.5 -181c0 -45.333 7.33301 -88 22 -128c42 14.667 86.333 80 133 196c38 95.333 62 176.666 72 243.999c2 21.333 4.33301 43 7 65
c6 31.333 16.333 47 31 47c19.333 0 33.333 -15 42 -45c6.66699 -24 10 -55.667 10 -95c0 -18.667 -0.333008 -34.834 -1 -48.501s-1.33398 -26.5 -2.00098 -38.5c0 -32.667 1.33301 -65.5 4 -98.5s6.66699 -73.5 12 -121.5c2 -20 11.667 -50.5 29 -91.5
s26 -65.167 26 -72.5z" />
    <glyph glyph-name="V" unicode="V" horiz-adv-x="438" 
d="M447 614c0 -9.33301 -0.998047 -18.999 -2.99805 -28.999l-6 -29l-24 -179c-16 -110.667 -32.333 -196 -49 -256c-24 -86.667 -50 -130 -78 -130c-26.667 0 -62.334 51.667 -107.001 155c-34.667 80 -59 146.333 -73 199c-4.66699 17.333 -19.834 48.166 -45.501 92.499
s-38.5 73.833 -38.5 88.5c0 9.33301 3 16.333 9 21c2.66699 2 10 5.66699 22 11c27.333 -5.33301 55.333 -41 84 -107c10 -22.667 34 -88.667 72 -198c28.667 -81.333 52.667 -134 72 -158l9 9c0.666992 1.33301 1 5 1 11c19.333 25.333 39.333 104.333 60 237
c18.667 118 28 202 28 252c-0.666992 8.66699 -1 16 -1 22c0 14.667 2 24.5 6 29.5s10 7.5 18 7.5c14 0 24.833 -4.5 32.5 -13.5s11.5 -20.833 11.5 -35.5z" />
    <glyph glyph-name="W" unicode="W" horiz-adv-x="672" 
d="M649 515c0 -98.667 -4.99902 -190.669 -14.999 -276.002c-17.333 -145.333 -44.666 -218 -81.999 -218c-35.333 0 -70.666 35 -105.999 105l-66 151c-10.667 -69.333 -21.334 -127 -32.001 -173c-21.333 -88.667 -48.333 -133 -81 -133c-32 0 -62 30.667 -90 92
c-21.333 46.667 -41 108.667 -59 186l-31 143l-18 62c-7.33301 26.667 -11 48 -11 64c0 10.667 4 20.334 12 29.001s17.667 13 29 13c13.333 0 23.666 -10 30.999 -30c5.33301 -14 10.666 -43.667 15.999 -89c8.66699 -77.333 20.667 -143.666 36 -198.999
c19.333 -68.667 46.333 -130.334 81 -185.001c18 44 31.167 102 39.5 174l25.5 218c5.33301 12.667 13.333 21.334 24 26.001c36 -12.667 62.333 -44.667 79 -96l37 -148c17.333 -59.333 43.333 -101.333 78 -126c12.667 43.333 21.334 86.833 26.001 130.5s7 92.5 7 146.5
c0 19.333 -0.333008 49 -1 89s-1 70.667 -1 92c0 9.33301 3.66699 17 11 23s15.666 9 24.999 9c12 0 21 -6 27 -18s9 -32.667 9 -62z" />
    <glyph glyph-name="X" unicode="X" horiz-adv-x="555" 
d="M548 16l-1.99902 -25c-29.333 3.33301 -70 35.333 -122 96l-112 133c-50 -105.333 -90 -187 -120 -245c-32 -61.333 -56 -95.333 -72 -102c-9.33301 4.66699 -15 7.66699 -17 9c-10.667 7.33301 -16 17 -16 29c0 16.667 14 48.667 42 96
c45.333 76.667 71.333 121.334 78 134.001c28.667 54.667 43 97 43 127c0 34.667 -12 71 -36 109c-10.667 16.667 -35.334 49 -74.001 97c-32 39.333 -51.667 70.333 -59 93c2.66699 9.33301 7 17.333 13 24s13.667 10 23 10c13.333 0 34 -22 62 -66l113 -181l10 10
c0 3.33301 4.5 16.333 13.5 39l15.5 39l36 119c18.667 50 43.667 79 75 87c9.33301 -6 15.333 -11.333 18 -16s4 -12.334 4 -23.001c0 -19.333 -20.333 -73.333 -61 -162s-61 -142 -61 -160c0 -14 17.667 -38.333 53 -73c57.333 -56 90.333 -89 99 -99
c36 -40.667 54 -73.667 54 -99z" />
    <glyph glyph-name="Y" unicode="Y" horiz-adv-x="429" 
d="M475 564c0 -17.333 -10.335 -41.666 -31.002 -72.999c-14 -21.333 -22.333 -35 -25 -41c-24 -55.333 -51.667 -129.333 -83 -222l-45 -136c-2.66699 -7.33301 -5 -21.666 -7 -42.999s-6 -37.333 -12 -48c-8.66699 -16.667 -17 -28.167 -25 -34.5s-16.667 -9.5 -26 -9.5
c-10.667 0 -19.5 3.5 -26.5 10.5s-10.5 15.833 -10.5 26.5c0 13.333 11.333 54.5 34 123.5l35 106.5c4.66699 15.333 -12.166 47.166 -50.499 95.499l-113.5 141.5c-42 52.667 -63 87 -63 103c0 5.33301 3.16699 12.166 9.5 20.499s12.166 12.5 17.499 12.5
c6.66699 0 13.334 -2.33301 20.001 -7c2.66699 -2 8.33398 -7.33301 17.001 -16c12.667 -13.333 26.667 -31.333 42 -54c40.667 -61.333 62.667 -94 66 -98l34 -40l60 -66c30.667 89.333 49.667 142.333 57 159c34 80 64.667 120 92 120c8.66699 0 16.5 -2.83301 23.5 -8.5
s10.5 -13.167 10.5 -22.5z" />
    <glyph glyph-name="Z" unicode="Z" horiz-adv-x="604" 
d="M604 335c-16 -17.333 -49.4961 -28.334 -100.496 -33.001s-85.833 -16 -104.5 -34c-34.667 -32.667 -65.667 -68 -93 -106c-33.333 -46 -54.333 -87.333 -63 -124c20 -4 40.667 -6 62 -6c29.333 0 72.666 7.33301 129.999 22s99.666 22 126.999 22
c7.33301 0 14.5 -3 21.5 -9s10.833 -13 11.5 -21c-3.33301 -19.333 -54.333 -38.666 -153 -57.999c-82 -16 -142.667 -24 -182 -24c-28.667 0 -51.667 3.33301 -69 10c-22 8.66699 -38.333 23.667 -49 45c6.66699 24 38.334 69.833 95.001 137.5s88 104.834 94 111.501
l-63 -2c-21.333 0 -38.333 2.66699 -51 8s-23.334 16.333 -32.001 33l13 10c4.66699 2.66699 9.66699 5.33398 15 8.00098c75.333 0 136.333 14 183 42c56.667 34 85 86 85 156c0 43.333 -22.333 65 -67 65c-20 0 -56 -11.667 -108 -35l-170 -77
c-12.667 0 -25.167 3.66699 -37.5 11s-18.5 16.666 -18.5 27.999c0 16 49.833 41.333 149.5 76s163.167 52 190.5 52c33.333 0 62.666 -7.66699 87.999 -23c30.667 -18.667 46 -43.334 46 -74.001c0 -16.667 -10.667 -51 -32 -103c-10.667 -26 -16 -47.333 -16 -64l1 -15h30
c13.333 0 24.666 -1.83301 33.999 -5.5s20.333 -11.5 33 -23.5z" />
    <glyph glyph-name="bracketleft" unicode="[" horiz-adv-x="497" 
d="M448 -38l-30.0029 -24.998c-6 -1.33301 -14.333 -2 -25 -2s-19 -0.333008 -25 -1h-17c-20 0 -45.667 -4 -77 -12c-68 -17.333 -111.667 -26 -131 -26c-43.333 0 -65 22 -65 66c0 22.667 3.33301 49 10 79c18.667 84.667 28.334 128.667 29.001 132c4 36 7 76.667 9 122
s3 87 3 125c0 43.333 -0.333008 86.666 -1 129.999l-2 131c0 24.667 10.667 42.5 32 53.5s46 16.5 74 16.5c32.667 0 65 -6 97 -18c40.667 -15.333 64 -36 70 -62c-12 0 -41 4.33301 -87 13c-21.333 4 -38.666 6 -51.999 6c-43.333 0 -65 -22 -65 -66v-84.5
c0 -28.333 0.333008 -56.5 1 -84.5v-21c0 -50 -2 -99.667 -6 -149c0 -27.333 -3.66699 -61.333 -11 -102c-16.667 -92 -25 -149 -25 -171c0 -11.333 0.666992 -21.333 2 -30s4.33301 -18.334 9 -29.001l72 22c52.667 16 94.334 24 125.001 24
c17.333 0 33.5 -2.83301 48.5 -8.5s27.5 -15.167 37.5 -28.5z" />
    <glyph glyph-name="backslash" unicode="\" horiz-adv-x="536" 
d="M536 29c-14 -14 -22.002 -21.667 -24.002 -23c-8.66699 -6 -19 -9 -31 -9c-8 0 -15 2.66699 -21 8c-2.66699 2.66699 -7 8.66699 -13 18c-10 16.667 -23.667 36.334 -41 59.001l-44 58c-22.667 31.333 -50.667 74.333 -84 129c-45.333 75.333 -72 119 -80 131
c-31.333 49.333 -61.666 91.666 -90.999 126.999c-8 9.33301 -13.333 16.333 -16 21c-4.66699 8 -7 16.333 -7 25c0 16 9.33301 24 28 24c22.667 0 51.334 -26 86.001 -78c22 -32.667 52 -85 90 -157c35.333 -67.333 59.333 -108.333 72 -123z" />
    <glyph glyph-name="bracketright" unicode="]" horiz-adv-x="594" 
d="M567 70c0 -10.667 -0.833008 -19.667 -2.5 -27s-5.16699 -15 -10.5 -23c-9.33301 -12.667 -27 -22.334 -53 -29.001l-63 -14l-205 -83c-14.667 5.33301 -24 10 -28 14s-9 13 -15 27l182 71c74 36.667 111 79.667 111 129c0 30.667 -5 75.667 -15 135s-15 104 -15 134
c0 12.667 0.833008 36.5 2.5 71.5s2.5 57.833 2.5 68.5c0 30 -1.16699 54 -3.5 72s-7.16602 33.667 -14.499 47c-8.66699 4 -16 6.83301 -22 8.5s-13 2.5 -21 2.5c-25.333 0 -71.333 -3 -138 -9c-37.333 -3.33301 -65 -5 -83 -5l-44 3c0 10.667 2.16699 20.334 6.5 29.001
s11.166 15 20.499 19c2.66699 1.33301 41.5 4.83301 116.5 10.5l236.5 18.5c-2.66699 -8 -0.166992 -19.833 7.5 -35.5s11.5 -26.5 11.5 -32.5v-249c0 -76 3.33301 -146.333 10 -211z" />
    <glyph glyph-name="asciicircum" unicode="^" horiz-adv-x="429" 
d="M427 406c0 -10.667 -4.16895 -19.165 -12.502 -25.498s-18.166 -9.5 -29.499 -9.5c-6.66699 0 -12.667 1.5 -18 4.5s-9.83301 6.66699 -13.5 11s-22.167 38.166 -55.5 101.499s-51.666 98.666 -54.999 105.999c-14 -13.333 -29.667 -40.666 -47 -81.999
c-31.333 -73.333 -58.333 -110 -81 -110c-11.333 0 -20.5 2.5 -27.5 7.5s-10.5 13.167 -10.5 24.5c0 6.66699 17.5 48.167 52.5 124.5s56.167 119.333 63.5 129s14.833 17.5 22.5 23.5s16.5 9 26.5 9c28 0 51.667 -24.667 71 -74l38 -109
c0.666992 -1.33301 15.667 -22.333 45 -63c20.667 -28.667 31 -51.334 31 -68.001z" />
    <glyph glyph-name="underscore" unicode="_" horiz-adv-x="604" 
d="M609 -14c-2 -18.667 -5.33301 -32.001 -10 -40.001c-7.33301 -12.667 -19 -19 -35 -19c-19.333 0 -42 1.66699 -68 5c-62 8 -101.667 12 -119 12c-32 0 -70 -4 -114 -12c-98.667 -18 -161 -27 -187 -27c-19.333 0 -35.5 3 -48.5 9s-20.5 17.333 -22.5 34
c28.667 6.66699 85.334 16.667 170.001 30c45.333 7.33301 79.666 13.333 102.999 18c2 -1.33301 8 -2 18 -2h32c33.333 0 63.833 0.333008 91.5 1s53.167 1.33398 76.5 2.00098c41.333 0 79 -3.66699 113 -11z" />
    <glyph glyph-name="grave" unicode="`" horiz-adv-x="438" 
d="M355 495c0 -2.66699 -0.666992 -6.99805 -2 -12.998s-2 -10.333 -2 -13c-44 0 -93.667 11.333 -149 34c-67.333 27.333 -101 58.666 -101 93.999c0 12 2 23.667 6 35c13.333 0 32 -9.33301 56 -28c55.333 -44 85.5 -66.5 90.5 -67.5s13.833 -2.33301 26.5 -4
s23.5 -3.33398 32.5 -5.00098s17.167 -4.16699 24.5 -7.5c12 -6 18 -14.333 18 -25z" />
    <glyph glyph-name="a" unicode="a" horiz-adv-x="477" 
d="M477 67c-2.66699 -18.667 -10.832 -34.666 -24.499 -47.999s-30.167 -20 -49.5 -20c-32 0 -57.333 16.333 -76 49c-6.66699 11.333 -21.667 65.333 -45 162c-38.667 -78.667 -64.334 -128 -77.001 -148c-41.333 -62.667 -83 -94 -125 -94c-20 0 -33.5 7.16699 -40.5 21.5
s-10.5 32.833 -10.5 55.5c0 74 11.667 148.667 35 224c30 96.667 70.333 157 121 181c20 -8.66699 37 -17.834 51 -27.501s29.333 -22.834 46 -39.501l12 -2c2 2 6.5 4.33301 13.5 7s11.5 4 13.5 4c20 0 34 -6 42 -18c6 -9.33301 9 -23.333 9 -42
c0 -5.33301 -0.333008 -13.166 -1 -23.499s-1 -17.5 -1 -21.5v-50c0 -9.33301 -0.166992 -18.5 -0.5 -27.5s-0.5 -17.833 -0.5 -26.5c0 -40 5.33301 -66.667 16 -80c14 -18 44.667 -30 92 -36zM256.002 288.001c0 14 -3.33203 28.002 -9.99902 42.002l-42 62h-9
c-37.333 -34 -60.333 -73.5 -69 -118.5l-20 -102.5c-9.33301 -46.667 -14 -78.334 -14 -95.001c0 -18.667 1.66699 -34.334 5 -47.001c35.333 33.333 68.666 73.333 99.999 120c39.333 58 59 104.333 59 139z" />
    <glyph glyph-name="b" unicode="b" 
d="M509 209c0 -72 -52.333 -132.331 -157 -180.998c-87.333 -40.667 -172.333 -61 -255 -61c-16.667 0 -30.5 4.5 -41.5 13.5s-19.833 21.833 -26.5 38.5c28.667 10 48.667 25.667 60 47c8.66699 16 13 38.667 13 68c0 15.333 -0.333008 28 -1 38
c-2.66699 39.333 -4 61.333 -4 66c0 18.667 3.33301 71 10 157c4.66699 63.333 11.667 141.166 21 233.499s15.666 142.166 18.999 149.499l21 8c6.66699 0 13.834 -0.833008 21.501 -2.5s15.834 -4.16699 24.501 -7.5c0 -24.667 -4.66699 -65.334 -14 -122.001l-29 -175
c0 -19.333 5.66699 -32.666 17 -39.999c8 -5.33301 21.667 -8 41 -8c5.33301 0 13.666 0.333008 24.999 1s19.333 1 24 1c58 0 111 -23 159 -69s72 -97.667 72 -155zM445 212.002c0 42.667 -16.166 81.833 -48.499 117.5s-70.5 53.5 -114.5 53.5
c-52 0 -86.667 -37 -104 -111c-8.66699 -37.333 -13 -95.333 -13 -174c0 -36 18.667 -54 56 -54c51.333 0 99.666 14.667 144.999 44c52.667 34 79 75.333 79 124z" />
    <glyph glyph-name="c" unicode="c" horiz-adv-x="458" 
d="M458 134c0 -38.667 -43.333 -75.665 -130 -110.998c-74 -30 -134.667 -45 -182 -45c-44 0 -75.667 20.667 -95 62c-14.667 31.333 -22 71.666 -22 120.999c0 53.333 17 112.666 51 177.999c39.333 75.333 83.333 113 132 113c39.333 0 69 -24.667 89 -74
c15.333 -37.333 23 -78.666 23 -123.999l-3 -44c-34 0 -59.667 21.333 -77 64c-0.666992 2 -10.667 38.333 -30 109c-36 -14.667 -66 -49.334 -90 -104.001c-21.333 -48 -32 -94.667 -32 -140c0 -30 5.66699 -54 17 -72c14 -22 35 -33 63 -33s76 17.333 144 52
s111.667 51 131 49z" />
    <glyph glyph-name="d" unicode="d" horiz-adv-x="507" 
d="M501 119c0 -32 -48.9961 -64.334 -146.996 -97.001c-85.333 -28.667 -150.333 -43 -195 -43c-40 0 -71 10.333 -93 31s-33 50.667 -33 90c0 50.667 33.333 118 100 202c69.333 87.333 129.666 131 180.999 131c9.33301 0 18.166 -0.833008 26.499 -2.5
s18.166 -4.5 29.499 -8.5c11.333 30 17 59.333 17 88c0 17.333 -1.66699 37.333 -5 60c-8 54 -12 87.667 -12 101s1.5 22.5 4.5 27.5s10.5 11.167 22.5 18.5c18 -4.66699 30.667 -17.667 38 -39c5.33301 -16 8 -37.333 8 -64c0 -7.33301 -0.166992 -14.166 -0.5 -20.499
s-0.5 -12.5 -0.5 -18.5c0 -28 -1.83301 -75 -5.5 -141s-5.5 -108.667 -5.5 -128c0 -12 -0.166992 -23.167 -0.5 -33.5s-0.5 -19.833 -0.5 -28.5c0 -24 3.66699 -42.333 11 -55s26 -31 56 -55c1.33301 -5.33301 2.66602 -10.333 3.99902 -15zM374.004 193.999
c0 37.333 -4.83301 71.499 -14.5 102.499s-25.834 59.833 -48.501 86.5c-6.66699 -6 -13 -9 -19 -9c-32 -31.333 -53.333 -52.666 -64 -63.999c-23.333 -25.333 -41.666 -49.333 -54.999 -72l-66 -114l-3 -19c0 -21.333 8 -39.333 24 -54s35 -22 57 -22
c33.333 0 70 9.66699 110 29c46.667 22.667 71.667 48 75 76c1.33301 8 2.33301 17.5 3 28.5s1 21.5 1 31.5z" />
    <glyph glyph-name="e" unicode="e" horiz-adv-x="468" 
d="M468 134c-27.333 -7.33301 -63.334 -22.3311 -108.001 -44.998c-58.667 -30 -95.334 -48 -110.001 -54c-42 -17.333 -80 -26 -114 -26s-60.333 8 -79 24s-28 40.333 -28 73c0 59.333 20 124 60 194c45.333 79.333 95.333 119 150 119c28 0 51.833 -10.833 71.5 -32.5
s29.5 -46.5 29.5 -74.5c0 -20.667 -7 -40.667 -21 -60c-20 -26.667 -62 -43.334 -126 -50.001s-96 -40.334 -96 -101.001c0 -11.333 5 -21 15 -29s21 -12 33 -12c18.667 0 58.334 17 119.001 51s107.334 51 140.001 51c24 0 45.333 -9.33301 64 -28zM275.999 317.002
c0 10.667 -4.5 20.502 -13.5 29.502s-18.833 13.5 -29.5 13.5c-19.333 0 -37.833 -14.333 -55.5 -43s-25.167 -52.334 -22.5 -71.001l1 -7c42.667 13.333 72.667 25.666 90 36.999c20 13.333 30 27 30 41z" />
    <glyph glyph-name="f" unicode="f" horiz-adv-x="575" 
d="M572 342c-8.66699 -14 -18.3369 -23.3271 -29.0039 -27.9941s-23.667 -7 -39 -7h-17.5c-5.66699 0 -11.5 0.333008 -17.5 1c-74 0 -124 -12.333 -150 -37c-20.667 -20 -31 -55.333 -31 -106c0 -20.667 0.333008 -36.667 1 -48c3.33301 -57.333 5 -89 5 -95
c0 -28.667 -1.33301 -48.334 -4 -59.001c-6 -22.667 -18.333 -37.334 -37 -44.001c-12 9.33301 -20.5 26.666 -25.5 51.999s-7.5 55.666 -7.5 90.999c0 28 1.66699 64.667 5 110s5 72.333 5 81c-21.333 0 -42.666 -4 -63.999 -12l-100 -39
c-7.33301 2.66699 -14 5.66699 -20 9s-13 8 -21 14v9c18 17.333 62 37 132 59c56.667 18 87.334 43 92.001 75c4 52 8.33301 104.333 13 157c8.66699 81.333 21.667 146 39 194c23.333 63.333 54.666 95 93.999 95c43.333 0 78.333 -29.667 105 -89
c21.333 -48 32 -96.667 32 -146c0 -12.667 -2.66699 -25.334 -8 -38.001c-5.33301 -2 -12 -4 -20 -6s-15 -3 -21 -3c-15.333 80 -25.666 128.667 -30.999 146c-9.33301 31.333 -21.666 59.333 -36.999 84c-38 -46.667 -66 -104.334 -84 -173.001
c-15.333 -58.667 -23 -122.667 -23 -192c0 -16.667 4 -30 12 -40s20.333 -15 37 -15c17.333 0 37.333 3.33301 60 10c52.667 15.333 85.667 23 99 23c28.667 0 47.334 -11 56.001 -33z" />
    <glyph glyph-name="g" unicode="g" horiz-adv-x="536" 
d="M536 230c-7.33301 -19.333 -33.332 -45.9971 -77.999 -79.9971c-39.333 -30 -59 -61 -59 -93c0 -21.333 0.666992 -57 2 -107s2 -76.667 2 -80c0 -63.333 -6 -124.333 -18 -183c-16 -78.667 -40.333 -141.334 -73 -188.001c-40.667 -58 -91.334 -87 -152.001 -87
c-48.667 0 -86.5 17 -113.5 51s-40.5 75.667 -40.5 125c0 90 23.333 173.333 70 250c28 46 75.333 102.667 142 170c60.667 60.667 96.667 104 108 130c0 7.33301 -1.33301 14.666 -4 21.999c-0.666992 0.666992 -4 8 -10 22c-35.333 -35.333 -64 -60 -86 -74
c-34 -21.333 -70 -32 -108 -32c-27.333 0 -49 6.33301 -65 19s-24 32 -24 58c0 60 23.667 114 71 162s101.333 72 162 72c54 0 89.333 -23.667 106 -71l31 -134l45 36c22 16 38.667 24 50 24c7.33301 0 13.833 -0.833008 19.5 -2.5s13.167 -4.83398 22.5 -9.50098z
M281.001 284.003c0 13.333 -3.16699 24.668 -9.5 34.001s-15.833 14 -28.5 14c-28 0 -58.833 -20.167 -92.5 -60.5s-50.5 -74.833 -50.5 -103.5c0 -11.333 3.5 -20.833 10.5 -28.5s16.167 -11.5 27.5 -11.5c30.667 0 62.167 18.167 94.5 54.5s48.5 70.166 48.5 101.499z
M354.001 -84.9951c0 28 -1.5 51.6699 -4.5 71.0029s-9.16699 39.666 -18.5 60.999c-63.333 -40.667 -123.333 -105 -180 -193c-60.667 -94 -91 -176.333 -91 -247c0 -32.667 8.66699 -63.334 26 -92.001c20 -33.333 45.667 -50 77 -50c44.667 0 83 31 115 93
c25.333 49.333 45 113.666 59 192.999c11.333 64 17 118.667 17 164z" />
    <glyph glyph-name="h" unicode="h" horiz-adv-x="565" 
d="M556 97c0 -22.667 -12.667 -44.3311 -38 -64.998s-50 -31 -74 -31c-48.667 0 -82.334 36 -101.001 108c-0.666992 4 -8 60 -22 168c-22 -17.333 -47.333 -54.333 -76 -111c-39.333 -76.667 -64 -122.334 -74 -137.001c-30.667 -44 -63.334 -66 -98.001 -66
c-15.333 0 -25.5 6.83301 -30.5 20.5s-7.5 30.167 -7.5 49.5c0 80.667 1.5 151.667 4.5 213s9.16699 122.333 18.5 183c12 74 28.333 132.333 49 175c12 -4.66699 23 -10.667 33 -18c2.66699 -5.33301 4.33398 -10.833 5.00098 -16.5s1 -16.5 1 -32.5
c0 -33.333 -9.33301 -106.333 -28 -219c-8.66699 -52.667 -13 -97 -13 -133c0 -30 0.666992 -50.5 2 -61.5s4.66602 -26.5 9.99902 -46.5c56.667 97.333 102 170.666 136 219.999c36.667 52 67 78 91 78c30 0 46.333 -52 49 -156s22.334 -156 59.001 -156
c12.667 0 31.334 15.333 56.001 46l28 35l12 -23c5.33301 -10.667 8 -18.667 8 -24z" />
    <glyph glyph-name="i" unicode="i" horiz-adv-x="263" 
d="M197 581c0 -6 -1.16797 -12.999 -3.50098 -20.999s-5.5 -15.667 -9.5 -23c-11.333 0 -21.666 2.5 -30.999 7.5s-16.5 10.5 -21.5 16.5s-7.5 14.333 -7.5 25c0 18.667 10.667 28 32 28c13.333 0 23.5 -2.33301 30.5 -7s10.5 -13.334 10.5 -26.001zM177.999 321.001
c0 -32.667 -1.33301 -72.666 -4 -119.999c-6 -107.333 -9 -174.333 -9 -201h-9c-6.66699 -4.66699 -14.334 -7 -23.001 -7c-13.333 0 -24.333 4.66699 -33 14s-13 20.666 -13 33.999c0 8.66699 2 19 6 31c9.33301 27.333 14 44.666 14 51.999v201v21
c0 14.667 1.33301 25.834 4 33.501s9.33398 11.5 20.001 11.5c17.333 0 30 -7.66699 38 -23c6 -12 9 -27.667 9 -47z" />
    <glyph glyph-name="j" unicode="j" horiz-adv-x="312" 
d="M278 632c0 -14 -3.83398 -25.666 -11.501 -34.999s-18.5 -14 -32.5 -14c-7.33301 0 -15.666 5.33301 -24.999 16s-14 20 -14 28c0 10.667 5.5 21.167 16.5 31.5s22.5 15.5 34.5 15.5c10 0 17.833 -4.33301 23.5 -13s8.5 -18.334 8.5 -29.001zM244.999 352.001
c0 -43.333 -2.66504 -108.33 -7.99805 -194.997s-8 -151.667 -8 -195c0 -76 -2 -127.667 -6 -155c-8 -54.667 -26 -95.334 -54 -122.001c-34 -32.667 -86.333 -49 -157 -49c-50.667 0 -111.667 21.667 -183 65c-77.333 46.667 -116 92.667 -116 138
c0 14.667 6.16699 26.5 18.5 35.5s27.166 15.833 44.499 20.5l10 -10c0 -58 25 -104.667 75 -140c44.667 -32 97.667 -48 159 -48c67.333 0 113 34.333 137 103c14.667 41.333 22 104 22 188c0 28 -1.83301 74.167 -5.5 138.5s-5.5 106.166 -5.5 125.499
c0 40 0.666992 69 2 87s6.66602 36 15.999 54l23 12c14 -3.33301 23.5 -9.33301 28.5 -18s7.5 -20.334 7.5 -35.001z" />
    <glyph glyph-name="k" unicode="k" horiz-adv-x="438" 
d="M438 9c-4 -1.33301 -10.1699 -3.00293 -18.5029 -5.00293s-14.5 -3 -18.5 -3c-20 0 -58.167 24.5 -114.5 73.5s-98.166 73.5 -125.499 73.5c-28 0 -43.333 -43.167 -46 -129.5s-17.667 -129.5 -45 -129.5c-12 0 -22.167 3.83301 -30.5 11.5s-12.5 17.167 -12.5 28.5
c0 10 2.66699 22 8 36c8 20.667 12.333 32.334 13 35.001c8 34.667 13.833 75.334 17.5 122.001s5.5 92.667 5.5 138c0 18.667 -0.333008 46.5 -1 83.5s-1 64.167 -1 81.5c0 24 0.5 42.667 1.5 56s3.5 28.666 7.5 45.999c20.667 -4 35.334 -12 44.001 -24
c6.66699 -10 10 -24 10 -42c0 -8 -1 -21 -3 -39s-3 -32 -3 -42c0 -35.333 0.5 -61.666 1.5 -78.999s3.83301 -38 8.5 -62c8 10 25.167 28.167 51.5 54.5s41.833 43.5 46.5 51.5l52 107c27.333 47.333 55 71 83 71c10.667 0 20.667 -2 30 -6c-17.333 -24 -43 -62 -77 -114
c-75.333 -115.333 -117.666 -179.666 -126.999 -192.999c23.333 -10.667 67.666 -42.334 132.999 -95.001c68.667 -55.333 105.334 -90.666 110.001 -105.999z" />
    <glyph glyph-name="l" unicode="l" horiz-adv-x="380" 
d="M380 67c-4 -16.667 -11.333 -30.002 -22 -40.002s-24.334 -15 -41.001 -15c-18.667 0 -40 5.66699 -64 17c-31.333 14.667 -63.666 36.667 -96.999 66l-38 -53c-18 -21.333 -36 -32 -54 -32c-5.33301 0 -9.66602 0.333008 -12.999 1
c-5.33301 0.666992 -12.666 3.33398 -21.999 8.00098c4 10.667 12.333 25 25 43c15.333 19.333 25.666 32.666 30.999 39.999c16 20.667 27 41.834 33 63.501s9 45.834 9 72.501c0 12.667 -1 32.667 -3 60s-3 49 -3 65c0 71.333 11.667 141.666 35 210.999
c31.333 94 76 141 134 141c19.333 0 33.333 -8.33301 42 -25c6.66699 -12.667 10 -29.667 10 -51c0 -44.667 -11.333 -102 -34 -172c-7.33301 -22 -28.333 -78.667 -63 -170c-22.667 -59.333 -34 -99 -34 -119c0 -46 18 -76.667 54 -92
c17.333 -7.33301 55.666 -13.666 114.999 -18.999zM285 602.998l-3 39c-34.667 -30 -62.167 -69.833 -82.5 -119.5s-30.5 -98.5 -30.5 -146.5c0 -18 1.16699 -33.667 3.5 -47s6.5 -27.333 12.5 -42c30 60.667 52.333 112 67 154c22 62 33 116 33 162z" />
    <glyph glyph-name="m" unicode="m" horiz-adv-x="643" 
d="M653 124c-12.667 -30.667 -35.833 -59.8301 -69.5 -87.4971s-66.5 -41.5 -98.5 -41.5c-38 0 -61.333 36.667 -70 110c-3.33301 44.667 -5.33301 73.667 -6 87c-25.333 -53.333 -40 -83.333 -44 -90c-24 -40 -47.667 -60 -71 -60c-16 0 -27.167 5.66699 -33.5 17
s-9.5 25 -9.5 41c0 15.333 2.33301 33.333 7 54c11.333 49.333 17 79.333 17 90c-0.666992 6 -1 10.667 -1 14l-1 10l-41 -38c-7.33301 -8.66699 -14.333 -20 -21 -34c-14.667 -52 -27.667 -94 -39 -126c-22 -60 -48 -90 -78 -90c-7.33301 0 -13.666 4.66699 -18.999 14
c-2 2 -7 49.667 -15 143s-12 146.666 -12 159.999c0 20 1.83301 39.667 5.5 59s11.5 29 23.5 29c30 0 48.333 -41 55 -123l4 -80l67 109c31.333 48.667 62.666 73 93.999 73c30.667 0 49.334 -19.667 56.001 -59l7 -56c12.667 21.333 26 40 40 56
c21.333 24.667 39.666 37 54.999 37c12 0 20.333 -8.33301 25 -25s7 -38.334 7 -65.001c0 -13.333 -0.5 -26.833 -1.5 -40.5s-1.83301 -27.5 -2.5 -41.5c0 -26 1.5 -47.833 4.5 -65.5s9.5 -36.834 19.5 -57.501c39.333 38 61 58.667 65 62c14.667 12 30.667 21.333 48 28
c5.33301 -1.33301 10.833 -3.33301 16.5 -6s11.167 -5 16.5 -7z" />
    <glyph glyph-name="n" unicode="n" horiz-adv-x="663" 
d="M663 86c-9.33301 -22 -22.667 -40.9961 -40 -56.9961c-20.667 -19.333 -41.667 -29 -63 -29c-24.667 0 -42 13.667 -52 41c-7.33301 20 -11 49.667 -11 89c0 17.333 0.333008 32.666 1 45.999s1.33398 26 2.00098 38c0 22.667 -4.33301 43.667 -13 63
c-62 -98.667 -112 -175.334 -150 -230.001c-40.667 -58.667 -68.334 -88 -83.001 -88c-10 0 -18.333 4.5 -25 13.5s-10 18.833 -10 29.5c0 25.333 10 81.666 30 168.999c10 43.333 15 77.333 15 102l-1 24c-10.667 -6 -35 -23.333 -73 -52c-58 -44 -103.667 -66 -137 -66
l-24 3c4 12.667 26.667 35.334 68 68.001c24.667 19.333 65.667 48.666 123 87.999c52.667 36 83.334 57.333 92.001 64h19c4 -15.333 7 -27.833 9 -37.5s3 -20.167 3 -31.5c0 -16.667 -2.66699 -37 -8 -61c-12 -54.667 -18 -88.667 -18 -102s1.33301 -25.333 4 -36
c45.333 72 89 133 131 183c38 45.333 65 68 81 68c12.667 0 21.334 -9.33301 26.001 -28s7 -44.334 7 -77.001c0 -15.333 -0.5 -31.333 -1.5 -48s-1.83301 -34 -2.5 -52c0 -40 4.33301 -77.667 13 -113l23 20c11.333 8.66699 19.666 13 24.999 13
c3.33301 0 9.16602 -1.66699 17.499 -5z" />
    <glyph glyph-name="o" unicode="o" horiz-adv-x="370" 
d="M374 349c0 -74 -17.001 -145.667 -51.001 -215c-42 -85.333 -96.333 -128 -163 -128c-41.333 0 -72.833 14.667 -94.5 44s-32.5 65 -32.5 107c0 36 7.83301 82.167 23.5 138.5s34.167 93.833 55.5 112.5c9.33301 8.66699 18.333 14.167 27 16.5s18.667 3.5 30 3.5h17
c10.667 0 20.334 1.66699 29.001 5c22 10 36 16 42 18c16.667 6 32 9 46 9c29.333 0 49.333 -12 60 -36c7.33301 -16 11 -41 11 -75zM316.999 317c0 15.333 -1 28.667 -3 40s-6 23 -12 35c-14 -10 -47.667 -23.333 -101 -40c-67.333 -21.333 -101 -75 -101 -161
c0 -38 6.66699 -67.667 20 -89c11.333 -18 26.333 -27 45 -27c40 0 76.333 31.333 109 94c28.667 54.667 43 104 43 148z" />
    <glyph glyph-name="p" unicode="p" horiz-adv-x="390" 
d="M392 247c0 -73.333 -23.665 -132.669 -70.998 -178.002s-108.333 -68 -183 -68c-4.66699 0 -9.33398 -0.5 -14.001 -1.5s-9.33398 -2.83301 -14.001 -5.5c-8.66699 -13.333 -14.5 -32.5 -17.5 -57.5s-4.5 -56.833 -4.5 -95.5c0 -26.667 0.333008 -50.667 1 -72l2 -61
c0 -22 -2.66699 -39.333 -8 -52c-8 -18.667 -21.667 -28 -41 -28c-12 0 -19.833 6.33301 -23.5 19s-5.5 27.334 -5.5 44.001c0 32.667 4.5 106.834 13.5 222.501s19.5 217.5 31.5 305.5c14.667 109.333 27.5 167.5 38.5 174.5s36.667 15.167 77 24.5s67.833 14 82.5 14
c44 0 78.667 -20.667 104 -62c21.333 -35.333 32 -76.333 32 -123zM337.002 246.997c0 30.667 -8.66602 59.666 -25.999 86.999c-20.667 32 -45.667 48 -75 48c-38.667 0 -71.334 -35.333 -98.001 -106c-21.333 -57.333 -32 -109.666 -32 -156.999
c0 -21.333 4.16699 -38.833 12.5 -52.5s22.833 -20.5 43.5 -20.5c48 0 89.667 22 125 66c33.333 41.333 50 86.333 50 135z" />
    <glyph glyph-name="q" unicode="q" horiz-adv-x="409" 
d="M409 259c0 -38 -17.667 -80.002 -53 -126.002c-25.333 -30 -43.333 -52 -54 -66c34.667 -24 60.334 -55.167 77.001 -93.5s25 -80.166 25 -125.499c0 -94 -20.667 -189.333 -62 -286c-52 -122 -118.667 -183 -200 -183c-35.333 0 -61 18.667 -77 56
c-11.333 26.667 -17 60.334 -17 101.001c0 47.333 11.667 117 35 209c18.667 74 39.667 143.333 63 208c-32.667 6 -59.334 18 -80.001 36c-24.667 21.333 -37 47.333 -37 78c0 67.333 28.667 150 86 248c63.333 108.667 126 163 188 163c43.333 0 73.333 -27.667 90 -83
c10.667 -34.667 16 -80 16 -136zM323 319.998c0 38 -7 72.002 -21 102.002l-10 -10c-41.333 0 -86 -43.667 -134 -131c-44 -80 -66 -143.333 -66 -190c0 -8.66699 0.333008 -15.334 1 -20.001s2 -12.667 4 -24c18 5.33301 33.667 12 47 20
c16 11.333 29.667 20.666 41 27.999c30.667 16 53 28.333 67 37c26 16 42.5 35.167 49.5 57.5s12.333 44 16 65s5.5 42.833 5.5 65.5zM345 -126c0 30 -5 59.3359 -15 88.0029c-13.333 39.333 -32.666 59 -57.999 59c-24 0 -50 -34.667 -78 -104
c-22.667 -56.667 -42.834 -123.334 -60.501 -200.001s-26.5 -129.334 -26.5 -158.001c0 -32 1.33301 -55 4 -69c6 -33.333 18.667 -50 38 -50c8 0 15 1.66699 21 5s17.333 12.666 34 27.999c44.667 44 80 106.333 106 187c23.333 72.667 35 144 35 214z" />
    <glyph glyph-name="r" unicode="r" horiz-adv-x="399" 
d="M393 358c-2.66699 -5.33301 -4.99805 -9.33008 -6.99805 -11.9971l-16 -21l-36 20c-16.667 8.66699 -29.334 13 -38.001 13c-11.333 0 -23 -4.66699 -35 -14c-8.66699 -6.66699 -17.667 -16 -27 -28c-22.667 -28.667 -44 -77 -64 -145
c-34.667 -118 -62.667 -177 -84 -177c-10.667 0 -18 5.5 -22 16.5s-6 23.167 -6 36.5c0 17.333 1 37.666 3 60.999c4.66699 54.667 7 88.667 7 102c0 19.333 -5.66699 48.666 -17 87.999s-17 68.666 -17 87.999c0 13.333 1.5 24.333 4.5 33s9.5 16 19.5 22
c18 -10 33.333 -33.333 46 -70c16 -48 26.667 -76 32 -84c26 36 48 62.333 66 79c32 30.667 62 46 90 46c29.333 0 49.666 -2.33301 60.999 -7c18.667 -7.33301 32 -23 40 -47z" />
    <glyph glyph-name="s" unicode="s" horiz-adv-x="438" 
d="M433 288c0 -4.66699 -0.166016 -9.83203 -0.499023 -15.499s-1.5 -13.5 -3.5 -23.5c-6 2 -31.333 34 -76 96c-19.333 26.667 -37.666 40 -54.999 40c-20.667 0 -42.5 -9.5 -65.5 -28.5s-34.5 -38.833 -34.5 -59.5c0 -26.667 19 -58 57 -94l107 -92
c38 -35.333 57 -65 57 -89c0 -22.667 -12 -40.334 -36 -53.001c-20 -10.667 -42.333 -16 -67 -16c-12 0 -26.333 1 -43 3c-39.333 4.66699 -64 7 -74 7c-10.667 0 -27 -1.33301 -49 -4s-38.333 -4 -49 -4c-21.333 0 -37.833 4 -49.5 12s-19.167 22 -22.5 42
c10 2 23.333 4.33301 40 7s34 4 52 4c17.333 0 34.666 -1 51.999 -3c52 -6 81 -9 87 -9c31.333 0 61.666 7 90.999 21c-9.33301 26.667 -34.333 56 -75 88l-103 82c-34.667 32.667 -52 64 -52 94c0 42.667 21 78.667 63 108c38 26.667 79.667 40 125 40
c41.333 0 73 -15.667 95 -47c19.333 -28 29 -63.333 29 -106z" />
    <glyph glyph-name="t" unicode="t" horiz-adv-x="526" 
d="M526 441l-154 -38.001c-43.333 -10.667 -72 -45.667 -86 -105c-6 -26.667 -11 -82.667 -15 -168s-14.333 -143.333 -31 -174l-22 -11c-12.667 2.66699 -21.5 8.33398 -26.5 17.001s-7.5 20 -7.5 34c0 24.667 3.33301 55.667 10 93c14.667 82 22 135.333 22 160
c0 34.667 -4 69.667 -12 105l-77 -35c-34 -14.667 -60.333 -22 -79 -22c3.33301 32.667 33.5 59.834 90.5 81.501s85.5 48.834 85.5 81.501l-1 76c0 42 1.33301 72.333 4 91c5.33301 39.333 17.333 66.666 36 81.999c32.667 -14.667 49 -41.334 49 -80.001
c0 -17.333 -3.5 -42 -10.5 -74s-10.5 -55 -10.5 -69c0 -15.333 3.5 -27.833 10.5 -37.5s18.167 -14.5 33.5 -14.5c16 0 39.667 5 71 15s55 15 71 15c12.667 0 23 -2.66699 31 -8c3.33301 -2 9.33301 -7 18 -15z" />
    <glyph glyph-name="u" unicode="u" horiz-adv-x="594" 
d="M578 20c0 -7.33301 -1.50195 -13.333 -4.50195 -18s-8.16699 -7 -15.5 -7c-32.667 0 -57.667 30.333 -75 91c-2 6.66699 -10.333 51.334 -25 134.001c-40 -78.667 -79.667 -143.667 -119 -195c-36 -46.667 -64 -70 -84 -70c-19.333 0 -34.166 10.167 -44.499 30.5
s-15.5 40.833 -15.5 61.5c0 26.667 7 87.667 21 183c6.66699 45.333 10 82.333 10 111l-2 13c-22.667 -8.66699 -53 -33.5 -91 -74.5s-69.333 -64.167 -94 -69.5l-3 21c0 27.333 32.833 73.833 98.5 139.5s110.834 98.5 135.501 98.5c13.333 0 22.666 -4.16699 27.999 -12.5
s8 -19.833 8 -34.5c0 -30 -4.33301 -67 -13 -111c-19.333 -97.333 -29 -160.333 -29 -189c0 -28 3 -56 9 -84c4.66699 6 9.66699 11.333 15 16s11.333 8.33398 18 11.001l-6 4c0 1.33301 13.833 22.666 41.5 63.999s43.834 67 48.501 77l65 148c36 76.667 62.333 118 79 124
c8.66699 -4 16 -11 22 -21s9 -20 9 -30c0 -28.667 -2 -64.334 -6 -107.001c-8.66699 -92 -13 -152 -13 -180c0 -12.667 7 -38 21 -76c7.33301 -20 11 -36 11 -48z" />
    <glyph glyph-name="v" unicode="v" horiz-adv-x="331" 
d="M364 416c0 -14 -6.66309 -32.3311 -19.9961 -54.998l-32 -54c-12 -26.667 -23.667 -63.334 -35 -110.001c-25.333 -100.667 -43 -163.334 -53 -188.001c-7.33301 -19.333 -14.833 -32.166 -22.5 -38.499s-16.834 -9.5 -27.501 -9.5c-6 0 -11.5 1.66699 -16.5 5
s-9.33301 7.66602 -13 12.999s-12.334 34 -26.001 86s-22.834 84 -27.501 96l-33 90c-24 66 -40.333 116.333 -49 151l21 3c29.333 0 53 -20.667 71 -62c5.33301 -12.667 17.666 -54.667 36.999 -126c14 -52.667 29.667 -86.667 47 -102l82 237.5
c20.667 59 34.667 91.167 42 96.5s14.333 8 21 8c10 0 18.167 -4.16699 24.5 -12.5s9.5 -17.833 9.5 -28.5z" />
    <glyph glyph-name="w" unicode="w" horiz-adv-x="546" 
d="M558 332c0 -19.333 -4.00098 -41.3311 -12.001 -65.998c-12.667 -38.667 -19.334 -60.334 -20.001 -65.001c-16.667 -82 -28 -132.333 -34 -151c-23.333 -72 -52 -108 -86 -108c-38.667 0 -71.667 56.333 -99 169l-25 119l-62 -158c-36 -78.667 -67.667 -118 -95 -118
c-22 0 -39.667 32 -53 96c-15.333 72.667 -23 156 -23 250c0 18 2 34 6 48s11.667 25.667 23 35h9c12 -13.333 20.167 -25.833 24.5 -37.5s6.5 -24.834 6.5 -39.501c0 -6.66699 -0.333008 -17.667 -1 -33s-1 -24 -1 -26c0 -34 1.83301 -63.167 5.5 -87.5
s11.834 -48.833 24.501 -73.5c38 86 69.167 154.167 93.5 204.5s41.833 75.5 52.5 75.5c23.333 0 41 -24 53 -72c0.666992 -3.33301 8.66699 -52.333 24 -147c10 -60 23.333 -99.333 40 -118c24 56.667 40.333 104.334 49 143.001c5.33301 23.333 13 72.666 23 147.999
c2.66699 20 7.33398 34.333 14.001 43s15 13 25 13c12.667 0 22.167 -4.16699 28.5 -12.5s9.5 -18.833 9.5 -31.5z" />
    <glyph glyph-name="x" unicode="x" horiz-adv-x="419" 
d="M420 479c0 -2.66699 -28.335 -37.9971 -85.002 -105.997s-85 -114.333 -85 -139c0 -20 14.667 -46.333 44 -79l66 -69l1 -8c4 -6 8 -11.667 12 -17c0.666992 -0.666992 9.33398 -5.33398 26.001 -14.001l3 -10c0 -6 -1.33301 -12.167 -4 -18.5l-8 -18.5
c-36 7.33301 -74.667 36.333 -116 87c-26.667 33.333 -46.667 55.333 -60 66l-97 -179c-22.667 -40.667 -38.667 -61 -48 -61c-8 0 -15 3.66699 -21 11s-9 15 -9 23c0 23.333 20 68.666 60 135.999s60 116.666 60 147.999c0 21.333 -12 48.333 -36 81
c-58.667 80 -90 129.333 -94 148l24 4c32.667 0 68.334 -30.333 107.001 -91c22 -38.667 36.667 -64 44 -76c44.667 71.333 80.5 125.833 107.5 163.5s52.5 56.5 76.5 56.5c9.33301 0 17 -4 23 -12s9 -16.667 9 -26z" />
    <glyph glyph-name="y" unicode="y" horiz-adv-x="633" 
d="M633 290l-7 -28.998c-8.66699 -4.66699 -17 -7.66699 -25 -9s-16 -2 -24 -2h-19c-22 0 -38.833 -8 -50.5 -24s-17.5 -35 -17.5 -57c0 -38.667 2.66699 -82.667 8 -132c12.667 -118 19 -192 19 -222c0 -68 -5.33301 -133.333 -16 -196
c-15.333 -88.667 -38.666 -157.334 -69.999 -206.001c-40.667 -63.333 -94.334 -95 -161.001 -95c-52.667 0 -91.667 26 -117 78c-19.333 40 -29 89 -29 147c0 75.333 20.333 163 61 263l107 251c-42.667 0 -73 14 -91 42c-14 22 -21 54.667 -21 98
c0 20.667 1 41.334 3 62.001c6 62 9 93.333 9 94c0 13.333 -0.333008 24.166 -1 32.499s-2.66699 17.166 -6 26.499c-12 -5.33301 -38.333 -26.333 -79 -63c-32.667 -29.333 -62 -44 -88 -44l-18 2c14 32 43.667 66.667 89 104c48.667 40 89 60 121 60
c24 -10.667 38.833 -20.167 44.5 -28.5s8.5 -25.166 8.5 -50.499c0 -22 -1.66699 -46.667 -5 -74c-8 -66.667 -12 -108.334 -12 -125.001c0 -15.333 0.5 -27.833 1.5 -37.5s2.83301 -20.167 5.5 -31.5c42.667 30 77.334 77.667 104.001 143l66 165l22 10
c21.333 -9.33301 35.666 -39.333 42.999 -90c2.66699 -22 5.66699 -43.667 9 -65l50 22c24.667 10 42 15 52 15c11.333 0 19.333 -3 24 -9c2 -2.66699 5.33301 -11 10 -25zM422 255.002l-3.00098 32.001c-19.333 -24 -35.333 -46.333 -48 -67
c-17.333 -28.667 -27.333 -54 -30 -76c24.667 11.333 44.334 26.166 59.001 44.499s22 40.5 22 66.5zM467.999 -181.997c0 68 -2.66699 127.166 -8 177.499s-15.666 102.833 -30.999 157.5c-72 -70.667 -131.5 -166.5 -178.5 -287.5s-70.5 -234.167 -70.5 -339.5
c0 -39.333 6 -73.333 18 -102c16.667 -39.333 42 -59 76 -59c48 0 88.333 31 121 93c25.333 48.667 44.666 113.334 57.999 194.001c10 60.667 15 116 15 166z" />
    <glyph glyph-name="z" unicode="z" horiz-adv-x="633" 
d="M633 230c-5.33301 -25.333 -33.3359 -50.666 -84.0029 -75.999l-136 -62c-48 -25.333 -72 -51 -72 -77l58 -72c44.667 -56 80.667 -107.333 108 -154c38.667 -67.333 58 -124.666 58 -171.999c0 -46.667 -19.333 -81 -58 -103c-30.667 -17.333 -71.667 -26 -123 -26
c-90.667 0 -161 13 -211 39c-66 34 -99 91.333 -99 172c0 51.333 10.333 97.333 31 138c7.33301 14 29 45.333 65 94c27.333 36.667 45 70 53 100c-2.66699 6.66699 -10.667 21.334 -24 44.001c-10.667 17.333 -16 32.666 -16 45.999c0 31.333 31.667 69.666 95 114.999
s95 80.666 95 105.999c0 16.667 -9.33301 31 -28 43s-36.667 18 -54 18c-22 0 -68.667 -15.333 -140 -46c-34 -14.667 -60 -22 -78 -22c-20.667 0 -35.334 9.66699 -44.001 29c56 28 102 47.333 138 58c44.667 13.333 94.334 20 149.001 20
c30.667 0 58.334 -7.5 83.001 -22.5s37 -36.833 37 -65.5c0 -30 -12.667 -59.333 -38 -88l-76 -70c-30.667 -28 -49 -53.667 -55 -77l25 -42l209 118c56.667 31.333 90.334 47 101.001 47c2.66699 0 7.33398 -1.5 14.001 -4.5zM501.997 -361
c0 40 -27.334 103.667 -82.001 191c-57.333 92 -104 138 -140 138c-38 0 -74 -34 -108 -102c-30 -59.333 -45 -111 -45 -155c0 -58 26.333 -104 79 -138c46.667 -30 101.334 -45 164.001 -45c37.333 0 68 9 92 27c26.667 20 40 48 40 84z" />
    <glyph glyph-name="braceleft" unicode="{" 
d="M448 -47c0 -39.333 -20.668 -70.3301 -62.001 -92.9971c-34.667 -19.333 -74 -29 -118 -29c-56.667 0 -98.667 15 -126 45s-41 73.333 -41 130c0 54 13 116 39 186c4 11.333 19 47 45 107c-14.667 7.33301 -25 13.666 -31 18.999s-12 14.666 -18 27.999
c4.66699 14 14.334 29.333 29.001 46l39 41l-9 10c-8 -2 -16 -3 -24 -3c-25.333 0 -47.666 9.33301 -66.999 28s-29 40.667 -29 66c0 46.667 21.167 89.5 63.5 128.5s87.5 58.5 135.5 58.5c17.333 0 33 -3.33301 47 -10c-58.667 -35.333 -94 -58 -106 -68
c-39.333 -32.667 -59 -67.667 -59 -105c0 -30.667 23.833 -46 71.5 -46s75.167 -12.333 82.5 -37c-4 -12.667 -11.333 -25.334 -22 -38.001c-5.33301 -6.66699 -23.333 -23.667 -54 -51c16 -6.66699 27.333 -12.334 34 -17.001c12.667 -9.33301 19 -20.333 19 -33
c-30 -45.333 -56 -93.666 -78 -144.999c-24.667 -56.667 -37 -108.667 -37 -156c0 -36.667 7.83301 -65.667 23.5 -87s41.5 -32 77.5 -32c19.333 0 41.666 6 66.999 18c55.333 26 91.333 39 108 39z" />
    <glyph glyph-name="bar" unicode="|" horiz-adv-x="263" 
d="M219 552c0 -36 -3.00098 -94.0049 -9.00098 -174.005l-17.5 -240c-5.66699 -80 -8.5 -138.333 -8.5 -175c0 -12 0.666992 -23 2 -33c4.66699 -34 7 -52.333 7 -55c0 -19.333 -4 -33.666 -12 -42.999s-21.667 -14 -41 -14c-13.333 0 -22.833 4.33301 -28.5 13
s-8.5 20.334 -8.5 35.001c0 11.333 1.33301 23.833 4 37.5l8 39.5c4.66699 34.667 11 108.334 19 221.001s12 185.667 12 219c0 22.667 -0.666992 44.334 -2 65.001s-2.66602 45.667 -3.99902 75c0 32.667 1.33301 55 4 67c6 28.667 19.667 43 41 43
c14 0 23.667 -10.667 29 -32c3.33301 -13.333 5 -29.666 5 -48.999z" />
    <glyph glyph-name="braceright" unicode="}" horiz-adv-x="448" 
d="M387 652c0 -22.667 -15.667 -56.001 -47 -100.001c-41.333 -58 -63.666 -90.333 -66.999 -97l107 -29l-71 -135c0 -21.333 7.33301 -55.333 22 -102s22 -83 22 -109c0 -48.667 -20.333 -92 -61 -130s-86.667 -57 -138 -57c-40.667 0 -66 18 -76 54
c84 13.333 131.667 22.333 143 27c44.667 19.333 67 58 67 116c0 30 -7.66699 63.333 -23 100l-51 116c0 7.33301 3.66699 16.333 11 27s20 25.667 38 45c-21.333 14 -36 25.333 -44 34c-16 16 -24 32.333 -24 49c0 20.667 18 50 54 88s54 67 54 87
c0 30 -31.5 45.333 -94.5 46s-99.833 14.334 -110.5 41.001l42 13c15.333 4.66699 30.333 7 45 7c41.333 0 81.666 -6.33301 120.999 -19c54 -17.333 81 -41.333 81 -72z" />
    <glyph glyph-name="asciitilde" unicode="~" horiz-adv-x="643" 
d="M634 445c0 -41.333 -21.333 -88.666 -64 -141.999c-45.333 -56 -89 -84 -131 -84c-26 0 -48.333 15 -67 45c-40.667 64.667 -68.667 97 -84 97c-26 0 -59.833 -25.167 -101.5 -75.5s-69.5 -75.5 -83.5 -75.5c-7.33301 0 -13.5 4.16699 -18.5 12.5s-7.5 16.833 -7.5 25.5
c0 28 26.5 64.667 79.5 110s95.167 68 126.5 68c44 0 79 -23.667 105 -71s44.667 -71 56 -71c29.333 0 58.5 31.5 87.5 94.5s55.833 98.167 80.5 105.5c8.66699 -2.66699 14.5 -7.33398 17.5 -14.001s4.5 -15 4.5 -25z" />
    <glyph glyph-name="nonbreakingspace" unicode="&#xa0;" horiz-adv-x="360" 
 />
    <glyph glyph-name="exclamdown" unicode="&#xa1;" horiz-adv-x="282" 
d="M200 738c0 -14 -9.33398 -27.332 -28.001 -39.999c-13.333 -8.66699 -29.666 -16.334 -48.999 -23.001c-8 4.66699 -14.667 9 -20 13c-0.666992 0.666992 -7 6 -19 16l33 47c16.667 20 31.667 30 45 30c9.33301 0 18 -4.83301 26 -14.5s12 -19.167 12 -28.5z
M181.999 522.001c0 -36 -2 -77.999 -6 -125.999c-9.33301 -112 -14 -182 -14 -210c0 -13.333 0.833008 -31.166 2.5 -53.499s2.5 -35.833 2.5 -40.5c0 -20 -1 -35.667 -3 -47c-4 -21.333 -11 -35 -21 -41h-29h-4c-11.333 0 -19.5 5.66699 -24.5 17s-7.5 23.666 -7.5 36.999
c0 15.333 1.83301 33.833 5.5 55.5s7.5 46 11.5 73s6.5 57.667 7.5 92s1.5 80.166 1.5 137.499c0 6.66699 1 15 3 25c4.66699 22.667 7 36.667 7 42c0 8 -2.66699 20 -8 36s-8 28 -8 36c0 10.667 3.33301 21.167 10 31.5s15 15.5 25 15.5c12.667 0 24 -9.66699 34 -29
s15 -36.333 15 -51z" />
    <glyph glyph-name="cent" unicode="&#xa2;" horiz-adv-x="458" 
d="M458 134c0 -32.667 -30.999 -64.333 -92.999 -95c-50 -24.667 -105.333 -42.667 -166 -54l6 -54c0 -15.333 -3.5 -26.833 -10.5 -34.5s-18.5 -11.5 -34.5 -11.5c-12 0 -20.333 3.5 -25 10.5s-7 16.5 -7 28.5c0 8.66699 1.33301 18.334 4 29.001s4.66699 19 6 25
c-41.333 0 -71 20.667 -89 62c-13.333 30.667 -20 71 -20 121c0 40.667 12 89 36 145c27.333 64 59.333 107.333 96 130l-1 24c0 27.333 1 45.333 3 54c5.33301 23.333 17.333 35 36 35c12 0 20.333 -8.66699 25 -26c2.66699 -10 4 -23.333 4 -40l-1 -32
c34 -6.66699 59.667 -33.334 77 -80.001c13.333 -36 20 -75 20 -117l-3 -44c-35.333 0 -62 23.333 -80 70c-6 15.333 -12.667 39.333 -20 72c0 -37.333 -3.66699 -93 -11 -167s-11 -123.333 -11 -148c24 5.33301 68.333 24.333 133 57c57.333 29.333 95.666 43 114.999 41z
M165.001 345.001c-22 -25.333 -39.667 -57.832 -53 -97.499s-20 -75.834 -20 -108.501c0 -24.667 4.16699 -46 12.5 -64s21.833 -30.333 40.5 -37c3.33301 34.667 7.5 88.5 12.5 161.5s7.5 121.5 7.5 145.5z" />
    <glyph glyph-name="sterling" unicode="&#xa3;" horiz-adv-x="536" 
d="M536 124c-10 -12 -19.499 -19.833 -28.499 -23.5s-19.833 -5.5 -32.5 -5.5h-27c-18 0 -65 -15.667 -141 -47s-127.667 -47 -155 -47s-46.666 22.667 -57.999 68c-8 32.667 -12 76 -12 130v31c0 10 0.333008 19.333 1 28v34c-10 8.66699 -18.667 13 -26 13
c-4.66699 0 -10.334 -2.16699 -17.001 -6.5s-12.667 -11.833 -18 -22.5c-8.66699 -16.667 -14 -26.667 -16 -30v35c8.66699 16.667 15.167 28.667 19.5 36s9.16602 13 14.499 17s11.333 6 18 6c8 0 16.333 -4.33301 25 -13v231c0 23.333 13 41.666 39 54.999
c30.667 15.333 76 23 136 23c30.667 0 60.334 -8 89.001 -24c9.33301 -5.33301 20.666 -13.333 33.999 -24c-17.333 5.33301 -31.333 9.33301 -42 12c-32 8 -59 12 -81 12c-42.667 0 -72.667 -14.333 -90 -43c-12.667 -20.667 -19 -49.667 -19 -87
c0 -33.333 -0.666992 -60.333 -2 -81c-4.66699 -71.333 -7 -114.333 -7 -129c5.33301 -2 10.333 -3 15 -3c3.33301 0 7.66602 1 12.999 3c9.33301 4.66699 17.5 11.5 24.5 20.5l20.5 27.5v-35c-11.333 -15.333 -19.666 -26.166 -24.999 -32.499s-12 -11.5 -20 -15.5
c-5.33301 -2 -10 -3 -14 -3s-8.66699 1 -14 3c0 -30 2.66699 -59.167 8 -87.5s14.333 -55.833 27 -82.5l153 53c76 25.333 127 38 153 38c24 0 42.333 -11.333 55 -34z" />
    <glyph glyph-name="currency" unicode="&#xa4;" horiz-adv-x="500" 
d="M474 601c4 -4 6.00195 -8.99707 6.00195 -14.9971c0 -10.667 -9.66699 -26.667 -29 -48c9.33301 -16 14 -39.333 14 -70c0 -28 -6.5 -58 -19.5 -90s-30.833 -62.333 -53.5 -91c20.667 -23.333 36.667 -43.333 48 -60c14.667 -22 22 -39.667 22 -53
c0 -8 -2.66699 -14.667 -8 -20s-15.333 -2 -30 10c-6.66699 5.33301 -13.667 11.666 -21 18.999l-54 58c-26 -23.333 -53.333 -41.5 -82 -54.5s-58 -19.5 -88 -19.5c-16 0 -31.167 3 -45.5 9s-26.5 13.667 -36.5 23c-24.667 -16.667 -44.334 -25 -59.001 -25
c-8 0 -14.667 2.66699 -20 8s-2 15.333 10 30c5.33301 6.66699 11.666 13.667 18.999 21l17 16c-11.333 26.667 -17 56 -17 88c0 24 4.16699 51.167 12.5 81.5s20.166 59.166 35.499 86.499c-24.667 26 -41.5 46 -50.5 60s-13.5 25 -13.5 33
c0 5.33301 1.66699 9.66602 5 12.999s8 5 14 5c11.333 0 26.333 -8.33301 45 -25c10.667 -11.333 21.667 -22.333 33 -33l2 -5c12 13.333 25.167 23.833 39.5 31.5s29.5 11.5 45.5 11.5c9.33301 0 20.333 -2 33 -6c18.667 -6.66699 37.667 -13 57 -19
c4 -1.33301 10.333 -2 19 -2c8 0 15.667 0.333008 23 1l22 2l31 -2c10 8 18.333 14.333 25 19c16 10.667 28.667 16 38 16c4.66699 0 8.33398 -1.33301 11.001 -4zM429.002 501.003c0 12.667 -15.8311 21.5 -47.498 26.5s-80.834 7.5 -147.501 7.5
c-39.333 0 -74 -25.333 -104 -76c-25.333 -43.333 -38 -84 -38 -122c0 -34.667 7.5 -64.167 22.5 -88.5s33.5 -36.5 55.5 -36.5c55.333 0 108.666 21.333 159.999 64c66 55.333 99 130.333 99 225z" />
    <glyph glyph-name="yen" unicode="&#xa5;" horiz-adv-x="429" 
d="M475 564c0 -17.333 -10.334 -41.6621 -31.001 -72.9951c-14 -21.333 -22.333 -35 -25 -41c-14 -30.667 -30.333 -72 -49 -124c-12 -32 -21.333 -58 -28 -78l62 8c8.66699 0 15.5 -0.833008 20.5 -2.5s7.5 -5.83398 7.5 -12.501c0 -14.667 -7.66699 -25.334 -23 -32.001
c-11.333 -4.66699 -26.666 -7 -45.999 -7l-36 2l-13 -40c7.33301 0 18.666 1.33301 33.999 4s27.333 4 36 4s15.5 -0.833008 20.5 -2.5s7.5 -5.83398 7.5 -12.501c0 -14.667 -7.66699 -25.334 -23 -32.001c-11.333 -4.66699 -26.666 -7 -45.999 -7l-43 3l-9 -29
c-2.66699 -8 -5 -22.5 -7 -43.5s-6 -37.667 -12 -50s-13.5 -22.333 -22.5 -30s-18.5 -11.5 -28.5 -11.5c-10.667 0 -19.5 3.5 -26.5 10.5s-10.5 15.833 -10.5 26.5c0 7.33301 1.66699 17.5 5 30.5s14 47.833 32 104.5c-5.33301 0 -18 -1.66699 -38 -5
c-8 -1.33301 -15.667 -2 -23 -2c-11.333 0 -20.166 3.16699 -26.499 9.5s-10.833 14.833 -13.5 25.5c13.333 3.33301 26.666 6.5 39.999 9.5s27 4.5 41 4.5l33 -2l15 44c-6 0 -20.333 -1.66699 -43 -5c-8.66699 -1.33301 -17.334 -2 -26.001 -2
c-11.333 0 -20.166 3.16699 -26.499 9.5s-10.833 14.833 -13.5 25.5c13.333 3.33301 26.666 6.5 39.999 9.5s27 4.5 41 4.5l26 -1c-10.667 22.667 -35 57.667 -73 105l-99 120.5c-32.667 41 -49 69.167 -49 84.5c0 5.33301 3.16699 12.166 9.5 20.499
s12.166 12.5 17.499 12.5c6.66699 0 13.334 -2.33301 20.001 -7c2.66699 -2 8.33398 -7.33301 17.001 -16c12.667 -13.333 26.667 -31.333 42 -54c40.667 -61.333 62.667 -94 66 -98l34 -40l60 -66c30.667 89.333 49.667 142.333 57 159c34 80 64.667 120 92 120
c8.66699 0 16.5 -2.83301 23.5 -8.5s10.5 -13.167 10.5 -22.5z" />
    <glyph glyph-name="brokenbar" unicode="&#xa6;" horiz-adv-x="263" 
d="M217 679c0 -18 -5.33301 -58.998 -16 -122.998s-16 -105.333 -16 -124c0 -4.66699 1.5 -11.167 4.5 -19.5s4.5 -13.833 4.5 -16.5c0 -16 -16.333 -24 -49 -24c-12 0 -20.5 1.83301 -25.5 5.5s-7.5 8.5 -7.5 14.5c0 4.66699 1.16699 9.83398 3.5 15.501
s4.83301 11.167 7.5 16.5c5.33301 15.333 11.333 45.666 18 90.999s10 76.666 10 93.999c0 9.33301 -0.333008 16.333 -1 21c-3.33301 24 -5 36.333 -5 37c0 13.333 1.33301 22.666 4 27.999c6 12 18.333 18 37 18c13.333 0 22.333 -4.33301 27 -13
c2.66699 -4.66699 4 -11.667 4 -21zM181 293.002c0 -24.667 -3.33301 -60 -10 -106c-16.667 -114.667 -25 -179 -25 -193c0 -5.33301 1.5 -13.166 4.5 -23.499s4.5 -17.166 4.5 -20.499c0 -10 -3.66699 -17.333 -11 -22s-21 -7 -41 -7c-13.333 0 -22.833 2.16699 -28.5 6.5
s-8.5 10.166 -8.5 17.499c0 6 1.33301 12.333 4 19l8 20c4.66699 17.333 11 54.666 19 111.999s12 94.333 12 111c0 8 -1 20 -3 36s-3 27.667 -3 35c0 20.667 3.33301 35.167 10 43.5s18 12.5 34 12.5c14 0 23.667 -5.33301 29 -16c3.33301 -6.66699 5 -15 5 -25z" />
    <glyph glyph-name="section" unicode="&#xa7;" horiz-adv-x="577" 
d="M466 526c0 -7.33301 -0.333008 -13.334 -1 -18.001c-0.666992 -3.33301 -2 -8.66602 -4 -15.999c-17.333 3.33301 -40.666 32.833 -69.999 88.5s-64.333 83.5 -105 83.5c-22.667 0 -42.667 -12.167 -60 -36.5s-26 -48.5 -26 -72.5c0 -36.667 22.333 -78.667 67 -126
l125 -118c44.667 -45.333 67 -84.333 67 -117c0 -26 -13.333 -45.333 -40 -58c-20.667 -10 -46.334 -15 -77.001 -15c37.333 -34 63.666 -61 78.999 -81c22.667 -29.333 34 -56.333 34 -81c0 -28.667 -17 -49.334 -51 -62.001c-22 -8 -50.667 -12 -86 -12
c-6.66699 0 -19.667 -0.333008 -39 -1s-34.666 -1 -45.999 -1c-36 0 -65.333 2.66699 -88 8c-30 7.33301 -51.667 20 -65 38c2.66699 4 8.16699 9 16.5 15s15.166 9 20.499 9c6.66699 0 44.334 -5.33301 113.001 -16c34 -5.33301 61 -8 81 -8c22.667 0 40.334 2 53.001 6
c21.333 6.66699 32 18.667 32 36c0 28 -22.333 61.333 -67 100l-125 108c-45.333 48 -68 97 -68 147c0 20.667 4 41.667 12 63s19 40 33 56c-11.333 16.667 -20.5 34.167 -27.5 52.5s-10.5 37.5 -10.5 57.5c0 38.667 12.333 73.667 37 105
c27.333 34.667 59.666 52 96.999 52c46 0 89 -19.667 129 -59s60 -81.666 60 -126.999zM401 205.999c0 26.667 -20.668 57.501 -62.001 92.501l-122 104.5c-7.33301 -11.333 -13 -23.833 -17 -37.5s-6 -26.5 -6 -38.5c0 -26 10.333 -54 31 -84
c16 -22.667 40 -49.334 72 -80.001l19 1c22.667 0 40.334 2 53.001 6c21.333 6.66699 32 18.667 32 36z" />
    <glyph glyph-name="dieresis" unicode="&#xa8;" horiz-adv-x="408" 
d="M363 682c0 -20 -7.5 -38.668 -22.5 -56.001s-32.833 -26 -53.5 -26c-17.333 0 -31.833 6.5 -43.5 19.5s-17.5 28.5 -17.5 46.5c0 20.667 8.33301 39 25 55s35.667 24 57 24c16.667 0 30 -6.16699 40 -18.5s15 -27.166 15 -44.499zM175 685.999
c0 -20 -7.5 -38.668 -22.5 -56.001s-32.833 -26 -53.5 -26c-17.333 0 -31.833 6.5 -43.5 19.5s-17.5 28.5 -17.5 46.5c0 20.667 8.33301 39 25 55s35.667 24 57 24c16.667 0 30 -6.16699 40 -18.5s15 -27.166 15 -44.499z" />
    <glyph glyph-name="copyright" unicode="&#xa9;" horiz-adv-x="835" 
d="M786 445c0 -60 -8.33398 -120 -25.001 -180c-24 -86.667 -61 -155 -111 -205c-65.333 -65.333 -150.333 -98 -255 -98c-83.333 0 -163.833 33.5 -241.5 100.5s-116.5 135.833 -116.5 206.5c0 56 12.333 119.667 37 191c27.333 80 62.333 145 105 195
c50 59.333 104.333 89 163 89c128.667 0 232.334 -23.667 311.001 -71c88.667 -53.333 133 -129.333 133 -228zM734.999 445c0 78.667 -34.666 137.333 -103.999 176c-64.667 36 -161 54 -289 54c-70.667 0 -131.667 -50.333 -183 -151c-44 -86.667 -66 -171.667 -66 -255
c0 -44.667 34.167 -97.167 102.5 -157.5s129.166 -90.5 182.499 -90.5c106.667 0 189.667 28.667 249 86c46 44.667 77.333 105 94 181c9.33301 42.667 14 95 14 157zM627 229.999c0 -22 -36.668 -48.333 -110.001 -79c-68 -28.667 -116.667 -43 -146 -43
c-44.667 0 -78.334 19.333 -101.001 58c-18.667 32 -28 72 -28 120c0 50.667 14 115.667 42 195c33.333 95.333 69.333 143 108 143c27.333 0 56 -17.667 86 -53c22 -26.667 40.333 -56.667 55 -90c-7.33301 -4 -13.5 -6.83301 -18.5 -8.5s-11.167 -2.5 -18.5 -2.5
c-11.333 0 -24.666 17.167 -39.999 51.5s-32.666 51.5 -51.999 51.5c-22.667 0 -49 -40 -79 -120c-27.333 -73.333 -41 -126 -41 -158c0 -40 9 -72.667 27 -98c20.667 -29.333 50.667 -44 90 -44c34 0 73 16 117 48s73.667 48 89 48c13.333 0 20 -6.33301 20 -19z" />
    <glyph glyph-name="ordfeminine" unicode="&#xaa;" horiz-adv-x="303" 
d="M266 482c-1.33301 -10.667 -5.16699 -19.166 -11.5 -25.499s-14.833 -9.5 -25.5 -9.5c-15.333 0 -27.666 8 -36.999 24c-3.33301 6.66699 -11 34 -23 82c-18 -37.333 -31 -62 -39 -74c-20.667 -31.333 -41.334 -47 -62.001 -47c-10 0 -16.833 3.66699 -20.5 11
s-5.5 16.666 -5.5 27.999c0 36 6 73.333 18 112c14.667 48 34.667 78 60 90c16 -6.66699 32.333 -17.667 49 -33l6 -1l13 5c10 0 16.833 -2.83301 20.5 -8.5s5.5 -13.167 5.5 -22.5c-0.666992 -9.33301 -1 -16.333 -1 -21v-25v-28c0 -20.667 2.83301 -34.667 8.5 -42
s20.5 -12.333 44.5 -15zM155.999 592.001c0 8.66699 -3.00098 18.001 -9.00098 28.001c-8 10.667 -13.667 18.667 -17 24h-5c-8.66699 -8 -16 -17.333 -22 -28s-10 -22 -12 -34c-4.66699 -20.667 -8 -36.667 -10 -48c-4.66699 -22.667 -7 -38.667 -7 -48
c0 -10.667 0.666992 -18.334 2 -23.001c16.667 15.333 33.334 35.333 50.001 60c20 29.333 30 52.333 30 69z" />
    <glyph glyph-name="guillemotleft" unicode="&#xab;" horiz-adv-x="864" 
d="M808 144c0 -8 -2.49902 -15.834 -7.49902 -23.501s-11.5 -11.5 -19.5 -11.5c-68.667 26.667 -134.334 50 -197.001 70c-68.667 22 -121.334 33 -158.001 33c-20.667 0 -36.667 2 -48 6c-18 6 -27 17.333 -27 34c0 11.333 16.667 40.333 50 87
c29.333 41.333 62.666 85 99.999 131c2 2 28.333 34 79 96c22.667 26.667 43.667 46.167 63 58.5s36.333 18.5 51 18.5c16.667 0 31.334 -6.33301 44.001 -19c-26 -31.333 -59 -68 -99 -110l-102 -108c-39.333 -44 -69.666 -83 -90.999 -117
c36.667 -20 85.667 -38.667 147 -56l153 -40c17.333 -4.66699 30.333 -9.66699 39 -15c15.333 -9.33301 23 -20.666 23 -33.999zM499.001 86.999c0 -8 -2.49902 -15.834 -7.49902 -23.501s-11.5 -11.5 -19.5 -11.5c-68.667 26.667 -134.334 50 -197.001 70
c-68.667 22 -121.334 33 -158.001 33c-20.667 0 -36.667 2 -48 6c-18 6 -27 17.333 -27 34c0 11.333 16.667 40.333 50 87c29.333 41.333 62.666 85 99.999 131c2 2 28.333 34 79 96c22.667 26.667 43.667 46.167 63 58.5s36.333 18.5 51 18.5
c16.667 0 31.334 -6.33301 44.001 -19c-26 -31.333 -59 -68 -99 -110l-102 -108c-39.333 -44 -69.666 -83 -90.999 -117c36.667 -20 85.667 -38.667 147 -56l153 -40c17.333 -4.66699 30.333 -9.66699 39 -15c15.333 -9.33301 23 -20.666 23 -33.999z" />
    <glyph glyph-name="logicalnot" unicode="&#xac;" horiz-adv-x="1200" 
d="M1162 -83h-1123v765h1123v-765zM1067 255v17.999h-16c-14 0 -23.667 1.66699 -29 5s-8 12.333 -8 27v250c0 6.66699 -0.166992 13.334 -0.5 20.001s-0.5 13 -0.5 19c0 16 3.16699 26.5 9.5 31.5s21.166 7.5 44.499 7.5v18h-160v-18c24.667 0 39.667 -2.33301 45 -7
s8 -17 8 -37v-24v-258c0 -14.667 -3.16699 -24 -9.5 -28s-16.166 -6 -29.499 -6h-14v-18h160zM1141 26.999c0 33.333 -25.999 55.332 -77.999 65.999s-78 27.334 -78 50.001c0 14 5.16699 25.167 15.5 33.5s22.833 12.5 37.5 12.5c10.667 0 21 -2.5 31 -7.5
s19 -12.167 27 -21.5c2 -9.33301 3.33301 -15 4 -17c0.666992 -4 1 -10 1 -18l16 -1c0 11.333 1 23.833 3 37.5s3.33301 24.167 4 31.5c-28 8.66699 -54.667 13 -80 13c-29.333 0 -53 -6 -71 -18c-21.333 -14.667 -32 -36 -32 -64c0 -35.333 25.833 -58 77.5 -68
s77.5 -27 77.5 -51c0 -16.667 -6 -29.5 -18 -38.5s-26.667 -13.5 -44 -13.5c-28 0 -47 5 -57 15s-15 28.667 -15 56h-16c0 -7.33301 -0.666992 -19.833 -2 -37.5s-2 -27.5 -2 -29.5c0 -6.66699 7.5 -12.167 22.5 -16.5s34.833 -6.5 59.5 -6.5
c31.333 0 57.666 7.33301 78.999 22c25.333 17.333 38 41 38 71zM941.001 183.998l-86.0029 -0.00390625c0 16 0.333008 32.167 1 48.5s2 31.833 4 46.5c18.667 15.333 32.667 30 42 44c12 18 18 37.333 18 58c0 58.667 -38.333 91.334 -115 98.001s-115 31.334 -115 74.001
c0 25.333 9 45 27 59s40.333 21 67 21c12.667 0 27.334 -2.5 44.001 -7.5s29.334 -11.167 38.001 -18.5c3.33301 -7.33301 5 -18.666 5 -33.999v-20h18c0 20 0.5 34.333 1.5 43s3.5 21 7.5 37c-35.333 14 -72.333 21 -111 21c-41.333 0 -75.333 -9.66699 -102 -29
c-30 -22 -45 -53 -45 -93c0 -58 38.5 -90.667 115.5 -98s115.5 -32.333 115.5 -75c0 -28 -10.667 -49.333 -32 -64s-46.666 -22 -75.999 -22c-17.333 0 -34.666 2.66699 -51.999 8c-23.333 7.33301 -37.333 17 -42 29l-1 48h-19v-33v-14c0 -13.333 -1 -26.666 -3 -39.999
c34 -14 69.333 -21 106 -21c18 0 35 2 51 6c3.33301 -26.667 5 -50.667 5 -72c-12.667 -7.33301 -27.667 -13.666 -45 -18.999v-12h45v-157c0 -41.333 21.333 -62 64 -62c5.33301 0 11.333 0.666992 18 2s12.667 2.66602 18 3.99902l27 34l-8 11
c-8.66699 -10 -19.334 -15 -32.001 -15s-22.5 4.66699 -29.5 14s-10.5 27 -10.5 53v13v108c5.33301 0 13.833 0.333008 25.5 1s20.167 1 25.5 1c10 0 19.667 -1 29 -3zM801.998 -60.0059l-0.00195312 16.999c-19.333 0 -31.666 1.66699 -36.999 5s-8 11 -8 23
c0.666992 13.333 1 24.333 1 33v92c0 64 -31 96 -93 96c-16.667 0 -33.334 -5 -50.001 -15s-31 -22.667 -43 -38c0.666992 12 1 21 1 27c0 10.667 -1.66699 19.334 -5 26.001c-15.333 -6.66699 -30.666 -12 -45.999 -16s-31 -6 -47 -6v-17c7.33301 0.666992 13 1 17 1
c8.66699 0 15.834 -1.16699 21.501 -3.5s8.5 -6.83301 8.5 -13.5v-172c0 -7.33301 -1.66699 -13 -5 -17s-10.333 -6 -21 -6c-9.33301 0.666992 -16.333 1 -21 1v-17h144l-1 17c-20 0 -33.167 2.83301 -39.5 8.5s-9.5 16.167 -9.5 31.5c0 4 0.333008 11.833 1 23.5
s1 21.5 1 29.5v28c0 30.667 3.33301 52 10 64c10.667 18.667 31.667 28 63 28c25.333 0 43 -7.66699 53 -23c8 -12.667 12 -33.334 12 -62.001v-54v-12c0 -29.333 -1.33301 -55.666 -4 -78.999h97zM679.996 632.993l-0.00195312 17.9971h-119v-18
c9.33301 0 20 -0.833008 32 -2.5s18 -5.16699 18 -10.5c0 -16.667 -12.667 -68 -38 -154l-40 -130l-116 318h-14l-122 -315l-32 138c-10.667 47.333 -20 91 -28 131c-2.66699 4 -3.66699 7.33301 -3 10c0 6.66699 5 10.834 15 12.501s17.333 2.5 22 2.5h12v18h-143v-18
c17.333 0 28.166 -2.16699 32.499 -6.5s8.5 -16.166 12.5 -35.499c6.66699 -28.667 14 -58 22 -88c18.667 -70 29.334 -119.667 32.001 -149c-15.333 0 -34.833 -10.833 -58.5 -32.5s-39.167 -40.834 -46.5 -57.501c-2.66699 -6.66699 -4.5 -13.667 -5.5 -21
s-1.5 -17.333 -1.5 -30v-30l-40 -20v-10l40 4l1 -153c0 -21.333 -2.83301 -34.5 -8.5 -39.5s-19.5 -7.5 -41.5 -7.5v-17h155v17h-17c-12.667 0 -21 0.666992 -25 2c-10.667 4 -16 17 -16 39l1 160c11.333 0 23 -0.166992 35 -0.5s24 -0.5 36 -0.5l5 25l-2 2h-74v36v25
c0 21.333 2.83301 38 8.5 50s17.5 18 35.5 18c11.333 0 21 -3 29 -9l11 -54h29c18 53.333 37 105.333 57 156c14.667 38 36.334 89.667 65.001 155c6 -17.333 25.333 -68.666 58 -153.999c24.667 -65.333 42.667 -117.666 54 -156.999h30c10 40.667 28 106.667 54 198
c30.667 106.667 50.667 167 60 181c4.66699 2.66699 14.334 4 29.001 4zM486.994 79.9902c0 37.333 -12.001 67.667 -36.001 91s-55 35 -93 35c-40.667 0 -74.667 -12 -102 -36s-41 -56.333 -41 -97c0 -39.333 11.333 -72.333 34 -99s53.334 -40 92.001 -40
c42.667 0 77.667 13.667 105 41s41 62.333 41 105zM433.993 55.9912c0 -27.333 -5.33398 -50.334 -16.001 -69.001c-13.333 -22.667 -33 -34 -59 -34c-30.667 0 -54 16.333 -70 49c-12.667 25.333 -19 55.333 -19 90c0 26 6.33301 48.667 19 68s31.334 29 56.001 29
c32 0 55.667 -15 71 -45c12 -23.333 18 -52.666 18 -87.999z" />
    <glyph glyph-name="minus" unicode="&#xad;" horiz-adv-x="429" 
d="M391 307c0 -20 -9.33398 -34.333 -28.001 -43c-14 -6.66699 -32.333 -10 -55 -10c-14 0 -43 3.33301 -87 10c-22 3.33301 -39.333 5 -52 5c-11.333 0 -21.666 -0.666992 -30.999 -2c-32 -4.66699 -49 -7 -51 -7c-14 0 -24.667 4 -32 12s-12.666 19.667 -15.999 35
c22 6.66699 38 11 48 13c18 4 34.667 6 50 6c14 0 30.667 -1 50 -3c45.333 -4.66699 74 -7 86 -7c8.66699 0 23.167 1.83301 43.5 5.5s34.166 5.5 41.499 5.5c8 0 15.5 -0.833008 22.5 -2.5s10.5 -7.5 10.5 -17.5z" />
    <glyph glyph-name="registered" unicode="&#xae;" horiz-adv-x="835" 
d="M786 445c0 -60 -8.33398 -120 -25.001 -180c-24 -86.667 -61 -155 -111 -205c-65.333 -65.333 -150.333 -98 -255 -98c-83.333 0 -163.833 33.5 -241.5 100.5s-116.5 135.833 -116.5 206.5c0 56 12.333 119.667 37 191c27.333 80 62.333 145 105 195
c50 59.333 104.333 89 163 89c128.667 0 232.334 -23.667 311.001 -71c88.667 -53.333 133 -129.333 133 -228zM734.999 445c0 78.667 -34.666 137.333 -103.999 176c-64.667 36 -161 54 -289 54c-70.667 0 -131.667 -50.333 -183 -151c-44 -86.667 -66 -171.667 -66 -255
c0 -44.667 34.167 -97.167 102.5 -157.5s129.166 -90.5 182.499 -90.5c106.667 0 189.667 28.667 249 86c46 44.667 77.333 105 94 181c9.33301 42.667 14 95 14 157zM574 143.999l-6 -18.001l-17 -9c-12.667 0 -43.667 28 -93 84s-88 84 -116 84
c-8.66699 0 -15.667 -3.83301 -21 -11.5s-8 -20.5 -8 -38.5c0 -10 1.83301 -25.167 5.5 -45.5s5.5 -34.166 5.5 -41.499c0 -13.333 -1 -22.666 -3 -27.999c-4 -10 -11.333 -15 -22 -15c-14.667 0 -23.834 6.5 -27.501 19.5s-5.5 29.5 -5.5 49.5c0 12.667 2.33301 36 7 70
c2.66699 19.333 4 33 4 41v231c0 37.333 16.667 66 50 86c28.667 17.333 63.334 26 104.001 26c36 0 63.667 -9.33301 83 -28s29 -45.667 29 -81c0 -38.667 -12.167 -76.834 -36.5 -114.501s-54.5 -65.5 -90.5 -83.5l51 -62c10 -13.333 22.5 -26.333 37.5 -39l44.5 -37
c5.33301 -4.66699 10.833 -10.667 16.5 -18s8.5 -14.333 8.5 -21zM502 524.998c0 18 -6.83301 33.499 -20.5 46.499s-30.5 19.5 -50.5 19.5c-36 0 -63.333 -13.333 -82 -40c-16 -23.333 -24 -53.666 -24 -90.999c0 -6.66699 -0.166992 -13 -0.5 -19s-0.5 -11.667 -0.5 -17
c0 -24 2 -44.167 6 -60.5s12 -24.5 24 -24.5c29.333 0 61.333 23.5 96 70.5s52 85.5 52 115.5z" />
    <glyph glyph-name="macron" unicode="&#xaf;" horiz-adv-x="376" 
d="M284 671c0 -14 -5.66797 -23.668 -17.001 -29.001s-24.666 -8 -39.999 -8c-10.667 0 -27.834 1.83301 -51.501 5.5s-38.834 5.5 -45.501 5.5c-4.66699 0 -16.667 -1.66699 -36 -5c-7.33301 -1.33301 -14.666 -2 -21.999 -2c-9.33301 0 -16.666 2.83301 -21.999 8.5
s-9 13.834 -11 24.501c10.667 3.33301 21.5 6.5 32.5 9.5s22.833 4.5 35.5 4.5c12 0 29.167 -1.16699 51.5 -3.5s36.833 -3.5 43.5 -3.5c4 0 13 1.16699 27 3.5s24.667 3.5 32 3.5c15.333 0 23 -4.66699 23 -14z" />
    <glyph glyph-name="degree" unicode="&#xb0;" horiz-adv-x="258" 
d="M201 517c0 -27.333 -6.33301 -54 -19 -80c-16 -32 -36 -48 -60 -48c-15.333 0 -27 5.33301 -35 16s-12 24 -12 40c0 14 2.83301 31.5 8.5 52.5s12 34.333 19 40s14.167 8.5 21.5 8.5c9.33301 0 15.333 0.666992 18 2c8.66699 4 14 6.33301 16 7c5.33301 2 11 3 17 3
c10.667 0 17.667 -3.66699 21 -11s5 -17.333 5 -30zM180 505c0 11.333 -1.99902 20.666 -5.99902 27.999c-4.66699 -3.33301 -18.167 -8.66602 -40.5 -15.999s-33.5 -27 -33.5 -59c0 -11.333 1.66699 -21.333 5 -30s9.66602 -13 18.999 -13c14.667 0 27.667 11 39 33
s17 41 17 57z" />
    <glyph glyph-name="plusminus" unicode="&#xb1;" horiz-adv-x="429" 
d="M422 415c0 -13.333 -6.33008 -22.335 -18.9971 -27.002s-29.334 -7 -50.001 -7h-22c-6.66699 0 -13 0.333008 -19 1c-18.667 0 -33.334 -4 -44.001 -12s-16 -21 -16 -39c0 -13.333 1.66699 -27.666 5 -42.999c8.66699 -40 13 -64.333 13 -73
c0 -14.667 -3.33301 -26.667 -10 -36s-17.334 -14 -32.001 -14c-12 0 -20.333 7.33301 -25 22s-7 33.667 -7 57c0 9.33301 0.333008 21 1 35s1 22.333 1 25c0 18 -3 31.333 -9 40c-8 11.333 -20.667 17 -38 17c-6 0 -22 -1.66699 -48 -5c-10 -1.33301 -19.667 -2 -29 -2
c-16 0 -28.833 2.5 -38.5 7.5s-17.167 14.5 -22.5 28.5c96.667 12.667 149.667 23.334 159 32.001c13.333 12 20 59.333 20 142c0 16 1.5 28.833 4.5 38.5s9.83301 18.834 20.5 27.501c15.333 -8.66699 25.666 -19.5 30.999 -32.5s8 -28.833 8 -47.5
c0 -8 -0.166992 -16 -0.5 -24s-0.5 -16 -0.5 -24c0 -12 0.833008 -22.333 2.5 -31s4.83398 -17.334 9.50098 -26.001c6.66699 -3.33301 12.667 -5.33301 18 -6s12.333 -1 21 -1c8 0 20 1 36 3s28.333 3 37 3c10 0 19.667 -2.5 29 -7.5s14 -12.167 14 -21.5zM407.003 121.998
c0 -20 -9.33398 -34.333 -28.001 -43c-14 -6.66699 -32.333 -10 -55 -10c-14 0 -43 3.33301 -87 10c-22 3.33301 -39.333 5 -52 5c-11.333 0 -21.666 -0.666992 -30.999 -2c-32 -4.66699 -49 -7 -51 -7c-14 0 -24.667 4 -32 12s-12.666 19.667 -15.999 35
c22 6.66699 38 11 48 13c18 4 34.667 6 50 6c14 0 30.667 -1 50 -3c45.333 -4.66699 74 -7 86 -7c8.66699 0 23.167 1.83301 43.5 5.5s34.166 5.5 41.499 5.5c8 0 15.5 -0.833008 22.5 -2.5s10.5 -7.5 10.5 -17.5z" />
    <glyph glyph-name="twosuperior" unicode="&#xb2;" horiz-adv-x="270" 
d="M257 410l-4.99805 -5.00098c-0.666992 -7.33301 -4.33398 -11.666 -11.001 -12.999c-0.666992 -0.666992 -6.66699 -1 -18 -1c-24.667 0 -49 -1 -73 -3c-72 -6 -110 -9 -114 -9c-10 0 -18.667 1 -26 3s-11 6.66699 -11 14c0 4 31 41.667 93 113
c29.333 34 44 66.667 44 98c0 14.667 -6 22 -18 22c-12.667 0 -26.667 -5 -42 -15l-43 -33c-4 0 -7.66699 1.66699 -11 5s-5 7.33301 -5 12c0 16.667 12.167 32 36.5 46s46.166 21 65.499 21c16.667 0 28.5 -4.5 35.5 -13.5s10.5 -22.5 10.5 -40.5
c0 -34 -12.333 -68.667 -37 -104c-9.33301 -13.333 -34.666 -42.333 -75.999 -87c5.33301 -2 10.666 -3.33301 15.999 -4s11.666 -1 18.999 -1c12 0 30 1.33301 54 4s42 4 54 4c24.667 0 45.334 -4.33301 62.001 -13z" />
    <glyph glyph-name="threesuperior" unicode="&#xb3;" horiz-adv-x="237" 
d="M215 437c0 -30 -24.335 -49.333 -73.002 -58c-21.333 -4 -58 -6 -110 -6c-21.333 0 -36 7.66699 -44 23c10.667 4 21.834 6.83301 33.501 8.5s25.5 2.5 41.5 2.5c6 0 12 -0.166992 18 -0.5s12.333 -0.5 19 -0.5c28.667 0 48.834 2.33301 60.501 7
s17.5 12.334 17.5 23.001c0 20 -19.833 38.667 -59.5 56s-59.5 30.333 -59.5 39c0 9.33301 13.667 26.333 41 51s42 41 44 49l-5 5h-5c-19.333 0 -39.333 -5.33301 -60 -16c-31.333 -16 -50 -25 -56 -27c-10.667 1.33301 -16 6.66602 -16 15.999c0 14 18 27.167 54 39.5
s63.333 18.5 82 18.5c13.333 0 25.166 -2.16699 35.499 -6.5s15.5 -11.833 15.5 -22.5c0 -12 -12.333 -30.5 -37 -55.5l-47 -47.5c36.667 -20 59.334 -33 68.001 -39c28 -20 42 -39.667 42 -59z" />
    <glyph glyph-name="acute" unicode="&#xb4;" horiz-adv-x="364" 
d="M245 673c-25.333 -43.333 -46.334 -74.332 -63.001 -92.999c-28 -30.667 -59.333 -49.334 -94 -56.001c-3.33301 9.33301 -5.66602 16.5 -6.99902 21.5s-2 9.83301 -2 14.5c0 7.33301 2.66699 15.333 8 24l68 76l29 52c7.33301 13.333 14 23.333 20 30
c10.667 12 20.667 18 30 18c3.33301 0 7 -1 11 -3c12.667 -7.33301 19 -18 19 -32c0 -7.33301 -0.833008 -13.5 -2.5 -18.5s-7.16699 -16.167 -16.5 -33.5z" />
    <glyph glyph-name="mu" unicode="&#xb5;" horiz-adv-x="594" 
d="M578 20c0 -7.33301 -1.49902 -13.333 -4.49902 -18s-8.16699 -7 -15.5 -7c-32.667 0 -57.667 30.333 -75 91c-2 6.66699 -10.333 51.334 -25 134.001c-32 -63.333 -60.667 -115 -86 -155c-48.667 -77.333 -85.667 -116 -111 -116l-27 24l6 -114
c0 -10.667 -4.83301 -19.167 -14.5 -25.5s-21.834 -10.833 -36.501 -13.5c-0.666992 4.66699 -1.33398 15.167 -2.00098 31.5s-1 25.5 -1 27.5c0 21.333 1 54.666 3 99.999s3 75.333 3 90c0 29.333 5.66699 74.333 17 135s17 106.334 17 137.001l-2 13
c-22.667 -8.66699 -53 -33.5 -91 -74.5s-69.333 -64.167 -94 -69.5l-3 21c0 27.333 32.833 73.833 98.5 139.5s110.834 98.5 135.501 98.5c13.333 0 22.666 -4.16699 27.999 -12.5s8 -19.833 8 -34.5c0 -30 -4.33301 -67 -13 -111c-19.333 -97.333 -29 -160.333 -29 -189
c0 -28 3 -56 9 -84c4.66699 6 9.66699 11.333 15 16s11.333 8.33398 18 11.001l-6 4c0 1.33301 13.833 22.666 41.5 63.999s43.834 67 48.501 77l65 148c36 76.667 62.333 118 79 124c8.66699 -4 16 -11 22 -21s9 -20 9 -30c0 -28.667 -2 -64.334 -6 -107.001
c-8.66699 -92 -13 -152 -13 -180c0 -12.667 7 -38 21 -76c7.33301 -20 11 -36 11 -48z" />
    <glyph glyph-name="paragraph" unicode="&#xb6;" horiz-adv-x="567" 
d="M490 494c0 -31.333 -3.00098 -78.665 -9.00098 -141.998c-14.667 -154.667 -22 -240.667 -22 -258c0 -6.66699 1.33301 -16.667 4 -30s4 -23.333 4 -30c0 -12.667 -3.66699 -22.334 -11 -29.001s-19.666 -10 -36.999 -10c-12.667 0 -21.5 3 -26.5 9s-7.5 14 -7.5 24
c0 7.33301 1.16699 15.666 3.5 24.999s4.83301 18.333 7.5 27c5.33301 25.333 11.333 74.5 18 147.5s10 123.5 10 151.5c0 14.667 -0.333008 26.667 -1 36c-2.66699 36.667 -4 56.334 -4 59.001c0 27.333 3 46.666 9 57.999s16.667 17 32 17c10 0 17.5 -4.5 22.5 -13.5
s7.5 -22.833 7.5 -41.5zM412.999 568.001l-8 -22.002c-6.66699 -3.33301 -15.667 -5.66602 -27 -6.99902s-22 -2 -32 -2c7.33301 -68 12.666 -123.333 15.999 -166s5 -89.667 5 -141v-27c0 -52.667 -2.33301 -93.667 -7 -123c-8 -49.333 -22.333 -74 -43 -74
c-13.333 0 -24.166 5.5 -32.499 16.5s-12.5 23.5 -12.5 37.5c0 12 5.16699 31.833 15.5 59.5s15.5 49.5 15.5 65.5c0 46.667 -22 88 -66 124l-122 84c-44.667 34.667 -67 73.334 -67 116.001c0 44 25.333 79.667 76 107c43.333 23.333 89 35 137 35c32 0 63 -6 93 -18
c39.333 -16 59 -37.667 59 -65zM290.999 456.999c0 35.333 -4.33105 63.668 -12.998 85.001c-12.667 31.333 -34 47 -64 47c-24.667 0 -46.834 -6.16699 -66.501 -18.5s-29.5 -30.166 -29.5 -53.499c0 -32 16 -63.333 48 -94c11.333 -10.667 28.666 -24.334 51.999 -41.001
c2.66699 -2 9 -6 19 -12s17 -11.333 21 -16h10l10 -9c8.66699 35.333 13 72.666 13 111.999z" />
    <glyph glyph-name="periodcentered" unicode="&#xb7;" horiz-adv-x="240" 
d="M191 385c0 -20 -7.5 -38.668 -22.5 -56.001s-32.833 -26 -53.5 -26c-17.333 0 -31.833 6.5 -43.5 19.5s-17.5 28.5 -17.5 46.5c0 20.667 8.33301 39 25 55s35.667 24 57 24c16.667 0 30 -6.16699 40 -18.5s15 -27.166 15 -44.499z" />
    <glyph glyph-name="periodcentered" unicode="&#x2219;" horiz-adv-x="240" 
d="M191 385c0 -20 -7.5 -38.668 -22.5 -56.001s-32.833 -26 -53.5 -26c-17.333 0 -31.833 6.5 -43.5 19.5s-17.5 28.5 -17.5 46.5c0 20.667 8.33301 39 25 55s35.667 24 57 24c16.667 0 30 -6.16699 40 -18.5s15 -27.166 15 -44.499z" />
    <glyph glyph-name="cedilla" unicode="&#xb8;" horiz-adv-x="276" 
d="M242 42c2.66699 -4.66699 4.00195 -10.333 4.00195 -17c0 -28 -17.667 -70 -53 -126c-32 -51.333 -55.667 -81.333 -71 -90c-6.66699 -4 -14 -7.5 -22 -10.5s-16 -4.5 -24 -4.5c-8.66699 0 -16.834 2.16699 -24.501 6.5s-14.334 11 -20.001 20
s-8.83398 17.833 -9.50098 26.5l-5 9l2 13c20.667 0 37.5 0.833008 50.5 2.5s25.833 6.16699 38.5 13.5c24.667 14 44 38 58 72l34 104c2 1.33301 5.33301 2 10 2c12.667 0 23.334 -7 32.001 -21z" />
    <glyph glyph-name="onesuperior" unicode="&#xb9;" horiz-adv-x="128" 
d="M79 336c0 -7.33301 -2.99902 -13.666 -8.99902 -18.999s-13 -8 -21 -8c-12.667 0 -20 5.33301 -22 16s-3 20 -3 28v58c0 60.667 1.83301 109.834 5.5 147.501s11.5 56.5 23.5 56.5c6 0 11.167 -3.16699 15.5 -9.5s6.5 -12.833 6.5 -19.5c0 -12.667 -3.16699 -31 -9.5 -55
s-9.5 -41.667 -9.5 -53c0 -15.333 1 -36.833 3 -64.5s4.66699 -44.334 8 -50.001s6.16602 -10.834 8.49902 -15.501s3.5 -8.66699 3.5 -12z" />
    <glyph glyph-name="ordmasculine" unicode="&#xba;" horiz-adv-x="304" 
d="M244 645c0 -36 -8.66797 -71.668 -26.001 -107.001c-21.333 -43.333 -48.333 -65 -81 -65c-20.667 0 -36.5 7.5 -47.5 22.5s-16.5 32.833 -16.5 53.5c0 18.667 4 41.834 12 69.501s16.667 45.667 26 54s20 12.5 32 12.5c10.667 0 18.5 1 23.5 3l19 7.5
c7.66699 3 15.167 4.5 22.5 4.5c14.667 0 24.334 -5.16699 29.001 -15.5s7 -23.5 7 -39.5zM214.999 628.999c0 14.667 -2.33301 27 -7 37c-30.667 -10.667 -52.667 -19 -66 -25c-23.333 -11.333 -35 -36.333 -35 -75c0 -15.333 2.16699 -28.833 6.5 -40.5
s12.833 -17.5 25.5 -17.5c19.333 0 37.333 15.667 54 47c14.667 28 22 52.667 22 74z" />
    <glyph glyph-name="guillemotright" unicode="&#xbb;" horiz-adv-x="872" 
d="M774 265c0 -12.667 -7.33105 -24.333 -21.998 -35c-8 -6 -21.333 -12.667 -40 -20c-38.667 -14.667 -76.667 -35 -114 -61c-26.667 -18.667 -60.334 -46 -101.001 -82l-36 -46c-17.333 -22 -32.333 -33 -45 -33c-8 0 -15.167 4.5 -21.5 13.5s-9.5 17.833 -9.5 26.5
c0 25.333 24.333 56.333 73 93c135.333 102.667 203.666 154.667 204.999 156c-38.667 24 -91.667 66 -159 126c-76 68 -117.333 115.667 -124 143l10 10l10 -10c12.667 5.33301 21 8 25 8c5.33301 0 28 -17.333 68 -52l120 -104c47.333 -39.333 80.333 -63.5 99 -72.5
s31.667 -16.5 39 -22.5c15.333 -12 23 -24.667 23 -38zM462.002 265.001c0 -12.667 -7.33105 -24.333 -21.998 -35c-8 -6 -21.333 -12.667 -40 -20c-38.667 -14.667 -76.667 -35 -114 -61c-26.667 -18.667 -60.334 -46 -101.001 -82l-36 -46
c-17.333 -22 -32.333 -33 -45 -33c-8 0 -15.167 4.5 -21.5 13.5s-9.5 17.833 -9.5 26.5c0 25.333 24.333 56.333 73 93c135.333 102.667 203.666 154.667 204.999 156c-38.667 24 -91.667 66 -159 126c-76 68 -117.333 115.667 -124 143l10 10l10 -10
c12.667 5.33301 21 8 25 8c5.33301 0 28 -17.333 68 -52l120 -104c47.333 -39.333 80.333 -63.5 99 -72.5s31.667 -16.5 39 -22.5c15.333 -12 23 -24.667 23 -38z" />
    <glyph glyph-name="onequarter" unicode="&#xbc;" horiz-adv-x="632" 
d="M602 110c-4 -10 -10.333 -14.999 -19 -14.999c-3.33301 0 -9 0.666992 -17 2s-12.333 2 -13 2c-29.333 0 -47.833 -4.16699 -55.5 -12.5s-11.5 -23.833 -11.5 -46.5v-26c0 -19.333 -5.33301 -29 -16 -29c-9.33301 0 -15.666 7.66699 -18.999 23s-5 32.666 -5 51.999v15
h-5c-5.33301 0 -20.333 -6 -45 -18c-14 -6.66699 -24 -10 -30 -10c-12.667 0 -21.167 6 -25.5 18s-6.5 26.333 -6.5 43c0 52 3 94.333 9 127s14.667 51 26 55c8.66699 -2 14.667 -8 18 -18l-16 -58.5c-5.33301 -19.667 -8 -38.167 -8 -55.5
c0 -16 0.833008 -29.167 2.5 -39.5s5.5 -21.5 11.5 -33.5l55 18c22 10 33 23.667 33 41c0 22.667 1.66699 41.667 5 57c6 26.667 16.667 40 32 40c4.66699 0 8.5 -2.5 11.5 -7.5s4.5 -9.5 4.5 -13.5c0 -9.33301 -3.16699 -23.5 -9.5 -42.5s-9.5 -33.167 -9.5 -42.5v-10
c8.66699 0 20.5 0.833008 35.5 2.5s24.167 2.5 27.5 2.5c9.33301 0 17.666 -1.5 24.999 -4.5s12.333 -8.16699 15 -15.5zM177 341.001c0 -7.33301 -2.99902 -13.666 -8.99902 -18.999s-13 -8 -21 -8c-12.667 0 -20 5.33301 -22 16s-3 20 -3 28v58
c0 60.667 1.83301 109.834 5.5 147.501s11.5 56.5 23.5 56.5c6 0 11.167 -3.16699 15.5 -9.5s6.5 -12.833 6.5 -19.5c0 -12.667 -3.16699 -31 -9.5 -55s-9.5 -41.667 -9.5 -53c0 -15.333 1 -36.833 3 -64.5s4.66699 -44.334 8 -50.001s6.16602 -10.834 8.49902 -15.501
s3.5 -8.66699 3.5 -12zM504.001 566.001c-2 -8 -5.66699 -15.9971 -11 -23.9971c-2 -2.66699 -7.33301 -9.33398 -16 -20.001c-78.667 -88 -150 -182.667 -214 -284l-146 -219c-10 -18 -16.333 -29 -19 -33c-8 -12 -16.333 -21 -25 -27
c-10.667 -9.33301 -21.667 -15.333 -33 -18c-6.66699 3.33301 -8.66699 10.666 -6 21.999c5.33301 25.333 44 91.666 116 198.999c69.333 103.333 137.333 198 204 284c74.667 96.667 118 145 130 145c6 0 11.167 -2.16699 15.5 -6.5s5.83301 -10.5 4.5 -18.5z" />
    <glyph glyph-name="onehalf" unicode="&#xbd;" horiz-adv-x="609" 
d="M572 30l-4.99805 -5.00098c-0.666992 -7.33301 -4.33398 -11.666 -11.001 -12.999c-0.666992 -0.666992 -6.66699 -1 -18 -1c-24.667 0 -49 -1 -73 -3c-72 -6 -110 -9 -114 -9c-10 0 -18.667 1 -26 3s-11 6.66699 -11 14c0 4 31 41.667 93 113c29.333 34 44 66.667 44 98
c0 9.33301 -2 15.333 -6 18c-1.33301 1.33301 -3.33301 2.33301 -6 3c-0.666992 0 -2.66699 0.333008 -6 1c-12.667 0 -26.667 -5 -42 -15l-43 -33c-4.66699 0 -8.66699 2 -12 6l-4 11c0 16.667 12.167 32 36.5 46s46.166 21 65.499 21c16.667 0 28.5 -4.5 35.5 -13.5
s10.5 -22.5 10.5 -40.5c0 -34 -12.333 -68.667 -37 -104c-9.33301 -13.333 -34.666 -42.333 -75.999 -87c5.33301 -2 10.666 -3.33301 15.999 -4s11.666 -1 18.999 -1c12 0 30 1.33301 54 4s42 4 54 4c24.667 0 45.334 -4.33301 62.001 -13zM135.002 345.999
c0 -7.33301 -2.99902 -13.666 -8.99902 -18.999s-13 -8 -21 -8c-12.667 0 -20 5.33301 -22 16s-3 20 -3 28v58c0 60.667 1.83301 109.834 5.5 147.501s11.5 56.5 23.5 56.5c6 0 11.167 -3.16699 15.5 -9.5s6.5 -12.833 6.5 -19.5c0 -12.667 -3.16699 -31 -9.5 -55
s-9.5 -41.667 -9.5 -53c0 -15.333 1 -36.833 3 -64.5s4.66699 -44.334 8 -50.001s6.16602 -10.834 8.49902 -15.501s3.5 -8.66699 3.5 -12zM502.003 565.999c-2 -8 -5.66699 -15.9971 -11 -23.9971c-2 -2.66699 -7.33301 -9.33398 -16 -20.001
c-78.667 -88 -150 -182.667 -214 -284l-146 -219c-10 -18 -16.333 -29 -19 -33c-8 -12 -16.333 -21 -25 -27c-10.667 -9.33301 -21.667 -15.333 -33 -18c-6.66699 3.33301 -8.66699 10.666 -6 21.999c5.33301 25.333 44 91.666 116 198.999
c69.333 103.333 137.333 198 204 284c74.667 96.667 118 145 130 145c6 0 11.167 -2.16699 15.5 -6.5s5.83301 -10.5 4.5 -18.5z" />
    <glyph glyph-name="threequarters" unicode="&#xbe;" horiz-adv-x="651" 
d="M251 424c0 -30 -24.335 -49.333 -73.002 -58c-21.333 -4 -58 -6 -110 -6c-21.333 0 -36 7.66699 -44 23c10.667 4 21.834 6.83301 33.501 8.5s25.5 2.5 41.5 2.5c6 0 12 -0.166992 18 -0.5s12.333 -0.5 19 -0.5c28.667 0 48.834 2.33301 60.501 7
s17.5 12.334 17.5 23.001c0 20 -19.833 38.667 -59.5 56s-59.5 30.333 -59.5 39c0 9.33301 13.667 26.333 41 51s42 41 44 49l-5 5h-5c-19.333 0 -39.333 -5.33301 -60 -16c-31.333 -16 -50 -25 -56 -27c-10.667 1.33301 -16 6.66602 -16 15.999c0 14 18 27.167 54 39.5
s63.333 18.5 82 18.5c13.333 0 25.166 -2.16699 35.499 -6.5s15.5 -11.833 15.5 -22.5c0 -12 -12.333 -30.5 -37 -55.5l-47 -47.5c36.667 -20 59.334 -33 68.001 -39c28 -20 42 -39.667 42 -59zM601.998 110c-4 -10 -10.333 -14.999 -19 -14.999
c-3.33301 0 -9 0.666992 -17 2s-12.333 2 -13 2c-29.333 0 -47.833 -4.16699 -55.5 -12.5s-11.5 -23.833 -11.5 -46.5v-26c0 -19.333 -5.33301 -29 -16 -29c-9.33301 0 -15.666 7.66699 -18.999 23s-5 32.666 -5 51.999v15h-5c-5.33301 0 -20.333 -6 -45 -18
c-14 -6.66699 -24 -10 -30 -10c-12.667 0 -21.167 6 -25.5 18s-6.5 26.333 -6.5 43c0 52 3 94.333 9 127s14.667 51 26 55c8.66699 -2 14.667 -8 18 -18l-16 -58.5c-5.33301 -19.667 -8 -38.167 -8 -55.5c0 -16 0.833008 -29.167 2.5 -39.5s5.5 -21.5 11.5 -33.5l55 18
c22 10 33 23.667 33 41c0 22.667 1.66699 41.667 5 57c6 26.667 16.667 40 32 40c4.66699 0 8.5 -2.5 11.5 -7.5s4.5 -9.5 4.5 -13.5c0 -9.33301 -3.16699 -23.5 -9.5 -42.5s-9.5 -33.167 -9.5 -42.5v-10c8.66699 0 20.5 0.833008 35.5 2.5s24.167 2.5 27.5 2.5
c9.33301 0 17.666 -1.5 24.999 -4.5s12.333 -8.16699 15 -15.5zM503.998 566.001c-2 -8 -5.66699 -15.9971 -11 -23.9971c-2 -2.66699 -7.33301 -9.33398 -16 -20.001c-78.667 -88 -150 -182.667 -214 -284l-146 -219c-10 -18 -16.333 -29 -19 -33
c-8 -12 -16.333 -21 -25 -27c-10.667 -9.33301 -21.667 -15.333 -33 -18c-6.66699 3.33301 -8.66699 10.666 -6 21.999c5.33301 25.333 44 91.666 116 198.999c69.333 103.333 137.333 198 204 284c74.667 96.667 118 145 130 145c6 0 11.167 -2.16699 15.5 -6.5
s5.83301 -10.5 4.5 -18.5z" />
    <glyph glyph-name="questiondown" unicode="&#xbf;" 
d="M316 658c0 -20 -11.667 -29.999 -35 -29.999c-10.667 0 -20.667 1.16699 -30 3.5s-20.333 5.83301 -33 10.5l9 38c1.33301 5.33301 7.5 10.166 18.5 14.499s19.833 6.5 26.5 6.5c29.333 0 44 -14.333 44 -43zM461 163.001l-9.00195 -10
c-7.33301 -34.667 -47 -69.667 -119 -105c-65.333 -32 -119.666 -48 -162.999 -48c-30.667 0 -54.667 6 -72 18c-20 14 -30 36 -30 66c0 46.667 19 101 57 163l102 146c8.66699 12.667 15 27.667 19 45c12.667 50.667 19.334 77 20.001 79c20 -5.33301 34.667 -12 44 -20
c13.333 -10.667 20 -25 20 -43c0 -26 -16.667 -60.5 -50 -103.5l-98 -126.5c-34.667 -50 -52 -93 -52 -129c0 -14 5.16699 -24.333 15.5 -31s23.5 -10 39.5 -10c32.667 0 69.667 14.167 111 42.5l125 87.5c7.33301 0 14.333 -1 21 -3c2 -0.666992 8.33301 -3.66699 19 -9v-9
z" />
    <glyph glyph-name="Agrave" unicode="&#xc0;" horiz-adv-x="565" 
d="M556 44c0 -12.667 -2.50195 -23.332 -7.50195 -31.999s-13.5 -14.667 -25.5 -18c-26.667 7.33301 -46.167 52.166 -58.5 134.499s-39.166 123.5 -80.499 123.5c-78 0 -133.333 -20 -166 -60c-11.333 -14 -26.666 -51.333 -45.999 -112c-12.667 -40 -34.667 -60 -66 -60
c-8 0 -13.833 3 -17.5 9s-5.5 13.333 -5.5 22s13 58.667 39 150l77 264l54 179c4.66699 16.667 11.5 29.5 20.5 38.5s21.5 13.5 37.5 13.5c13.333 0 25.333 -3 36 -9s21.667 -14.667 33 -26c6 -6 19.5 -40.5 40.5 -103.5s40.667 -126 59 -189s27.5 -99.5 27.5 -109.5
l-10 -10c0 -22 6 -48 18 -78c27.333 -68 41 -110.333 41 -127zM405.998 362.002c0 26 -6.83105 59.167 -20.498 99.5s-28.5 74.833 -44.5 103.5l-20 -19c-2 -2 -17.333 -42 -46 -120l-51 -139c3.33301 -0.666992 9.16602 -1.66699 17.499 -3s17.166 -2 26.499 -2
c48 0 84 8.33301 108 25c20 14 30 32.333 30 55zM337 779.002c0 -2.66699 -0.666992 -6.99805 -2 -12.998s-2 -10.333 -2 -13c-44 0 -93.667 11.333 -149 34c-67.333 27.333 -101 58.666 -101 93.999c0 12 2 23.667 6 35c13.333 0 32 -9.33301 56 -28
c55.333 -44 85.5 -66.5 90.5 -67.5s13.833 -2.33301 26.5 -4s23.5 -3.33398 32.5 -5.00098s17.167 -4.16699 24.5 -7.5c12 -6 18 -14.333 18 -25z" />
    <glyph glyph-name="Aacute" unicode="&#xc1;" horiz-adv-x="565" 
d="M556 44c0 -12.667 -2.50195 -23.332 -7.50195 -31.999s-13.5 -14.667 -25.5 -18c-26.667 7.33301 -46.167 52.166 -58.5 134.499s-39.166 123.5 -80.499 123.5c-78 0 -133.333 -20 -166 -60c-11.333 -14 -26.666 -51.333 -45.999 -112c-12.667 -40 -34.667 -60 -66 -60
c-8 0 -13.833 3 -17.5 9s-5.5 13.333 -5.5 22s13 58.667 39 150l77 264l54 179c4.66699 16.667 11.5 29.5 20.5 38.5s21.5 13.5 37.5 13.5c13.333 0 25.333 -3 36 -9s21.667 -14.667 33 -26c6 -6 19.5 -40.5 40.5 -103.5s40.667 -126 59 -189s27.5 -99.5 27.5 -109.5
l-10 -10c0 -22 6 -48 18 -78c27.333 -68 41 -110.333 41 -127zM405.998 362.002c0 26 -6.83105 59.167 -20.498 99.5s-28.5 74.833 -44.5 103.5l-20 -19c-2 -2 -17.333 -42 -46 -120l-51 -139c3.33301 -0.666992 9.16602 -1.66699 17.499 -3s17.166 -2 26.499 -2
c48 0 84 8.33301 108 25c20 14 30 32.333 30 55zM468 904.002c-25.333 -43.333 -46.334 -74.332 -63.001 -92.999c-28 -30.667 -59.333 -49.334 -94 -56.001c-3.33301 9.33301 -5.66602 16.5 -6.99902 21.5s-2 9.83301 -2 14.5c0 7.33301 2.66699 15.333 8 24l68 76l29 52
c7.33301 13.333 14 23.333 20 30c10.667 12 20.667 18 30 18c3.33301 0 7 -1 11 -3c12.667 -7.33301 19 -18 19 -32c0 -7.33301 -0.833008 -13.5 -2.5 -18.5s-7.16699 -16.167 -16.5 -33.5z" />
    <glyph glyph-name="Acircumflex" unicode="&#xc2;" horiz-adv-x="565" 
d="M556 44c0 -12.667 -2.50195 -23.332 -7.50195 -31.999s-13.5 -14.667 -25.5 -18c-26.667 7.33301 -46.167 52.166 -58.5 134.499s-39.166 123.5 -80.499 123.5c-78 0 -133.333 -20 -166 -60c-11.333 -14 -26.666 -51.333 -45.999 -112c-12.667 -40 -34.667 -60 -66 -60
c-8 0 -13.833 3 -17.5 9s-5.5 13.333 -5.5 22s13 58.667 39 150l77 264l54 179c4.66699 16.667 11.5 29.5 20.5 38.5s21.5 13.5 37.5 13.5c13.333 0 25.333 -3 36 -9s21.667 -14.667 33 -26c6 -6 19.5 -40.5 40.5 -103.5s40.667 -126 59 -189s27.5 -99.5 27.5 -109.5
l-10 -10c0 -22 6 -48 18 -78c27.333 -68 41 -110.333 41 -127zM405.998 362.002c0 26 -6.83105 59.167 -20.498 99.5s-28.5 74.833 -44.5 103.5l-20 -19c-2 -2 -17.333 -42 -46 -120l-51 -139c3.33301 -0.666992 9.16602 -1.66699 17.499 -3s17.166 -2 26.499 -2
c48 0 84 8.33301 108 25c20 14 30 32.333 30 55zM469 762.002c0 -7.33301 -3.16895 -12.999 -9.50195 -16.999s-14.166 -6 -23.499 -6c-6 0 -12 1.66699 -18 5c-2 0.666992 -5 3 -9 7l-86 134c-10.667 -8 -23 -25.667 -37 -53c-25.333 -48 -47 -72 -65 -72
c-9.33301 0 -16.666 1.5 -21.999 4.5s-8 8.5 -8 16.5c0 4.66699 13.5 31.5 40.5 80.5s44.167 77.333 51.5 85s12.666 12.5 15.999 14.5c7.33301 4.66699 15 7 23 7c22.667 0 41.667 -16.333 57 -49l30 -71c20.667 -23.333 35.834 -41.333 45.501 -54
s14.5 -23.334 14.5 -32.001z" />
    <glyph glyph-name="Atilde" unicode="&#xc3;" horiz-adv-x="565" 
d="M556 44c0 -12.667 -2.50195 -23.332 -7.50195 -31.999s-13.5 -14.667 -25.5 -18c-26.667 7.33301 -46.167 52.166 -58.5 134.499s-39.166 123.5 -80.499 123.5c-78 0 -133.333 -20 -166 -60c-11.333 -14 -26.666 -51.333 -45.999 -112c-12.667 -40 -34.667 -60 -66 -60
c-8 0 -13.833 3 -17.5 9s-5.5 13.333 -5.5 22s13 58.667 39 150l77 264l54 179c4.66699 16.667 11.5 29.5 20.5 38.5s21.5 13.5 37.5 13.5c13.333 0 25.333 -3 36 -9s21.667 -14.667 33 -26c6 -6 19.5 -40.5 40.5 -103.5s40.667 -126 59 -189s27.5 -99.5 27.5 -109.5
l-10 -10c0 -22 6 -48 18 -78c27.333 -68 41 -110.333 41 -127zM405.998 362.002c0 26 -6.83105 59.167 -20.498 99.5s-28.5 74.833 -44.5 103.5l-20 -19c-2 -2 -17.333 -42 -46 -120l-51 -139c3.33301 -0.666992 9.16602 -1.66699 17.499 -3s17.166 -2 26.499 -2
c48 0 84 8.33301 108 25c20 14 30 32.333 30 55zM496 867.002c0 -19.333 -12.667 -42.001 -38 -68.001s-50.333 -39 -75 -39c-16 0 -34.333 15 -55 45c-10 14.667 -20.667 22 -32 22c-16 0 -35.833 -11.833 -59.5 -35.5s-39.5 -35.5 -47.5 -35.5c-10 0 -15 6 -15 18
c0 12.667 15.5 29.834 46.5 51.501s55.167 32.5 72.5 32.5c26.667 0 49.334 -15 68.001 -45c9.33301 -14.667 17.666 -22 24.999 -22c17.333 0 34.333 14.833 51 44.5s32 46.167 46 49.5c8.66699 -2 13 -8 13 -18z" />
    <glyph glyph-name="Adieresis" unicode="&#xc4;" horiz-adv-x="565" 
d="M556 44c0 -12.667 -2.50195 -23.332 -7.50195 -31.999s-13.5 -14.667 -25.5 -18c-26.667 7.33301 -46.167 52.166 -58.5 134.499s-39.166 123.5 -80.499 123.5c-78 0 -133.333 -20 -166 -60c-11.333 -14 -26.666 -51.333 -45.999 -112c-12.667 -40 -34.667 -60 -66 -60
c-8 0 -13.833 3 -17.5 9s-5.5 13.333 -5.5 22s13 58.667 39 150l77 264l54 179c4.66699 16.667 11.5 29.5 20.5 38.5s21.5 13.5 37.5 13.5c13.333 0 25.333 -3 36 -9s21.667 -14.667 33 -26c6 -6 19.5 -40.5 40.5 -103.5s40.667 -126 59 -189s27.5 -99.5 27.5 -109.5
l-10 -10c0 -22 6 -48 18 -78c27.333 -68 41 -110.333 41 -127zM405.998 362.002c0 26 -6.83105 59.167 -20.498 99.5s-28.5 74.833 -44.5 103.5l-20 -19c-2 -2 -17.333 -42 -46 -120l-51 -139c3.33301 -0.666992 9.16602 -1.66699 17.499 -3s17.166 -2 26.499 -2
c48 0 84 8.33301 108 25c20 14 30 32.333 30 55zM487 812.002c0 -20 -7.5 -38.668 -22.5 -56.001s-32.833 -26 -53.5 -26c-17.333 0 -31.833 6.5 -43.5 19.5s-17.5 28.5 -17.5 46.5c0 20.667 8.33301 39 25 55s35.667 24 57 24c16.667 0 30 -6.16699 40 -18.5
s15 -27.166 15 -44.499zM299 816.001c0 -20 -7.5 -38.668 -22.5 -56.001s-32.833 -26 -53.5 -26c-17.333 0 -31.833 6.5 -43.5 19.5s-17.5 28.5 -17.5 46.5c0 20.667 8.33301 39 25 55s35.667 24 57 24c16.667 0 30 -6.16699 40 -18.5s15 -27.166 15 -44.499z" />
    <glyph glyph-name="Aring" unicode="&#xc5;" horiz-adv-x="565" 
d="M556 44c0 -12.667 -2.50195 -23.332 -7.50195 -31.999s-13.5 -14.667 -25.5 -18c-26.667 7.33301 -46.167 52.166 -58.5 134.499s-39.166 123.5 -80.499 123.5c-78 0 -133.333 -20 -166 -60c-11.333 -14 -26.666 -51.333 -45.999 -112c-12.667 -40 -34.667 -60 -66 -60
c-8 0 -13.833 3 -17.5 9s-5.5 13.333 -5.5 22s13 58.667 39 150l77 264l54 179c4.66699 16.667 11.5 29.5 20.5 38.5s21.5 13.5 37.5 13.5c13.333 0 25.333 -3 36 -9s21.667 -14.667 33 -26c6 -6 19.5 -40.5 40.5 -103.5s40.667 -126 59 -189s27.5 -99.5 27.5 -109.5
l-10 -10c0 -22 6 -48 18 -78c27.333 -68 41 -110.333 41 -127zM405.998 362.002c0 26 -6.83105 59.167 -20.498 99.5s-28.5 74.833 -44.5 103.5l-20 -19c-2 -2 -17.333 -42 -46 -120l-51 -139c3.33301 -0.666992 9.16602 -1.66699 17.499 -3s17.166 -2 26.499 -2
c48 0 84 8.33301 108 25c20 14 30 32.333 30 55zM410 897.002c0 -33.333 -8 -66.334 -24 -99.001c-19.333 -40 -44.333 -60 -75 -60c-19.333 0 -34 6.66699 -44 20s-15 30 -15 50c0 17.333 3.66699 38.833 11 64.5s16.333 42.5 27 50.5c4.66699 4.66699 10 7.66699 16 9
c2.66699 0.666992 7.33398 1 14.001 1s13.167 1.33301 19.5 4l18.5 7.5c6 2.33301 12.333 3.5 19 3.5c13.333 0 22.666 -5.66699 27.999 -17c3.33301 -7.33301 5 -18.666 5 -33.999zM384 882.001c0 13.333 -2.33398 24.999 -7.00098 34.999l-75 -32
c-12.667 -11.333 -19 -31.666 -19 -60.999c0 -18 2.83301 -31.5 8.5 -40.5s12.834 -13.5 21.501 -13.5c18.667 0 35.667 14.333 51 43c13.333 25.333 20 48.333 20 69z" />
    <glyph glyph-name="AE" unicode="&#xc6;" horiz-adv-x="849" 
d="M805 557c-11.333 -2.66699 -23.3359 -4.33691 -36.0029 -5.00391s-27.667 -1 -45 -1c-72.667 0 -120 -3.33301 -142 -10c-46 -14 -69 -47 -69 -99c0 -19.333 2 -33.666 6 -42.999c6.66699 -15.333 18.667 -23 36 -23c16 0 39.333 6.83301 70 20.5
s53.334 20.5 68.001 20.5c21.333 0 36 -10.667 44 -32l-156 -53c-53.333 -25.333 -80 -65.666 -80 -120.999c0 -21.333 2 -43.333 6 -66s9.33301 -48 16 -76l112 92c54 40.667 94.667 61 122 61c11.333 0 20.833 -1.16699 28.5 -3.5s11.5 -7.5 11.5 -15.5
c0 -3.33301 -2.83301 -8.83301 -8.5 -16.5s-10.167 -12.5 -13.5 -14.5c-10.667 -10.667 -30.334 -23 -59.001 -37s-49.5 -26.5 -62.5 -37.5s-25.333 -22 -37 -33l-35.5 -33.5c-17.333 -14.667 -31.5 -24.5 -42.5 -29.5s-21.833 -7.5 -32.5 -7.5c-15.333 0 -27 4 -35 12
c-9.33301 -6.66699 -17 -10.667 -23 -12c-12.667 4 -21.334 12.333 -26.001 25s-7 30.334 -7 53.001c0 10.667 0.666992 28.834 2 54.501s2 39.5 2 41.5c0 27.333 -3.33301 47.333 -10 60c-8.66699 16 -23.667 24 -45 24c-78.667 0 -138.334 -20 -179.001 -60
c-15.333 -14.667 -38.666 -52 -69.999 -112c-21.333 -40 -47.333 -60 -78 -60c-11.333 0 -17 6.66699 -17 20c0 4.66699 0.833008 10.167 2.5 16.5s24.834 54.5 69.501 144.5l133 264l92 179c8.66699 16.667 17.667 29 27 37c12 10 26 15 42 15
c12.667 0 23.834 -3 33.501 -9s18.834 -14.667 27.501 -26c2.66699 -3.33301 6 -17.833 10 -43.5s7 -47.167 9 -64.5c33.333 17.333 75.833 30.5 127.5 39.5s93.5 13.5 125.5 13.5c22.667 0 40.834 -3.33301 54.501 -10s24.167 -19.667 31.5 -39zM409.997 361.997
c1.33301 5.33301 2.33203 12.168 2.99902 20.501s1 16.833 1 25.5c0 25.333 -2.5 52.666 -7.5 81.999s-11.167 54.333 -18.5 75l-24 -19c-2.66699 -2 -26.667 -42 -72 -120l-80 -139c3.33301 -1.33301 9 -2.5 17 -3.5s16.667 -1.5 26 -1.5
c36.667 0 67.334 4.66699 92.001 14c35.333 13.333 56.333 35.333 63 66z" />
    <glyph glyph-name="Ccedilla" unicode="&#xc7;" horiz-adv-x="594" 
d="M593 144c0 -24.667 -36.335 -54.001 -109.002 -88.001c-62.667 -29.333 -124.334 -51.333 -185.001 -66c-5.33301 -25.333 -24.666 -58.333 -57.999 -99c-30.667 -37.333 -52.667 -59 -66 -65c-6 -3.33301 -13.333 -6.16602 -22 -8.49902s-17.334 -3.5 -26.001 -3.5
c-10 0 -18.5 1.5 -25.5 4.5s-13.167 8.66699 -18.5 17s-8.33301 15.166 -9 20.499l-6 8l2 10c18.667 0 35.334 0.833008 50.001 2.5s28.334 5.16699 41.001 10.5c15.333 7.33301 28.333 17.333 39 30c13.333 16 24.666 38 33.999 66c-54 5.33301 -94.333 33 -121 83
c-22 41.333 -33 92 -33 152c0 38 8.33301 90.667 25 158c19.333 76.667 43 142 71 196c34 64.667 68.667 97 104 97c36.667 0 74.667 -23.333 114 -70c28.667 -34.667 53.334 -74.667 74.001 -120c-6.66699 -3.33301 -14.834 -6.66602 -24.501 -9.99902s-18.167 -5 -25.5 -5
c-9.33301 0 -31 31 -65 93c-16 29.333 -35 44 -57 44c-31.333 0 -66.666 -53.333 -105.999 -160c-36 -96.667 -54 -167 -54 -211c0 -52.667 12 -96 36 -130c28 -39.333 67.667 -59 119 -59c45.333 0 97.333 21.333 156 64s98.334 64 119.001 64c18 0 27 -8.33301 27 -25z
" />
    <glyph glyph-name="Egrave" unicode="&#xc8;" horiz-adv-x="477" 
d="M477 507c-11.333 -2.66699 -23.334 -4.33398 -36.001 -5.00098s-27.667 -1 -45 -1c-72.667 0 -120 -3.33301 -142 -10c-46 -14 -69 -47 -69 -99c0 -19.333 2 -33.666 6 -42.999c6.66699 -15.333 18.667 -23 36 -23c16 0 39.333 6.83301 70 20.5s53.334 20.5 68.001 20.5
c21.333 0 36 -10.667 44 -32l-156 -53c-53.333 -25.333 -80 -65.666 -80 -120.999c0 -21.333 2 -43.333 6 -66s9.33301 -48 16 -76l112 92c54 40.667 94.667 61 122 61c11.333 0 20.833 -1.16699 28.5 -3.5s11.5 -7.5 11.5 -15.5c0 -3.33301 -2.83301 -8.83301 -8.5 -16.5
s-10.167 -12.5 -13.5 -14.5c-10.667 -10.667 -30.334 -23 -59.001 -37s-49.5 -26.5 -62.5 -37.5s-25.333 -22 -37 -33l-35.5 -33.5c-17.333 -14.667 -31.5 -24.5 -42.5 -29.5s-21.833 -7.5 -32.5 -7.5c-23.333 0 -39.5 9.83301 -48.5 29.5s-13.5 45.5 -13.5 77.5
c0 14.667 1.16699 36 3.5 64s3.5 42.667 3.5 44c0 22 -3 40 -9 54s-18 26 -36 36c32 41.333 48 86 48 134c0 10.667 -6.83301 22.667 -20.5 36s-21.5 23.666 -23.5 30.999c10 34 56 61.333 138 82c63.333 16 120.333 24 171 24c22.667 0 40.834 -3.33301 54.501 -10
s24.167 -19.667 31.5 -39zM331.999 636c0 -2.66699 -0.666992 -6.99805 -2 -12.998s-2 -10.333 -2 -13c-44 0 -93.667 11.333 -149 34c-67.333 27.333 -101 58.666 -101 93.999c0 12 2 23.667 6 35c13.333 0 32 -9.33301 56 -28c55.333 -44 85.5 -66.5 90.5 -67.5
s13.833 -2.33301 26.5 -4s23.5 -3.33398 32.5 -5.00098s17.167 -4.16699 24.5 -7.5c12 -6 18 -14.333 18 -25z" />
    <glyph glyph-name="Eacute" unicode="&#xc9;" horiz-adv-x="477" 
d="M477 507c-11.333 -2.66699 -23.334 -4.33398 -36.001 -5.00098s-27.667 -1 -45 -1c-72.667 0 -120 -3.33301 -142 -10c-46 -14 -69 -47 -69 -99c0 -19.333 2 -33.666 6 -42.999c6.66699 -15.333 18.667 -23 36 -23c16 0 39.333 6.83301 70 20.5s53.334 20.5 68.001 20.5
c21.333 0 36 -10.667 44 -32l-156 -53c-53.333 -25.333 -80 -65.666 -80 -120.999c0 -21.333 2 -43.333 6 -66s9.33301 -48 16 -76l112 92c54 40.667 94.667 61 122 61c11.333 0 20.833 -1.16699 28.5 -3.5s11.5 -7.5 11.5 -15.5c0 -3.33301 -2.83301 -8.83301 -8.5 -16.5
s-10.167 -12.5 -13.5 -14.5c-10.667 -10.667 -30.334 -23 -59.001 -37s-49.5 -26.5 -62.5 -37.5s-25.333 -22 -37 -33l-35.5 -33.5c-17.333 -14.667 -31.5 -24.5 -42.5 -29.5s-21.833 -7.5 -32.5 -7.5c-23.333 0 -39.5 9.83301 -48.5 29.5s-13.5 45.5 -13.5 77.5
c0 14.667 1.16699 36 3.5 64s3.5 42.667 3.5 44c0 22 -3 40 -9 54s-18 26 -36 36c32 41.333 48 86 48 134c0 10.667 -6.83301 22.667 -20.5 36s-21.5 23.666 -23.5 30.999c10 34 56 61.333 138 82c63.333 16 120.333 24 171 24c22.667 0 40.834 -3.33301 54.501 -10
s24.167 -19.667 31.5 -39zM411.999 764c-25.333 -43.333 -46.334 -74.332 -63.001 -92.999c-28 -30.667 -59.333 -49.334 -94 -56.001c-3.33301 9.33301 -5.66602 16.5 -6.99902 21.5s-2 9.83301 -2 14.5c0 7.33301 2.66699 15.333 8 24l68 76l29 52
c7.33301 13.333 14 23.333 20 30c10.667 12 20.667 18 30 18c3.33301 0 7 -1 11 -3c12.667 -7.33301 19 -18 19 -32c0 -7.33301 -0.833008 -13.5 -2.5 -18.5s-7.16699 -16.167 -16.5 -33.5z" />
    <glyph glyph-name="Ecircumflex" unicode="&#xca;" horiz-adv-x="477" 
d="M477 507c-11.333 -2.66699 -23.334 -4.33398 -36.001 -5.00098s-27.667 -1 -45 -1c-72.667 0 -120 -3.33301 -142 -10c-46 -14 -69 -47 -69 -99c0 -19.333 2 -33.666 6 -42.999c6.66699 -15.333 18.667 -23 36 -23c16 0 39.333 6.83301 70 20.5s53.334 20.5 68.001 20.5
c21.333 0 36 -10.667 44 -32l-156 -53c-53.333 -25.333 -80 -65.666 -80 -120.999c0 -21.333 2 -43.333 6 -66s9.33301 -48 16 -76l112 92c54 40.667 94.667 61 122 61c11.333 0 20.833 -1.16699 28.5 -3.5s11.5 -7.5 11.5 -15.5c0 -3.33301 -2.83301 -8.83301 -8.5 -16.5
s-10.167 -12.5 -13.5 -14.5c-10.667 -10.667 -30.334 -23 -59.001 -37s-49.5 -26.5 -62.5 -37.5s-25.333 -22 -37 -33l-35.5 -33.5c-17.333 -14.667 -31.5 -24.5 -42.5 -29.5s-21.833 -7.5 -32.5 -7.5c-23.333 0 -39.5 9.83301 -48.5 29.5s-13.5 45.5 -13.5 77.5
c0 14.667 1.16699 36 3.5 64s3.5 42.667 3.5 44c0 22 -3 40 -9 54s-18 26 -36 36c32 41.333 48 86 48 134c0 10.667 -6.83301 22.667 -20.5 36s-21.5 23.666 -23.5 30.999c10 34 56 61.333 138 82c63.333 16 120.333 24 171 24c22.667 0 40.834 -3.33301 54.501 -10
s24.167 -19.667 31.5 -39zM391.999 629c0 -7.33301 -3.16895 -12.999 -9.50195 -16.999s-14.166 -6 -23.499 -6c-6 0 -12 1.66699 -18 5c-2 0.666992 -5 3 -9 7l-86 134c-10.667 -8 -23 -25.667 -37 -53c-25.333 -48 -47 -72 -65 -72c-9.33301 0 -16.666 1.5 -21.999 4.5
s-8 8.5 -8 16.5c0 4.66699 13.5 31.5 40.5 80.5s44.167 77.333 51.5 85s12.666 12.5 15.999 14.5c7.33301 4.66699 15 7 23 7c22.667 0 41.667 -16.333 57 -49l30 -71c20.667 -23.333 35.834 -41.333 45.501 -54s14.5 -23.334 14.5 -32.001z" />
    <glyph glyph-name="Edieresis" unicode="&#xcb;" horiz-adv-x="477" 
d="M477 507c-11.333 -2.66699 -23.334 -4.33398 -36.001 -5.00098s-27.667 -1 -45 -1c-72.667 0 -120 -3.33301 -142 -10c-46 -14 -69 -47 -69 -99c0 -19.333 2 -33.666 6 -42.999c6.66699 -15.333 18.667 -23 36 -23c16 0 39.333 6.83301 70 20.5s53.334 20.5 68.001 20.5
c21.333 0 36 -10.667 44 -32l-156 -53c-53.333 -25.333 -80 -65.666 -80 -120.999c0 -21.333 2 -43.333 6 -66s9.33301 -48 16 -76l112 92c54 40.667 94.667 61 122 61c11.333 0 20.833 -1.16699 28.5 -3.5s11.5 -7.5 11.5 -15.5c0 -3.33301 -2.83301 -8.83301 -8.5 -16.5
s-10.167 -12.5 -13.5 -14.5c-10.667 -10.667 -30.334 -23 -59.001 -37s-49.5 -26.5 -62.5 -37.5s-25.333 -22 -37 -33l-35.5 -33.5c-17.333 -14.667 -31.5 -24.5 -42.5 -29.5s-21.833 -7.5 -32.5 -7.5c-23.333 0 -39.5 9.83301 -48.5 29.5s-13.5 45.5 -13.5 77.5
c0 14.667 1.16699 36 3.5 64s3.5 42.667 3.5 44c0 22 -3 40 -9 54s-18 26 -36 36c32 41.333 48 86 48 134c0 10.667 -6.83301 22.667 -20.5 36s-21.5 23.666 -23.5 30.999c10 34 56 61.333 138 82c63.333 16 120.333 24 171 24c22.667 0 40.834 -3.33301 54.501 -10
s24.167 -19.667 31.5 -39zM437.999 687c0 -20 -7.5 -38.668 -22.5 -56.001s-32.833 -26 -53.5 -26c-17.333 0 -31.833 6.5 -43.5 19.5s-17.5 28.5 -17.5 46.5c0 20.667 8.33301 39 25 55s35.667 24 57 24c16.667 0 30 -6.16699 40 -18.5s15 -27.166 15 -44.499z
M249.999 690.999c0 -20 -7.5 -38.668 -22.5 -56.001s-32.833 -26 -53.5 -26c-17.333 0 -31.833 6.5 -43.5 19.5s-17.5 28.5 -17.5 46.5c0 20.667 8.33301 39 25 55s35.667 24 57 24c16.667 0 30 -6.16699 40 -18.5s15 -27.166 15 -44.499z" />
    <glyph glyph-name="Igrave" unicode="&#xcc;" horiz-adv-x="682" 
d="M682 38c-19.333 -6.66699 -38.5039 -11.6699 -57.5039 -15.0029s-39.833 -6 -62.5 -8s-60.5 -4.66699 -113.5 -8s-95.167 -8.66602 -126.5 -15.999c-10 -2.66699 -38.667 -12.667 -86 -30c-36 -13.333 -65.333 -20 -88 -20c-28.667 0 -52 10 -70 30
c70 18.667 124.667 33.667 164 45c73.333 21.333 110 50 110 86c0 50.667 -3.5 108 -10.5 172l-20.5 186l-181 -44c-12 -2.66699 -23.833 -0.5 -35.5 6.5s-20.5 16.167 -26.5 27.5c32 13.333 112.833 34.666 242.5 63.999s209.5 44 239.5 44
c20.667 0 37.334 -3.66699 50.001 -11s20.334 -20.666 23.001 -39.999c-116.667 0 -187.667 -15.667 -213 -47c-20 -25.333 -30 -98.666 -30 -219.999c0 -53.333 3.66699 -91.666 11 -114.999c13.333 -42 40 -63 80 -63c14.667 0 31.334 1.66699 50.001 5
c45.333 8 74 12 86 12c17.333 0 31.333 -2.83301 42 -8.5s18.334 -16.5 23.001 -32.5zM352.996 630.997c0 -2.66699 -0.666992 -6.99805 -2 -12.998s-2 -10.333 -2 -13c-44 0 -93.667 11.333 -149 34c-67.333 27.333 -101 58.666 -101 93.999c0 12 2 23.667 6 35
c13.333 0 32 -9.33301 56 -28c55.333 -44 85.5 -66.5 90.5 -67.5s13.833 -2.33301 26.5 -4s23.5 -3.33398 32.5 -5.00098s17.167 -4.16699 24.5 -7.5c12 -6 18 -14.333 18 -25z" />
    <glyph glyph-name="Iacute" unicode="&#xcd;" horiz-adv-x="682" 
d="M682 38c-19.333 -6.66699 -38.5039 -11.6699 -57.5039 -15.0029s-39.833 -6 -62.5 -8s-60.5 -4.66699 -113.5 -8s-95.167 -8.66602 -126.5 -15.999c-10 -2.66699 -38.667 -12.667 -86 -30c-36 -13.333 -65.333 -20 -88 -20c-28.667 0 -52 10 -70 30
c70 18.667 124.667 33.667 164 45c73.333 21.333 110 50 110 86c0 50.667 -3.5 108 -10.5 172l-20.5 186l-181 -44c-12 -2.66699 -23.833 -0.5 -35.5 6.5s-20.5 16.167 -26.5 27.5c32 13.333 112.833 34.666 242.5 63.999s209.5 44 239.5 44
c20.667 0 37.334 -3.66699 50.001 -11s20.334 -20.666 23.001 -39.999c-116.667 0 -187.667 -15.667 -213 -47c-20 -25.333 -30 -98.666 -30 -219.999c0 -53.333 3.66699 -91.666 11 -114.999c13.333 -42 40 -63 80 -63c14.667 0 31.334 1.66699 50.001 5
c45.333 8 74 12 86 12c17.333 0 31.333 -2.83301 42 -8.5s18.334 -16.5 23.001 -32.5zM506.996 757.997c-25.333 -43.333 -46.334 -74.332 -63.001 -92.999c-28 -30.667 -59.333 -49.334 -94 -56.001c-3.33301 9.33301 -5.66602 16.5 -6.99902 21.5s-2 9.83301 -2 14.5
c0 7.33301 2.66699 15.333 8 24l68 76l29 52c7.33301 13.333 14 23.333 20 30c10.667 12 20.667 18 30 18c3.33301 0 7 -1 11 -3c12.667 -7.33301 19 -18 19 -32c0 -7.33301 -0.833008 -13.5 -2.5 -18.5s-7.16699 -16.167 -16.5 -33.5z" />
    <glyph glyph-name="Icircumflex" unicode="&#xce;" horiz-adv-x="682" 
d="M682 38c-19.333 -6.66699 -38.5039 -11.6699 -57.5039 -15.0029s-39.833 -6 -62.5 -8s-60.5 -4.66699 -113.5 -8s-95.167 -8.66602 -126.5 -15.999c-10 -2.66699 -38.667 -12.667 -86 -30c-36 -13.333 -65.333 -20 -88 -20c-28.667 0 -52 10 -70 30
c70 18.667 124.667 33.667 164 45c73.333 21.333 110 50 110 86c0 50.667 -3.5 108 -10.5 172l-20.5 186l-181 -44c-12 -2.66699 -23.833 -0.5 -35.5 6.5s-20.5 16.167 -26.5 27.5c32 13.333 112.833 34.666 242.5 63.999s209.5 44 239.5 44
c20.667 0 37.334 -3.66699 50.001 -11s20.334 -20.666 23.001 -39.999c-116.667 0 -187.667 -15.667 -213 -47c-20 -25.333 -30 -98.666 -30 -219.999c0 -53.333 3.66699 -91.666 11 -114.999c13.333 -42 40 -63 80 -63c14.667 0 31.334 1.66699 50.001 5
c45.333 8 74 12 86 12c17.333 0 31.333 -2.83301 42 -8.5s18.334 -16.5 23.001 -32.5zM492.996 626.997c0 -7.33301 -3.16895 -12.999 -9.50195 -16.999s-14.166 -6 -23.499 -6c-6 0 -12 1.66699 -18 5c-2 0.666992 -5 3 -9 7l-86 134c-10.667 -8 -23 -25.667 -37 -53
c-25.333 -48 -47 -72 -65 -72c-9.33301 0 -16.666 1.5 -21.999 4.5s-8 8.5 -8 16.5c0 4.66699 13.5 31.5 40.5 80.5s44.167 77.333 51.5 85s12.666 12.5 15.999 14.5c7.33301 4.66699 15 7 23 7c22.667 0 41.667 -16.333 57 -49l30 -71
c20.667 -23.333 35.834 -41.333 45.501 -54s14.5 -23.334 14.5 -32.001z" />
    <glyph glyph-name="Idieresis" unicode="&#xcf;" horiz-adv-x="682" 
d="M682 38c-19.333 -6.66699 -38.5039 -11.6699 -57.5039 -15.0029s-39.833 -6 -62.5 -8s-60.5 -4.66699 -113.5 -8s-95.167 -8.66602 -126.5 -15.999c-10 -2.66699 -38.667 -12.667 -86 -30c-36 -13.333 -65.333 -20 -88 -20c-28.667 0 -52 10 -70 30
c70 18.667 124.667 33.667 164 45c73.333 21.333 110 50 110 86c0 50.667 -3.5 108 -10.5 172l-20.5 186l-181 -44c-12 -2.66699 -23.833 -0.5 -35.5 6.5s-20.5 16.167 -26.5 27.5c32 13.333 112.833 34.666 242.5 63.999s209.5 44 239.5 44
c20.667 0 37.334 -3.66699 50.001 -11s20.334 -20.666 23.001 -39.999c-116.667 0 -187.667 -15.667 -213 -47c-20 -25.333 -30 -98.666 -30 -219.999c0 -53.333 3.66699 -91.666 11 -114.999c13.333 -42 40 -63 80 -63c14.667 0 31.334 1.66699 50.001 5
c45.333 8 74 12 86 12c17.333 0 31.333 -2.83301 42 -8.5s18.334 -16.5 23.001 -32.5zM534.996 690.997c0 -20 -7.5 -38.668 -22.5 -56.001s-32.833 -26 -53.5 -26c-17.333 0 -31.833 6.5 -43.5 19.5s-17.5 28.5 -17.5 46.5c0 20.667 8.33301 39 25 55s35.667 24 57 24
c16.667 0 30 -6.16699 40 -18.5s15 -27.166 15 -44.499zM346.996 694.996c0 -20 -7.5 -38.668 -22.5 -56.001s-32.833 -26 -53.5 -26c-17.333 0 -31.833 6.5 -43.5 19.5s-17.5 28.5 -17.5 46.5c0 20.667 8.33301 39 25 55s35.667 24 57 24c16.667 0 30 -6.16699 40 -18.5
s15 -27.166 15 -44.499z" />
    <glyph glyph-name="Eth" unicode="&#xd0;" horiz-adv-x="536" 
d="M565 364c0 -55.333 -18.333 -106.668 -55 -154.001c-28.667 -36.667 -72 -74.667 -130 -114c-24.667 -16.667 -73.334 -45.667 -146.001 -87l-33 -19c-16.667 -8.66699 -28 -13 -34 -13c-32 0 -52 60.333 -60 181c-3.33301 48.667 -5 106.667 -5 174h-11
c-10 0 -19.333 -0.666992 -28 -2c-30 -4.66699 -46 -7 -48 -7c-13.333 0 -23.333 3.83301 -30 11.5s-11.667 19.5 -15 35.5c20.667 6.66699 35.667 11 45 13c16.667 4 32 6 46 6l41 -3l1 47v28c0 56.667 2.66699 101.334 8 134.001c9.33301 55.333 26 83 50 83
c4.66699 0 13.334 -1.66699 26.001 -5c5.33301 -1.33301 14.333 -4 27 -8l155 -36c57.333 -26 103.333 -61 138 -105c38.667 -48.667 58 -102 58 -160zM502 361.998c0 62 -24.166 117.501 -72.499 166.501s-104.5 73.5 -168.5 73.5c-12 0 -23.5 -1.83301 -34.5 -5.5
s-20.167 -9.16699 -27.5 -16.5c-9.33301 -10 -17.333 -34.833 -24 -74.5s-10 -81.5 -10 -125.5l23 -1c8 0 21.5 1.83301 40.5 5.5s31.833 5.5 38.5 5.5c9.33301 0 16.833 -1.16699 22.5 -3.5s8.5 -7.83301 8.5 -16.5c0 -20 -8.66699 -34.333 -26 -43
c-13.333 -6.66699 -30.333 -10 -51 -10c-6.66699 0 -13.334 0.333008 -20.001 1s-19.667 2.33398 -39 5.00098l-2 -83c0 -38 2.33301 -70.833 7 -98.5s14 -55.834 28 -84.501h9l193 118c70 53.333 105 115.666 105 186.999z" />
    <glyph glyph-name="Ntilde" unicode="&#xd1;" horiz-adv-x="507" 
d="M497 527c0 -154.667 -8.50098 -281 -25.501 -379s-41.5 -147 -73.5 -147c-26 0 -51 22.333 -75 67c-4 7.33301 -24 53.333 -60 138c-24 56.667 -46.667 93.334 -68 110.001c-8 -32 -13.167 -63.5 -15.5 -94.5s-3.5 -68.5 -3.5 -112.5c0 -20.667 -1.66699 -36 -5 -46
c-6 -17.333 -17.333 -26 -34 -26c-15.333 0 -26.333 5.16699 -33 15.5s-10 23.833 -10 40.5c0 18.667 5 91.5 15 218.5s16.833 195 20.5 204s8.33398 16.333 14.001 22s13.5 8.5 23.5 8.5c18.667 0 43 -32 73 -96c14.667 -31.333 40 -94.333 76 -189
c28.667 -76 48 -120.333 58 -133c4.66699 -0.666992 10 -2 16 -4c2.66699 -0.666992 5 -1 7 -1c0.666992 0 4.66699 3.66699 12 11c0 17.333 2.33301 38.333 7 63c10.667 57.333 16 93.666 16 108.999c0 22 -1.33301 49.333 -4 82c-6 74 -9 120.333 -9 139c0 14 3 27 9 39
s15.667 18 29 18s23.333 -6 30 -18s10 -25 10 -39zM466.999 775c0 -19.333 -12.667 -42.001 -38 -68.001s-50.333 -39 -75 -39c-16 0 -34.333 15 -55 45c-10 14.667 -20.667 22 -32 22c-16 0 -35.833 -11.833 -59.5 -35.5s-39.5 -35.5 -47.5 -35.5c-10 0 -15 6 -15 18
c0 12.667 15.5 29.834 46.5 51.501s55.167 32.5 72.5 32.5c26.667 0 49.334 -15 68.001 -45c9.33301 -14.667 17.666 -22 24.999 -22c17.333 0 34.333 14.833 51 44.5s32 46.167 46 49.5c8.66699 -2 13 -8 13 -18z" />
    <glyph glyph-name="Ograve" unicode="&#xd2;" 
d="M515 368c0 -96.667 -19.333 -178.33 -58 -244.997c-48 -82.667 -117.333 -124 -208 -124c-56.667 0 -99.667 22.333 -129 67c-24.667 37.333 -37 85.666 -37 144.999c0 61.333 11 141 33 239c26 116.667 55.333 187 88 211c5.33301 4 17.833 8.5 37.5 13.5
s33.167 7.5 40.5 7.5c15.333 0 31 -7.33301 47 -22c20.667 -18.667 34.667 -29.334 42 -32.001c3.33301 2.66699 6 4 8 4h11c42.667 0 75.667 -35.333 99 -106c17.333 -52.667 26 -105.334 26 -158.001zM458 392.004c0 34.667 -12.334 68.666 -37.001 101.999
c-9.33301 12.667 -55.666 55.334 -138.999 128.001c-43.333 -42.667 -78.666 -105 -105.999 -187c-24.667 -74 -37 -145.333 -37 -214c0 -43.333 10 -80.333 30 -111c23.333 -36 56 -54 98 -54c65.333 0 115.666 42.333 150.999 127c26.667 64 40 133.667 40 209z
M336.999 758.003c0 -2.66699 -0.666992 -6.99805 -2 -12.998s-2 -10.333 -2 -13c-44 0 -93.667 11.333 -149 34c-67.333 27.333 -101 58.666 -101 93.999c0 12 2 23.667 6 35c13.333 0 32 -9.33301 56 -28c55.333 -44 85.5 -66.5 90.5 -67.5s13.833 -2.33301 26.5 -4
s23.5 -3.33398 32.5 -5.00098s17.167 -4.16699 24.5 -7.5c12 -6 18 -14.333 18 -25z" />
    <glyph glyph-name="Oacute" unicode="&#xd3;" 
d="M515 368c0 -96.667 -19.333 -178.33 -58 -244.997c-48 -82.667 -117.333 -124 -208 -124c-56.667 0 -99.667 22.333 -129 67c-24.667 37.333 -37 85.666 -37 144.999c0 61.333 11 141 33 239c26 116.667 55.333 187 88 211c5.33301 4 17.833 8.5 37.5 13.5
s33.167 7.5 40.5 7.5c15.333 0 31 -7.33301 47 -22c20.667 -18.667 34.667 -29.334 42 -32.001c3.33301 2.66699 6 4 8 4h11c42.667 0 75.667 -35.333 99 -106c17.333 -52.667 26 -105.334 26 -158.001zM458 392.004c0 34.667 -12.334 68.666 -37.001 101.999
c-9.33301 12.667 -55.666 55.334 -138.999 128.001c-43.333 -42.667 -78.666 -105 -105.999 -187c-24.667 -74 -37 -145.333 -37 -214c0 -43.333 10 -80.333 30 -111c23.333 -36 56 -54 98 -54c65.333 0 115.666 42.333 150.999 127c26.667 64 40 133.667 40 209z
M423.999 885.003c-25.333 -43.333 -46.334 -74.332 -63.001 -92.999c-28 -30.667 -59.333 -49.334 -94 -56.001c-3.33301 9.33301 -5.66602 16.5 -6.99902 21.5s-2 9.83301 -2 14.5c0 7.33301 2.66699 15.333 8 24l68 76l29 52c7.33301 13.333 14 23.333 20 30
c10.667 12 20.667 18 30 18c3.33301 0 7 -1 11 -3c12.667 -7.33301 19 -18 19 -32c0 -7.33301 -0.833008 -13.5 -2.5 -18.5s-7.16699 -16.167 -16.5 -33.5z" />
    <glyph glyph-name="Ocircumflex" unicode="&#xd4;" 
d="M515 368c0 -96.667 -19.333 -178.33 -58 -244.997c-48 -82.667 -117.333 -124 -208 -124c-56.667 0 -99.667 22.333 -129 67c-24.667 37.333 -37 85.666 -37 144.999c0 61.333 11 141 33 239c26 116.667 55.333 187 88 211c5.33301 4 17.833 8.5 37.5 13.5
s33.167 7.5 40.5 7.5c15.333 0 31 -7.33301 47 -22c20.667 -18.667 34.667 -29.334 42 -32.001c3.33301 2.66699 6 4 8 4h11c42.667 0 75.667 -35.333 99 -106c17.333 -52.667 26 -105.334 26 -158.001zM458 392.004c0 34.667 -12.334 68.666 -37.001 101.999
c-9.33301 12.667 -55.666 55.334 -138.999 128.001c-43.333 -42.667 -78.666 -105 -105.999 -187c-24.667 -74 -37 -145.333 -37 -214c0 -43.333 10 -80.333 30 -111c23.333 -36 56 -54 98 -54c65.333 0 115.666 42.333 150.999 127c26.667 64 40 133.667 40 209z
M417.999 745.003c0 -7.33301 -3.16895 -12.999 -9.50195 -16.999s-14.166 -6 -23.499 -6c-6 0 -12 1.66699 -18 5c-2 0.666992 -5 3 -9 7l-86 134c-10.667 -8 -23 -25.667 -37 -53c-25.333 -48 -47 -72 -65 -72c-9.33301 0 -16.666 1.5 -21.999 4.5s-8 8.5 -8 16.5
c0 4.66699 13.5 31.5 40.5 80.5s44.167 77.333 51.5 85s12.666 12.5 15.999 14.5c7.33301 4.66699 15 7 23 7c22.667 0 41.667 -16.333 57 -49l30 -71c20.667 -23.333 35.834 -41.333 45.501 -54s14.5 -23.334 14.5 -32.001z" />
    <glyph glyph-name="Otilde" unicode="&#xd5;" 
d="M515 368c0 -96.667 -19.333 -178.33 -58 -244.997c-48 -82.667 -117.333 -124 -208 -124c-56.667 0 -99.667 22.333 -129 67c-24.667 37.333 -37 85.666 -37 144.999c0 61.333 11 141 33 239c26 116.667 55.333 187 88 211c5.33301 4 17.833 8.5 37.5 13.5
s33.167 7.5 40.5 7.5c15.333 0 31 -7.33301 47 -22c20.667 -18.667 34.667 -29.334 42 -32.001c3.33301 2.66699 6 4 8 4h11c42.667 0 75.667 -35.333 99 -106c17.333 -52.667 26 -105.334 26 -158.001zM458 392.004c0 34.667 -12.334 68.666 -37.001 101.999
c-9.33301 12.667 -55.666 55.334 -138.999 128.001c-43.333 -42.667 -78.666 -105 -105.999 -187c-24.667 -74 -37 -145.333 -37 -214c0 -43.333 10 -80.333 30 -111c23.333 -36 56 -54 98 -54c65.333 0 115.666 42.333 150.999 127c26.667 64 40 133.667 40 209z
M449.999 845.003c0 -19.333 -12.667 -42.001 -38 -68.001s-50.333 -39 -75 -39c-16 0 -34.333 15 -55 45c-10 14.667 -20.667 22 -32 22c-16 0 -35.833 -11.833 -59.5 -35.5s-39.5 -35.5 -47.5 -35.5c-10 0 -15 6 -15 18c0 12.667 15.5 29.834 46.5 51.501
s55.167 32.5 72.5 32.5c26.667 0 49.334 -15 68.001 -45c9.33301 -14.667 17.666 -22 24.999 -22c17.333 0 34.333 14.833 51 44.5s32 46.167 46 49.5c8.66699 -2 13 -8 13 -18z" />
    <glyph glyph-name="Odieresis" unicode="&#xd6;" 
d="M515 368c0 -96.667 -19.333 -178.33 -58 -244.997c-48 -82.667 -117.333 -124 -208 -124c-56.667 0 -99.667 22.333 -129 67c-24.667 37.333 -37 85.666 -37 144.999c0 61.333 11 141 33 239c26 116.667 55.333 187 88 211c5.33301 4 17.833 8.5 37.5 13.5
s33.167 7.5 40.5 7.5c15.333 0 31 -7.33301 47 -22c20.667 -18.667 34.667 -29.334 42 -32.001c3.33301 2.66699 6 4 8 4h11c42.667 0 75.667 -35.333 99 -106c17.333 -52.667 26 -105.334 26 -158.001zM458 392.004c0 34.667 -12.334 68.666 -37.001 101.999
c-9.33301 12.667 -55.666 55.334 -138.999 128.001c-43.333 -42.667 -78.666 -105 -105.999 -187c-24.667 -74 -37 -145.333 -37 -214c0 -43.333 10 -80.333 30 -111c23.333 -36 56 -54 98 -54c65.333 0 115.666 42.333 150.999 127c26.667 64 40 133.667 40 209z
M441.999 806.003c0 -20 -7.5 -38.668 -22.5 -56.001s-32.833 -26 -53.5 -26c-17.333 0 -31.833 6.5 -43.5 19.5s-17.5 28.5 -17.5 46.5c0 20.667 8.33301 39 25 55s35.667 24 57 24c16.667 0 30 -6.16699 40 -18.5s15 -27.166 15 -44.499zM253.999 810.002
c0 -20 -7.5 -38.668 -22.5 -56.001s-32.833 -26 -53.5 -26c-17.333 0 -31.833 6.5 -43.5 19.5s-17.5 28.5 -17.5 46.5c0 20.667 8.33301 39 25 55s35.667 24 57 24c16.667 0 30 -6.16699 40 -18.5s15 -27.166 15 -44.499z" />
    <glyph glyph-name="multiply" unicode="&#xd7;" horiz-adv-x="429" 
d="M379 571c2 -8 3.00195 -15.3311 3.00195 -21.998c0 -14 -4.33301 -27.333 -13 -40c-1.33301 -2 -19.333 -20.333 -54 -55c-8 -8 -14.667 -15.833 -20 -23.5s-9.33301 -16.167 -12 -25.5c5.33301 -14.667 17 -29.334 35 -44.001l44 -36c3.33301 -3.33301 6.33301 -7 9 -11
c5.33301 -8.66699 8 -17 8 -25c0 -5.33301 -2.5 -10.5 -7.5 -15.5s-11.167 -7.5 -18.5 -7.5c-12.667 0 -28.334 8.66699 -47.001 26l-36 37c-8 8 -15.333 13.833 -22 17.5s-13.667 5.5 -21 5.5c-12 0 -22.833 -4.83301 -32.5 -14.5s-24.5 -30.5 -44.5 -62.5
c-9.33301 -14.667 -18.333 -26.334 -27 -35.001c-12 -12 -24.333 -18 -37 -18c-10 0 -19.333 4.33301 -28 13c-4.66699 4.66699 -7 10.334 -7 17.001c0 14.667 11.667 33.667 35 57c27.333 24 44.166 39.333 50.499 46s11.333 13.334 15 20.001s5.5 14 5.5 22
c0 11.333 -4.66699 21.666 -14 30.999l-61 49c-15.333 15.333 -23 30.666 -23 45.999c0 7.33301 2 15 6 23l69 -55c30.667 -24 53.667 -36 69 -36c16 0 53 29 111 87c10 10 19.667 17.333 29 22s21.333 7 36 7z" />
    <glyph glyph-name="Oslash" unicode="&#xd8;" 
d="M526 673c-1.33301 -9.33301 -6.33008 -20.333 -14.9971 -33c-1.33301 -2 -5.33301 -7 -12 -15l-33 -43c16 -27.333 28.667 -65 38 -113c7.33301 -38 11 -71.667 11 -101c0 -96.667 -19.333 -178.334 -58 -245.001c-48 -82.667 -117.333 -124 -208 -124
c-24.667 0 -46.167 4 -64.5 12s-34.5 19.667 -48.5 35l-16 -30c-6.66699 -11.333 -12.834 -19.333 -18.501 -24s-11.167 -8.66699 -16.5 -12s-11 -6.33301 -17 -9c-6.66699 5.33301 -9 14 -7 26c1.33301 8 5.66602 19.833 12.999 35.5s17.666 36.5 30.999 62.5
c-8 16.667 -13.667 34.834 -17 54.501s-5 40.167 -5 61.5c0 61.333 11 141 33 239c26 116.667 55.333 187 88 211c5.33301 4 17.833 8.5 37.5 13.5s33.167 7.5 40.5 7.5c13.333 0 25.666 -4.33301 36.999 -13l53 -41l4 3l14 1c16.667 0 31.334 -4.33301 44.001 -13
c40 55.333 64 83 72 83c6 0 11.167 -2.66699 15.5 -8s5.83301 -12.333 4.5 -21zM379.003 540c-15.333 15.333 -31.168 29.5 -47.501 42.5l-48.5 39.5c-43.333 -42.667 -78.666 -105 -105.999 -187c-24.667 -74 -37 -145.333 -37 -214c0 -17.333 2 -35 6 -53
c32 56 70 119 114 189zM459.001 392c0 20.667 -4 40.5 -12 59.5s-19.333 36.833 -34 53.5c-44 -63.333 -85.333 -130 -124 -200l-119 -194c10.667 -16 24.334 -29.167 41.001 -39.5s35.667 -15.5 57 -15.5c65.333 0 115.666 42.333 150.999 127c26.667 64 40 133.667 40 209
z" />
    <glyph glyph-name="Ugrave" unicode="&#xd9;" horiz-adv-x="711" 
d="M704 8c0 -20 -9.66699 -29.9971 -29 -29.9971c-26.667 0 -51.334 47.667 -74.001 143c-20 105.333 -32 167.333 -36 186c-39.333 -101.333 -78.166 -178.5 -116.499 -231.5s-74.166 -79.5 -107.499 -79.5c-28.667 0 -51.334 15.333 -68.001 46c-14 26 -21 54.333 -21 85
c0 36 4.66699 80.333 14 133c20.667 116 31 189 31 219c0 18.667 -1.66699 34.667 -5 48l-109 -73c-71.333 -46.667 -113.333 -71.667 -126 -75c-13.333 4 -22.5 7.66699 -27.5 11s-11.833 10.666 -20.5 21.999c35.333 16 76 40.333 122 73
c102.667 72 169.334 115 200.001 129l35 -22c9.33301 -8 14 -20 14 -36c0 -39.333 -10.167 -99.333 -30.5 -180s-30.5 -141 -30.5 -181c0 -45.333 7.33301 -88 22 -128c42 14.667 86.333 80 133 196c38 95.333 62 176.666 72 243.999c2 21.333 4.33301 43 7 65
c6 31.333 16.333 47 31 47c19.333 0 33.333 -15 42 -45c6.66699 -24 10 -55.667 10 -95c0 -18.667 -0.333008 -34.834 -1 -48.501s-1.33398 -26.5 -2.00098 -38.5c0 -32.667 1.33301 -65.5 4 -98.5s6.66699 -73.5 12 -121.5c2 -20 11.667 -50.5 29 -91.5
s26 -65.167 26 -72.5zM481 705.003c0 -2.66699 -0.666992 -6.99805 -2 -12.998s-2 -10.333 -2 -13c-44 0 -93.667 11.333 -149 34c-67.333 27.333 -101 58.666 -101 93.999c0 12 2 23.667 6 35c13.333 0 32 -9.33301 56 -28c55.333 -44 85.5 -66.5 90.5 -67.5
s13.833 -2.33301 26.5 -4s23.5 -3.33398 32.5 -5.00098s17.167 -4.16699 24.5 -7.5c12 -6 18 -14.333 18 -25z" />
    <glyph glyph-name="Uacute" unicode="&#xda;" horiz-adv-x="711" 
d="M704 8c0 -20 -9.66699 -29.9971 -29 -29.9971c-26.667 0 -51.334 47.667 -74.001 143c-20 105.333 -32 167.333 -36 186c-39.333 -101.333 -78.166 -178.5 -116.499 -231.5s-74.166 -79.5 -107.499 -79.5c-28.667 0 -51.334 15.333 -68.001 46c-14 26 -21 54.333 -21 85
c0 36 4.66699 80.333 14 133c20.667 116 31 189 31 219c0 18.667 -1.66699 34.667 -5 48l-109 -73c-71.333 -46.667 -113.333 -71.667 -126 -75c-13.333 4 -22.5 7.66699 -27.5 11s-11.833 10.666 -20.5 21.999c35.333 16 76 40.333 122 73
c102.667 72 169.334 115 200.001 129l35 -22c9.33301 -8 14 -20 14 -36c0 -39.333 -10.167 -99.333 -30.5 -180s-30.5 -141 -30.5 -181c0 -45.333 7.33301 -88 22 -128c42 14.667 86.333 80 133 196c38 95.333 62 176.666 72 243.999c2 21.333 4.33301 43 7 65
c6 31.333 16.333 47 31 47c19.333 0 33.333 -15 42 -45c6.66699 -24 10 -55.667 10 -95c0 -18.667 -0.333008 -34.834 -1 -48.501s-1.33398 -26.5 -2.00098 -38.5c0 -32.667 1.33301 -65.5 4 -98.5s6.66699 -73.5 12 -121.5c2 -20 11.667 -50.5 29 -91.5
s26 -65.167 26 -72.5zM636 814.003c-25.333 -43.333 -46.334 -74.332 -63.001 -92.999c-28 -30.667 -59.333 -49.334 -94 -56.001c-3.33301 9.33301 -5.66602 16.5 -6.99902 21.5s-2 9.83301 -2 14.5c0 7.33301 2.66699 15.333 8 24l68 76l29 52
c7.33301 13.333 14 23.333 20 30c10.667 12 20.667 18 30 18c3.33301 0 7 -1 11 -3c12.667 -7.33301 19 -18 19 -32c0 -7.33301 -0.833008 -13.5 -2.5 -18.5s-7.16699 -16.167 -16.5 -33.5z" />
    <glyph glyph-name="Ucircumflex" unicode="&#xdb;" horiz-adv-x="711" 
d="M704 8c0 -20 -9.66699 -29.9971 -29 -29.9971c-26.667 0 -51.334 47.667 -74.001 143c-20 105.333 -32 167.333 -36 186c-39.333 -101.333 -78.166 -178.5 -116.499 -231.5s-74.166 -79.5 -107.499 -79.5c-28.667 0 -51.334 15.333 -68.001 46c-14 26 -21 54.333 -21 85
c0 36 4.66699 80.333 14 133c20.667 116 31 189 31 219c0 18.667 -1.66699 34.667 -5 48l-109 -73c-71.333 -46.667 -113.333 -71.667 -126 -75c-13.333 4 -22.5 7.66699 -27.5 11s-11.833 10.666 -20.5 21.999c35.333 16 76 40.333 122 73
c102.667 72 169.334 115 200.001 129l35 -22c9.33301 -8 14 -20 14 -36c0 -39.333 -10.167 -99.333 -30.5 -180s-30.5 -141 -30.5 -181c0 -45.333 7.33301 -88 22 -128c42 14.667 86.333 80 133 196c38 95.333 62 176.666 72 243.999c2 21.333 4.33301 43 7 65
c6 31.333 16.333 47 31 47c19.333 0 33.333 -15 42 -45c6.66699 -24 10 -55.667 10 -95c0 -18.667 -0.333008 -34.834 -1 -48.501s-1.33398 -26.5 -2.00098 -38.5c0 -32.667 1.33301 -65.5 4 -98.5s6.66699 -73.5 12 -121.5c2 -20 11.667 -50.5 29 -91.5
s26 -65.167 26 -72.5zM619 696.003c0 -7.33301 -3.16895 -12.999 -9.50195 -16.999s-14.166 -6 -23.499 -6c-6 0 -12 1.66699 -18 5c-2 0.666992 -5 3 -9 7l-86 134c-10.667 -8 -23 -25.667 -37 -53c-25.333 -48 -47 -72 -65 -72c-9.33301 0 -16.666 1.5 -21.999 4.5
s-8 8.5 -8 16.5c0 4.66699 13.5 31.5 40.5 80.5s44.167 77.333 51.5 85s12.666 12.5 15.999 14.5c7.33301 4.66699 15 7 23 7c22.667 0 41.667 -16.333 57 -49l30 -71c20.667 -23.333 35.834 -41.333 45.501 -54s14.5 -23.334 14.5 -32.001z" />
    <glyph glyph-name="Udieresis" unicode="&#xdc;" horiz-adv-x="711" 
d="M704 8c0 -20 -9.66699 -29.9971 -29 -29.9971c-26.667 0 -51.334 47.667 -74.001 143c-20 105.333 -32 167.333 -36 186c-39.333 -101.333 -78.166 -178.5 -116.499 -231.5s-74.166 -79.5 -107.499 -79.5c-28.667 0 -51.334 15.333 -68.001 46c-14 26 -21 54.333 -21 85
c0 36 4.66699 80.333 14 133c20.667 116 31 189 31 219c0 18.667 -1.66699 34.667 -5 48l-109 -73c-71.333 -46.667 -113.333 -71.667 -126 -75c-13.333 4 -22.5 7.66699 -27.5 11s-11.833 10.666 -20.5 21.999c35.333 16 76 40.333 122 73
c102.667 72 169.334 115 200.001 129l35 -22c9.33301 -8 14 -20 14 -36c0 -39.333 -10.167 -99.333 -30.5 -180s-30.5 -141 -30.5 -181c0 -45.333 7.33301 -88 22 -128c42 14.667 86.333 80 133 196c38 95.333 62 176.666 72 243.999c2 21.333 4.33301 43 7 65
c6 31.333 16.333 47 31 47c19.333 0 33.333 -15 42 -45c6.66699 -24 10 -55.667 10 -95c0 -18.667 -0.333008 -34.834 -1 -48.501s-1.33398 -26.5 -2.00098 -38.5c0 -32.667 1.33301 -65.5 4 -98.5s6.66699 -73.5 12 -121.5c2 -20 11.667 -50.5 29 -91.5
s26 -65.167 26 -72.5zM642 760.003c0 -20 -7.5 -38.668 -22.5 -56.001s-32.833 -26 -53.5 -26c-17.333 0 -31.833 6.5 -43.5 19.5s-17.5 28.5 -17.5 46.5c0 20.667 8.33301 39 25 55s35.667 24 57 24c16.667 0 30 -6.16699 40 -18.5s15 -27.166 15 -44.499zM454 764.002
c0 -20 -7.5 -38.668 -22.5 -56.001s-32.833 -26 -53.5 -26c-17.333 0 -31.833 6.5 -43.5 19.5s-17.5 28.5 -17.5 46.5c0 20.667 8.33301 39 25 55s35.667 24 57 24c16.667 0 30 -6.16699 40 -18.5s15 -27.166 15 -44.499z" />
    <glyph glyph-name="Yacute" unicode="&#xdd;" horiz-adv-x="429" 
d="M475 564c0 -17.333 -10.335 -41.666 -31.002 -72.999c-14 -21.333 -22.333 -35 -25 -41c-24 -55.333 -51.667 -129.333 -83 -222l-45 -136c-2.66699 -7.33301 -5 -21.666 -7 -42.999s-6 -37.333 -12 -48c-8.66699 -16.667 -17 -28.167 -25 -34.5s-16.667 -9.5 -26 -9.5
c-10.667 0 -19.5 3.5 -26.5 10.5s-10.5 15.833 -10.5 26.5c0 13.333 11.333 54.5 34 123.5l35 106.5c4.66699 15.333 -12.166 47.166 -50.499 95.499l-113.5 141.5c-42 52.667 -63 87 -63 103c0 5.33301 3.16699 12.166 9.5 20.499s12.166 12.5 17.499 12.5
c6.66699 0 13.334 -2.33301 20.001 -7c2.66699 -2 8.33398 -7.33301 17.001 -16c12.667 -13.333 26.667 -31.333 42 -54c40.667 -61.333 62.667 -94 66 -98l34 -40l60 -66c30.667 89.333 49.667 142.333 57 159c34 80 64.667 120 92 120c8.66699 0 16.5 -2.83301 23.5 -8.5
s10.5 -13.167 10.5 -22.5zM427.998 812c-25.333 -43.333 -46.334 -74.332 -63.001 -92.999c-28 -30.667 -59.333 -49.334 -94 -56.001c-3.33301 9.33301 -5.66602 16.5 -6.99902 21.5s-2 9.83301 -2 14.5c0 7.33301 2.66699 15.333 8 24l68 76l29 52
c7.33301 13.333 14 23.333 20 30c10.667 12 20.667 18 30 18c3.33301 0 7 -1 11 -3c12.667 -7.33301 19 -18 19 -32c0 -7.33301 -0.833008 -13.5 -2.5 -18.5s-7.16699 -16.167 -16.5 -33.5z" />
    <glyph glyph-name="Thorn" unicode="&#xde;" horiz-adv-x="399" 
d="M444 376c0 -35.333 -21.6699 -67.3311 -65.0029 -95.998l-121 -67c-44 -26.667 -66 -54.334 -66 -83.001c0 -0.666992 6 -13 18 -37c6.66699 -13.333 10 -24.333 10 -33c0 -13.333 -4.16699 -25.666 -12.5 -36.999s-19.166 -17 -32.499 -17
c-15.333 0 -27.5 10.333 -36.5 31s-13.5 51.667 -13.5 93c0 46 2.33301 86.5 7 121.5s9.33398 66.833 14.001 95.5c-18 0 -31.667 1.33301 -41 4c-17.333 4.66699 -26 13.667 -26 27c0 15.333 6 28.666 18 39.999s27.667 20.666 47 27.999
c4 46.667 7.66699 81.334 11 104.001c10 69.333 22.333 104 37 104c4.66699 0 10.334 -8 17.001 -24s10 -31 10 -45c0 -20 -3 -46.667 -9 -80c-2 -10.667 -5 -25.334 -9 -44.001h30c60 0 110.5 -8.16699 151.5 -24.5s61.5 -36.5 61.5 -60.5zM373.997 384.002
c0 7.33301 -10 13.165 -30 17.498s-42 6.5 -66 6.5c-31.333 0 -52 -4 -62 -12s-15 -21 -15 -39c0 -39.333 4.33301 -76.666 13 -111.999l10 9h10c4 4.66699 11 10 21 16s16.333 10 19 12l66 46c22.667 18.667 34 37.334 34 56.001z" />
    <glyph glyph-name="germandbls" unicode="&#xdf;" horiz-adv-x="624" 
d="M615 150c0 -48 -16.333 -84.001 -49 -108.001s-83.334 -36 -152.001 -36c-29.333 0 -64.666 12.333 -105.999 37c-13.333 8 -31.333 20.667 -54 38c18 -6.66699 32.333 -11.667 43 -15c34 -10.667 60 -16 78 -16c55.333 0 99.666 9.83301 132.999 29.5s50 47.5 50 83.5
c0 52.667 -35 95 -105 127c-18.667 8.66699 -85 29.334 -199 62.001c73.333 73.333 129.333 132.333 168 177c41.333 48 62 81.667 62 101c0 15.333 -6.16699 26 -18.5 32s-27.166 9 -44.499 9c-56.667 0 -105.5 -18.5 -146.5 -55.5s-61.5 -84.833 -61.5 -143.5l-10 -540
c0 -21.333 -2.5 -39.333 -7.5 -54s-12.167 -22 -21.5 -22c-6 0 -10.167 8.5 -12.5 25.5s-3.5 41.5 -3.5 73.5l4 363l-54 -15l54 57l3 99c0 70 28.333 129.167 85 177.5s119.334 72.5 188.001 72.5c31.333 0 55.666 -3.33301 72.999 -10c26.667 -10 40 -28.333 40 -55
c0 -44.667 -38.333 -103.334 -115 -176.001l-95 -85l178 -79c64 -37.333 96 -88.666 96 -153.999z" />
    <glyph glyph-name="agrave" unicode="&#xe0;" horiz-adv-x="477" 
d="M477 67c-2.66699 -18.667 -10.832 -34.666 -24.499 -47.999s-30.167 -20 -49.5 -20c-32 0 -57.333 16.333 -76 49c-6.66699 11.333 -21.667 65.333 -45 162c-38.667 -78.667 -64.334 -128 -77.001 -148c-41.333 -62.667 -83 -94 -125 -94c-20 0 -33.5 7.16699 -40.5 21.5
s-10.5 32.833 -10.5 55.5c0 74 11.667 148.667 35 224c30 96.667 70.333 157 121 181c20 -8.66699 37 -17.834 51 -27.501s29.333 -22.834 46 -39.501l12 -2c2 2 6.5 4.33301 13.5 7s11.5 4 13.5 4c20 0 34 -6 42 -18c6 -9.33301 9 -23.333 9 -42
c0 -5.33301 -0.333008 -13.166 -1 -23.499s-1 -17.5 -1 -21.5v-50c0 -9.33301 -0.166992 -18.5 -0.5 -27.5s-0.5 -17.833 -0.5 -26.5c0 -40 5.33301 -66.667 16 -80c14 -18 44.667 -30 92 -36zM256.002 288.001c0 14 -3.33203 28.002 -9.99902 42.002l-42 62h-9
c-37.333 -34 -60.333 -73.5 -69 -118.5l-20 -102.5c-9.33301 -46.667 -14 -78.334 -14 -95.001c0 -18.667 1.66699 -34.334 5 -47.001c35.333 33.333 68.666 73.333 99.999 120c39.333 58 59 104.333 59 139zM283.003 523.003c0 -2.66699 -0.666992 -6.99805 -2 -12.998
s-2 -10.333 -2 -13c-44 0 -93.667 11.333 -149 34c-67.333 27.333 -101 58.666 -101 93.999c0 12 2 23.667 6 35c13.333 0 32 -9.33301 56 -28c55.333 -44 85.5 -66.5 90.5 -67.5s13.833 -2.33301 26.5 -4s23.5 -3.33398 32.5 -5.00098s17.167 -4.16699 24.5 -7.5
c12 -6 18 -14.333 18 -25z" />
    <glyph glyph-name="aacute" unicode="&#xe1;" horiz-adv-x="477" 
d="M477 67c-2.66699 -18.667 -10.832 -34.666 -24.499 -47.999s-30.167 -20 -49.5 -20c-32 0 -57.333 16.333 -76 49c-6.66699 11.333 -21.667 65.333 -45 162c-38.667 -78.667 -64.334 -128 -77.001 -148c-41.333 -62.667 -83 -94 -125 -94c-20 0 -33.5 7.16699 -40.5 21.5
s-10.5 32.833 -10.5 55.5c0 74 11.667 148.667 35 224c30 96.667 70.333 157 121 181c20 -8.66699 37 -17.834 51 -27.501s29.333 -22.834 46 -39.501l12 -2c2 2 6.5 4.33301 13.5 7s11.5 4 13.5 4c20 0 34 -6 42 -18c6 -9.33301 9 -23.333 9 -42
c0 -5.33301 -0.333008 -13.166 -1 -23.499s-1 -17.5 -1 -21.5v-50c0 -9.33301 -0.166992 -18.5 -0.5 -27.5s-0.5 -17.833 -0.5 -26.5c0 -40 5.33301 -66.667 16 -80c14 -18 44.667 -30 92 -36zM256.002 288.001c0 14 -3.33203 28.002 -9.99902 42.002l-42 62h-9
c-37.333 -34 -60.333 -73.5 -69 -118.5l-20 -102.5c-9.33301 -46.667 -14 -78.334 -14 -95.001c0 -18.667 1.66699 -34.334 5 -47.001c35.333 33.333 68.666 73.333 99.999 120c39.333 58 59 104.333 59 139zM337.003 644.003
c-25.333 -43.333 -46.334 -74.332 -63.001 -92.999c-28 -30.667 -59.333 -49.334 -94 -56.001c-3.33301 9.33301 -5.66602 16.5 -6.99902 21.5s-2 9.83301 -2 14.5c0 7.33301 2.66699 15.333 8 24l68 76l29 52c7.33301 13.333 14 23.333 20 30c10.667 12 20.667 18 30 18
c3.33301 0 7 -1 11 -3c12.667 -7.33301 19 -18 19 -32c0 -7.33301 -0.833008 -13.5 -2.5 -18.5s-7.16699 -16.167 -16.5 -33.5z" />
    <glyph glyph-name="acircumflex" unicode="&#xe2;" horiz-adv-x="477" 
d="M477 67c-2.66699 -18.667 -10.832 -34.666 -24.499 -47.999s-30.167 -20 -49.5 -20c-32 0 -57.333 16.333 -76 49c-6.66699 11.333 -21.667 65.333 -45 162c-38.667 -78.667 -64.334 -128 -77.001 -148c-41.333 -62.667 -83 -94 -125 -94c-20 0 -33.5 7.16699 -40.5 21.5
s-10.5 32.833 -10.5 55.5c0 74 11.667 148.667 35 224c30 96.667 70.333 157 121 181c20 -8.66699 37 -17.834 51 -27.501s29.333 -22.834 46 -39.501l12 -2c2 2 6.5 4.33301 13.5 7s11.5 4 13.5 4c20 0 34 -6 42 -18c6 -9.33301 9 -23.333 9 -42
c0 -5.33301 -0.333008 -13.166 -1 -23.499s-1 -17.5 -1 -21.5v-50c0 -9.33301 -0.166992 -18.5 -0.5 -27.5s-0.5 -17.833 -0.5 -26.5c0 -40 5.33301 -66.667 16 -80c14 -18 44.667 -30 92 -36zM256.002 288.001c0 14 -3.33203 28.002 -9.99902 42.002l-42 62h-9
c-37.333 -34 -60.333 -73.5 -69 -118.5l-20 -102.5c-9.33301 -46.667 -14 -78.334 -14 -95.001c0 -18.667 1.66699 -34.334 5 -47.001c35.333 33.333 68.666 73.333 99.999 120c39.333 58 59 104.333 59 139zM332.003 493.003c0 -7.33301 -3.16895 -12.999 -9.50195 -16.999
s-14.166 -6 -23.499 -6c-6 0 -12 1.66699 -18 5c-2 0.666992 -5 3 -9 7l-86 134c-10.667 -8 -23 -25.667 -37 -53c-25.333 -48 -47 -72 -65 -72c-9.33301 0 -16.666 1.5 -21.999 4.5s-8 8.5 -8 16.5c0 4.66699 13.5 31.5 40.5 80.5s44.167 77.333 51.5 85
s12.666 12.5 15.999 14.5c7.33301 4.66699 15 7 23 7c22.667 0 41.667 -16.333 57 -49l30 -71c20.667 -23.333 35.834 -41.333 45.501 -54s14.5 -23.334 14.5 -32.001z" />
    <glyph glyph-name="atilde" unicode="&#xe3;" horiz-adv-x="477" 
d="M477 67c-2.66699 -18.667 -10.832 -34.666 -24.499 -47.999s-30.167 -20 -49.5 -20c-32 0 -57.333 16.333 -76 49c-6.66699 11.333 -21.667 65.333 -45 162c-38.667 -78.667 -64.334 -128 -77.001 -148c-41.333 -62.667 -83 -94 -125 -94c-20 0 -33.5 7.16699 -40.5 21.5
s-10.5 32.833 -10.5 55.5c0 74 11.667 148.667 35 224c30 96.667 70.333 157 121 181c20 -8.66699 37 -17.834 51 -27.501s29.333 -22.834 46 -39.501l12 -2c2 2 6.5 4.33301 13.5 7s11.5 4 13.5 4c20 0 34 -6 42 -18c6 -9.33301 9 -23.333 9 -42
c0 -5.33301 -0.333008 -13.166 -1 -23.499s-1 -17.5 -1 -21.5v-50c0 -9.33301 -0.166992 -18.5 -0.5 -27.5s-0.5 -17.833 -0.5 -26.5c0 -40 5.33301 -66.667 16 -80c14 -18 44.667 -30 92 -36zM256.002 288.001c0 14 -3.33203 28.002 -9.99902 42.002l-42 62h-9
c-37.333 -34 -60.333 -73.5 -69 -118.5l-20 -102.5c-9.33301 -46.667 -14 -78.334 -14 -95.001c0 -18.667 1.66699 -34.334 5 -47.001c35.333 33.333 68.666 73.333 99.999 120c39.333 58 59 104.333 59 139zM370.003 592.003c0 -19.333 -12.667 -42.001 -38 -68.001
s-50.333 -39 -75 -39c-16 0 -34.333 15 -55 45c-10 14.667 -20.667 22 -32 22c-16 0 -35.833 -11.833 -59.5 -35.5s-39.5 -35.5 -47.5 -35.5c-10 0 -15 6 -15 18c0 12.667 15.5 29.834 46.5 51.501s55.167 32.5 72.5 32.5c26.667 0 49.334 -15 68.001 -45
c9.33301 -14.667 17.666 -22 24.999 -22c17.333 0 34.333 14.833 51 44.5s32 46.167 46 49.5c8.66699 -2 13 -8 13 -18z" />
    <glyph glyph-name="adieresis" unicode="&#xe4;" horiz-adv-x="477" 
d="M477 67c-2.66699 -18.667 -10.832 -34.666 -24.499 -47.999s-30.167 -20 -49.5 -20c-32 0 -57.333 16.333 -76 49c-6.66699 11.333 -21.667 65.333 -45 162c-38.667 -78.667 -64.334 -128 -77.001 -148c-41.333 -62.667 -83 -94 -125 -94c-20 0 -33.5 7.16699 -40.5 21.5
s-10.5 32.833 -10.5 55.5c0 74 11.667 148.667 35 224c30 96.667 70.333 157 121 181c20 -8.66699 37 -17.834 51 -27.501s29.333 -22.834 46 -39.501l12 -2c2 2 6.5 4.33301 13.5 7s11.5 4 13.5 4c20 0 34 -6 42 -18c6 -9.33301 9 -23.333 9 -42
c0 -5.33301 -0.333008 -13.166 -1 -23.499s-1 -17.5 -1 -21.5v-50c0 -9.33301 -0.166992 -18.5 -0.5 -27.5s-0.5 -17.833 -0.5 -26.5c0 -40 5.33301 -66.667 16 -80c14 -18 44.667 -30 92 -36zM256.002 288.001c0 14 -3.33203 28.002 -9.99902 42.002l-42 62h-9
c-37.333 -34 -60.333 -73.5 -69 -118.5l-20 -102.5c-9.33301 -46.667 -14 -78.334 -14 -95.001c0 -18.667 1.66699 -34.334 5 -47.001c35.333 33.333 68.666 73.333 99.999 120c39.333 58 59 104.333 59 139zM359.003 560.003c0 -20 -7.5 -38.668 -22.5 -56.001
s-32.833 -26 -53.5 -26c-17.333 0 -31.833 6.5 -43.5 19.5s-17.5 28.5 -17.5 46.5c0 20.667 8.33301 39 25 55s35.667 24 57 24c16.667 0 30 -6.16699 40 -18.5s15 -27.166 15 -44.499zM171.003 564.002c0 -20 -7.5 -38.668 -22.5 -56.001s-32.833 -26 -53.5 -26
c-17.333 0 -31.833 6.5 -43.5 19.5s-17.5 28.5 -17.5 46.5c0 20.667 8.33301 39 25 55s35.667 24 57 24c16.667 0 30 -6.16699 40 -18.5s15 -27.166 15 -44.499z" />
    <glyph glyph-name="aring" unicode="&#xe5;" horiz-adv-x="477" 
d="M477 67c-2.66699 -18.667 -10.832 -34.666 -24.499 -47.999s-30.167 -20 -49.5 -20c-32 0 -57.333 16.333 -76 49c-6.66699 11.333 -21.667 65.333 -45 162c-38.667 -78.667 -64.334 -128 -77.001 -148c-41.333 -62.667 -83 -94 -125 -94c-20 0 -33.5 7.16699 -40.5 21.5
s-10.5 32.833 -10.5 55.5c0 74 11.667 148.667 35 224c30 96.667 70.333 157 121 181c20 -8.66699 37 -17.834 51 -27.501s29.333 -22.834 46 -39.501l12 -2c2 2 6.5 4.33301 13.5 7s11.5 4 13.5 4c20 0 34 -6 42 -18c6 -9.33301 9 -23.333 9 -42
c0 -5.33301 -0.333008 -13.166 -1 -23.499s-1 -17.5 -1 -21.5v-50c0 -9.33301 -0.166992 -18.5 -0.5 -27.5s-0.5 -17.833 -0.5 -26.5c0 -40 5.33301 -66.667 16 -80c14 -18 44.667 -30 92 -36zM256.002 288.001c0 14 -3.33203 28.002 -9.99902 42.002l-42 62h-9
c-37.333 -34 -60.333 -73.5 -69 -118.5l-20 -102.5c-9.33301 -46.667 -14 -78.334 -14 -95.001c0 -18.667 1.66699 -34.334 5 -47.001c35.333 33.333 68.666 73.333 99.999 120c39.333 58 59 104.333 59 139zM285.003 653.003c0 -33.333 -8 -66.334 -24 -99.001
c-19.333 -40 -44.333 -60 -75 -60c-19.333 0 -34 6.66699 -44 20s-15 30 -15 50c0 17.333 3.66699 38.833 11 64.5s16.333 42.5 27 50.5c4.66699 4.66699 10 7.66699 16 9c2.66699 0.666992 7.33398 1 14.001 1s13.167 1.33301 19.5 4l18.5 7.5c6 2.33301 12.333 3.5 19 3.5
c13.333 0 22.666 -5.66699 27.999 -17c3.33301 -7.33301 5 -18.666 5 -33.999zM259.003 638.002c0 13.333 -2.33398 24.999 -7.00098 34.999l-75 -32c-12.667 -11.333 -19 -31.666 -19 -60.999c0 -18 2.83301 -31.5 8.5 -40.5s12.834 -13.5 21.501 -13.5
c18.667 0 35.667 14.333 51 43c13.333 25.333 20 48.333 20 69z" />
    <glyph glyph-name="ae" unicode="&#xe6;" horiz-adv-x="729" 
d="M698 131c-26.667 -6.66699 -56.6719 -18.3301 -90.0049 -34.9971c-93.333 -46 -143.666 -70.333 -150.999 -73c-14 -16 -32 -24 -54 -24c-4.66699 0 -9.5 0.5 -14.5 1.5s-11.167 2.83301 -18.5 5.5h-4c-34 0 -60.333 8 -79 24s-28 40.333 -28 73
c0 26.667 5.66699 58 17 94c-32.667 -70 -58 -118 -76 -144c-38.667 -56.667 -78.667 -85 -120 -85c-20 0 -33.5 7.16699 -40.5 21.5s-10.5 32.833 -10.5 55.5c0 74 11.667 148.667 35 224c30 96.667 70.333 157 121 181c20 -8.66699 37 -17.834 51 -27.501
s29.333 -22.834 46 -39.501l12 -2c2 2 6.5 4.33301 13.5 7s11.5 4 13.5 4c24.667 0 40.334 -9.33301 47.001 -28c15.333 16.667 31.333 29.5 48 38.5s34.334 13.5 53.001 13.5c28 0 51.833 -10.833 71.5 -32.5s29.5 -46.5 29.5 -74.5c0 -20.667 -7.5 -41 -22.5 -61
s-36.167 -33.667 -63.5 -41l-115 -18c0 -36.667 3 -61.334 9 -74.001c8.66699 -18.667 27.334 -32 56.001 -40c6 2.66699 30 15.667 72 39c54.667 30 97.334 45 128.001 45c24 0 45.333 -9.33301 64 -28zM505.995 314.004c0 10.667 -4.5 20.502 -13.5 29.502
s-18.833 13.5 -29.5 13.5c-19.333 0 -37.833 -14.333 -55.5 -43s-25.167 -52.334 -22.5 -71.001l1 -7c42.667 13.333 72.667 25.666 90 36.999c20 13.333 30 27 30 41zM255.995 288.006c0 14 -3.33203 28.002 -9.99902 42.002l-42 62h-9
c-37.333 -34 -60.333 -73.5 -69 -118.5l-20 -102.5c-9.33301 -46.667 -14 -78.334 -14 -95.001c0 -18.667 1.66699 -34.334 5 -47.001c35.333 33.333 68.666 73.333 99.999 120c39.333 58 59 104.333 59 139z" />
    <glyph glyph-name="ccedilla" unicode="&#xe7;" horiz-adv-x="458" 
d="M458 134c0 -35.333 -36.002 -69.333 -108.002 -102c-60 -26.667 -119 -44 -177 -52c-5.33301 -21.333 -21.333 -49 -48 -83c-24 -31.333 -41.667 -49.666 -53 -54.999c-4.66699 -2.66699 -10.334 -5 -17.001 -7s-13.667 -3 -21 -3c-15.333 0 -27.666 6.33301 -36.999 19
c-4 8 -6.33301 13.667 -7 17l-4 7l1 9c18.667 0 33 0.5 43 1.5s20.333 4.16699 31 9.5c16.667 8 30.334 20.667 41.001 38c7.33301 12 14 27.667 20 47c-35.333 7.33301 -60.666 30.333 -75.999 69c-11.333 28.667 -17 66 -17 112c0 53.333 17 112.666 51 177.999
c39.333 75.333 83.333 113 132 113c39.333 0 69 -24.667 89 -74c15.333 -37.333 23 -78.666 23 -123.999l-3 -44c-34 0 -59.667 21.333 -77 64c-0.666992 2 -10.667 38.333 -30 109c-36 -14.667 -66 -49.334 -90 -104.001c-21.333 -48 -32 -94.667 -32 -140
c0 -30 5.66699 -54 17 -72c14 -22 35 -33 63 -33s76 17.333 144 52s111.667 51 131 49z" />
    <glyph glyph-name="egrave" unicode="&#xe8;" horiz-adv-x="468" 
d="M468 134c-27.333 -7.33301 -63.334 -22.3311 -108.001 -44.998c-58.667 -30 -95.334 -48 -110.001 -54c-42 -17.333 -80 -26 -114 -26s-60.333 8 -79 24s-28 40.333 -28 73c0 59.333 20 124 60 194c45.333 79.333 95.333 119 150 119c28 0 51.833 -10.833 71.5 -32.5
s29.5 -46.5 29.5 -74.5c0 -20.667 -7 -40.667 -21 -60c-20 -26.667 -62 -43.334 -126 -50.001s-96 -40.334 -96 -101.001c0 -11.333 5 -21 15 -29s21 -12 33 -12c18.667 0 58.334 17 119.001 51s107.334 51 140.001 51c24 0 45.333 -9.33301 64 -28zM275.999 317.002
c0 10.667 -4.5 20.502 -13.5 29.502s-18.833 13.5 -29.5 13.5c-19.333 0 -37.833 -14.333 -55.5 -43s-25.167 -52.334 -22.5 -71.001l1 -7c42.667 13.333 72.667 25.666 90 36.999c20 13.333 30 27 30 41zM282.999 486.004c0 -2.66699 -0.666992 -6.99805 -2 -12.998
s-2 -10.333 -2 -13c-44 0 -93.667 11.333 -149 34c-67.333 27.333 -101 58.666 -101 93.999c0 12 2 23.667 6 35c13.333 0 32 -9.33301 56 -28c55.333 -44 85.5 -66.5 90.5 -67.5s13.833 -2.33301 26.5 -4s23.5 -3.33398 32.5 -5.00098s17.167 -4.16699 24.5 -7.5
c12 -6 18 -14.333 18 -25z" />
    <glyph glyph-name="eacute" unicode="&#xe9;" horiz-adv-x="468" 
d="M468 134c-27.333 -7.33301 -63.334 -22.3311 -108.001 -44.998c-58.667 -30 -95.334 -48 -110.001 -54c-42 -17.333 -80 -26 -114 -26s-60.333 8 -79 24s-28 40.333 -28 73c0 59.333 20 124 60 194c45.333 79.333 95.333 119 150 119c28 0 51.833 -10.833 71.5 -32.5
s29.5 -46.5 29.5 -74.5c0 -20.667 -7 -40.667 -21 -60c-20 -26.667 -62 -43.334 -126 -50.001s-96 -40.334 -96 -101.001c0 -11.333 5 -21 15 -29s21 -12 33 -12c18.667 0 58.334 17 119.001 51s107.334 51 140.001 51c24 0 45.333 -9.33301 64 -28zM275.999 317.002
c0 10.667 -4.5 20.502 -13.5 29.502s-18.833 13.5 -29.5 13.5c-19.333 0 -37.833 -14.333 -55.5 -43s-25.167 -52.334 -22.5 -71.001l1 -7c42.667 13.333 72.667 25.666 90 36.999c20 13.333 30 27 30 41zM378.999 609.004c-25.333 -43.333 -46.334 -74.332 -63.001 -92.999
c-28 -30.667 -59.333 -49.334 -94 -56.001c-3.33301 9.33301 -5.66602 16.5 -6.99902 21.5s-2 9.83301 -2 14.5c0 7.33301 2.66699 15.333 8 24l68 76l29 52c7.33301 13.333 14 23.333 20 30c10.667 12 20.667 18 30 18c3.33301 0 7 -1 11 -3c12.667 -7.33301 19 -18 19 -32
c0 -7.33301 -0.833008 -13.5 -2.5 -18.5s-7.16699 -16.167 -16.5 -33.5z" />
    <glyph glyph-name="ecircumflex" unicode="&#xea;" horiz-adv-x="468" 
d="M468 134c-27.333 -7.33301 -63.334 -22.3311 -108.001 -44.998c-58.667 -30 -95.334 -48 -110.001 -54c-42 -17.333 -80 -26 -114 -26s-60.333 8 -79 24s-28 40.333 -28 73c0 59.333 20 124 60 194c45.333 79.333 95.333 119 150 119c28 0 51.833 -10.833 71.5 -32.5
s29.5 -46.5 29.5 -74.5c0 -20.667 -7 -40.667 -21 -60c-20 -26.667 -62 -43.334 -126 -50.001s-96 -40.334 -96 -101.001c0 -11.333 5 -21 15 -29s21 -12 33 -12c18.667 0 58.334 17 119.001 51s107.334 51 140.001 51c24 0 45.333 -9.33301 64 -28zM275.999 317.002
c0 10.667 -4.5 20.502 -13.5 29.502s-18.833 13.5 -29.5 13.5c-19.333 0 -37.833 -14.333 -55.5 -43s-25.167 -52.334 -22.5 -71.001l1 -7c42.667 13.333 72.667 25.666 90 36.999c20 13.333 30 27 30 41zM377.999 464.004c0 -7.33301 -3.16895 -12.999 -9.50195 -16.999
s-14.166 -6 -23.499 -6c-6 0 -12 1.66699 -18 5c-2 0.666992 -5 3 -9 7l-86 134c-10.667 -8 -23 -25.667 -37 -53c-25.333 -48 -47 -72 -65 -72c-9.33301 0 -16.666 1.5 -21.999 4.5s-8 8.5 -8 16.5c0 4.66699 13.5 31.5 40.5 80.5s44.167 77.333 51.5 85
s12.666 12.5 15.999 14.5c7.33301 4.66699 15 7 23 7c22.667 0 41.667 -16.333 57 -49l30 -71c20.667 -23.333 35.834 -41.333 45.501 -54s14.5 -23.334 14.5 -32.001z" />
    <glyph glyph-name="edieresis" unicode="&#xeb;" horiz-adv-x="468" 
d="M468 134c-27.333 -7.33301 -63.334 -22.3311 -108.001 -44.998c-58.667 -30 -95.334 -48 -110.001 -54c-42 -17.333 -80 -26 -114 -26s-60.333 8 -79 24s-28 40.333 -28 73c0 59.333 20 124 60 194c45.333 79.333 95.333 119 150 119c28 0 51.833 -10.833 71.5 -32.5
s29.5 -46.5 29.5 -74.5c0 -20.667 -7 -40.667 -21 -60c-20 -26.667 -62 -43.334 -126 -50.001s-96 -40.334 -96 -101.001c0 -11.333 5 -21 15 -29s21 -12 33 -12c18.667 0 58.334 17 119.001 51s107.334 51 140.001 51c24 0 45.333 -9.33301 64 -28zM275.999 317.002
c0 10.667 -4.5 20.502 -13.5 29.502s-18.833 13.5 -29.5 13.5c-19.333 0 -37.833 -14.333 -55.5 -43s-25.167 -52.334 -22.5 -71.001l1 -7c42.667 13.333 72.667 25.666 90 36.999c20 13.333 30 27 30 41zM405.999 534.004c0 -20 -7.5 -38.668 -22.5 -56.001
s-32.833 -26 -53.5 -26c-17.333 0 -31.833 6.5 -43.5 19.5s-17.5 28.5 -17.5 46.5c0 20.667 8.33301 39 25 55s35.667 24 57 24c16.667 0 30 -6.16699 40 -18.5s15 -27.166 15 -44.499zM217.999 538.003c0 -20 -7.5 -38.668 -22.5 -56.001s-32.833 -26 -53.5 -26
c-17.333 0 -31.833 6.5 -43.5 19.5s-17.5 28.5 -17.5 46.5c0 20.667 8.33301 39 25 55s35.667 24 57 24c16.667 0 30 -6.16699 40 -18.5s15 -27.166 15 -44.499z" />
    <glyph glyph-name="igrave" unicode="&#xec;" horiz-adv-x="263" 
d="M178 321c0 -32.667 -1.33301 -72.666 -4 -119.999c-6 -107.333 -9 -174.333 -9 -201h-9c-6.66699 -4.66699 -14.334 -7 -23.001 -7c-13.333 0 -24.333 4.66699 -33 14s-13 20.666 -13 33.999c0 8.66699 2 19 6 31c9.33301 27.333 14 44.666 14 51.999v201v21
c0 14.667 1.33301 25.834 4 33.501s9.33398 11.5 20.001 11.5c17.333 0 30 -7.66699 38 -23c6 -12 9 -27.667 9 -47zM341 462.001c0 -2.66699 -0.666992 -6.99805 -2 -12.998s-2 -10.333 -2 -13c-44 0 -93.667 11.333 -149 34c-67.333 27.333 -101 58.666 -101 93.999
c0 12 2 23.667 6 35c13.333 0 32 -9.33301 56 -28c55.333 -44 85.5 -66.5 90.5 -67.5s13.833 -2.33301 26.5 -4s23.5 -3.33398 32.5 -5.00098s17.167 -4.16699 24.5 -7.5c12 -6 18 -14.333 18 -25z" />
    <glyph glyph-name="iacute" unicode="&#xed;" horiz-adv-x="263" 
d="M178 321c0 -32.667 -1.33301 -72.666 -4 -119.999c-6 -107.333 -9 -174.333 -9 -201h-9c-6.66699 -4.66699 -14.334 -7 -23.001 -7c-13.333 0 -24.333 4.66699 -33 14s-13 20.666 -13 33.999c0 8.66699 2 19 6 31c9.33301 27.333 14 44.666 14 51.999v201v21
c0 14.667 1.33301 25.834 4 33.501s9.33398 11.5 20.001 11.5c17.333 0 30 -7.66699 38 -23c6 -12 9 -27.667 9 -47zM276 593.001c-25.333 -43.333 -46.334 -74.332 -63.001 -92.999c-28 -30.667 -59.333 -49.334 -94 -56.001c-3.33301 9.33301 -5.66602 16.5 -6.99902 21.5
s-2 9.83301 -2 14.5c0 7.33301 2.66699 15.333 8 24l68 76l29 52c7.33301 13.333 14 23.333 20 30c10.667 12 20.667 18 30 18c3.33301 0 7 -1 11 -3c12.667 -7.33301 19 -18 19 -32c0 -7.33301 -0.833008 -13.5 -2.5 -18.5s-7.16699 -16.167 -16.5 -33.5z" />
    <glyph glyph-name="icircumflex" unicode="&#xee;" horiz-adv-x="263" 
d="M178 321c0 -32.667 -1.33301 -72.666 -4 -119.999c-6 -107.333 -9 -174.333 -9 -201h-9c-6.66699 -4.66699 -14.334 -7 -23.001 -7c-13.333 0 -24.333 4.66699 -33 14s-13 20.666 -13 33.999c0 8.66699 2 19 6 31c9.33301 27.333 14 44.666 14 51.999v201v21
c0 14.667 1.33301 25.834 4 33.501s9.33398 11.5 20.001 11.5c17.333 0 30 -7.66699 38 -23c6 -12 9 -27.667 9 -47zM365 432.001c0 -7.33301 -3.16895 -12.999 -9.50195 -16.999s-14.166 -6 -23.499 -6c-6 0 -12 1.66699 -18 5c-2 0.666992 -5 3 -9 7l-86 134
c-10.667 -8 -23 -25.667 -37 -53c-25.333 -48 -47 -72 -65 -72c-9.33301 0 -16.666 1.5 -21.999 4.5s-8 8.5 -8 16.5c0 4.66699 13.5 31.5 40.5 80.5s44.167 77.333 51.5 85s12.666 12.5 15.999 14.5c7.33301 4.66699 15 7 23 7c22.667 0 41.667 -16.333 57 -49l30 -71
c20.667 -23.333 35.834 -41.333 45.501 -54s14.5 -23.334 14.5 -32.001z" />
    <glyph glyph-name="idieresis" unicode="&#xef;" horiz-adv-x="263" 
d="M178 321c0 -32.667 -1.33301 -72.666 -4 -119.999c-6 -107.333 -9 -174.333 -9 -201h-9c-6.66699 -4.66699 -14.334 -7 -23.001 -7c-13.333 0 -24.333 4.66699 -33 14s-13 20.666 -13 33.999c0 8.66699 2 19 6 31c9.33301 27.333 14 44.666 14 51.999v201v21
c0 14.667 1.33301 25.834 4 33.501s9.33398 11.5 20.001 11.5c17.333 0 30 -7.66699 38 -23c6 -12 9 -27.667 9 -47zM412 499.001c0 -20 -7.5 -38.668 -22.5 -56.001s-32.833 -26 -53.5 -26c-17.333 0 -31.833 6.5 -43.5 19.5s-17.5 28.5 -17.5 46.5
c0 20.667 8.33301 39 25 55s35.667 24 57 24c16.667 0 30 -6.16699 40 -18.5s15 -27.166 15 -44.499zM224 503c0 -20 -7.5 -38.668 -22.5 -56.001s-32.833 -26 -53.5 -26c-17.333 0 -31.833 6.5 -43.5 19.5s-17.5 28.5 -17.5 46.5c0 20.667 8.33301 39 25 55
s35.667 24 57 24c16.667 0 30 -6.16699 40 -18.5s15 -27.166 15 -44.499z" />
    <glyph glyph-name="eth" unicode="&#xf0;" horiz-adv-x="448" 
d="M418 166c0 -58 -16.3311 -102.67 -48.998 -134.003s-79 -47 -139 -47c-52 0 -95.333 24.667 -130 74c-31.333 44.667 -47 94 -47 148c0 47.333 14.333 83 43 107s67.667 36 117 36c15.333 0 30.666 -1.66699 45.999 -5s26 -9 32 -17l4 13c0 25.333 -2.83301 48 -8.5 68
s-13.834 38.667 -24.501 56l-13 -3c-6 -1.33301 -19 -6.66602 -39 -15.999c-9.33301 -4 -16.333 -6.66699 -21 -8s-9 -2 -13 -2c-16 0 -29 11 -39 33c18.667 12.667 30 20 34 22c12.667 6.66699 25.667 12 39 16l16 4c-20.667 20.667 -35 35.334 -43 44.001
c-14.667 15.333 -23.667 29 -27 41l9 20l21 9c20 -6 39.5 -17.833 58.5 -35.5s37.167 -40.167 54.5 -67.5l21 5c8.66699 2.66699 19.334 7 32.001 13c16.667 8.66699 28 13.667 34 15s10.333 2 13 2c9.33301 0 14.833 -3.83301 16.5 -11.5s2.5 -13.167 2.5 -16.5
c0 -13.333 -6 -24.666 -18 -33.999c-8.66699 -6.66699 -21 -12.334 -37 -17.001l-35 -6c27.333 -52 49.166 -106.667 65.499 -164s24.5 -104.666 24.5 -141.999zM355.002 163.997c0 40 -11.5 72.166 -34.5 96.499s-54.833 36.5 -95.5 36.5c-31.333 0 -57.5 -8 -78.5 -24
s-31.5 -39.333 -31.5 -70c0 -39.333 14 -76.166 42 -110.499s61.667 -51.5 101 -51.5c30.667 0 55 13.333 73 40c16 23.333 24 51 24 83z" />
    <glyph glyph-name="ntilde" unicode="&#xf1;" horiz-adv-x="663" 
d="M663 86c-9.33301 -22 -22.667 -40.9961 -40 -56.9961c-20.667 -19.333 -41.667 -29 -63 -29c-24.667 0 -42 13.667 -52 41c-7.33301 20 -11 49.667 -11 89c0 17.333 0.333008 32.666 1 45.999s1.33398 26 2.00098 38c0 22.667 -4.33301 43.667 -13 63
c-62 -98.667 -112 -175.334 -150 -230.001c-40.667 -58.667 -68.334 -88 -83.001 -88c-10 0 -18.333 4.5 -25 13.5s-10 18.833 -10 29.5c0 25.333 10 81.666 30 168.999c10 43.333 15 77.333 15 102l-1 24c-10.667 -6 -35 -23.333 -73 -52c-58 -44 -103.667 -66 -137 -66
l-24 3c4 12.667 26.667 35.334 68 68.001c24.667 19.333 65.667 48.666 123 87.999c52.667 36 83.334 57.333 92.001 64h19c4 -15.333 7 -27.833 9 -37.5s3 -20.167 3 -31.5c0 -16.667 -2.66699 -37 -8 -61c-12 -54.667 -18 -88.667 -18 -102s1.33301 -25.333 4 -36
c45.333 72 89 133 131 183c38 45.333 65 68 81 68c12.667 0 21.334 -9.33301 26.001 -28s7 -44.334 7 -77.001c0 -15.333 -0.5 -31.333 -1.5 -48s-1.83301 -34 -2.5 -52c0 -40 4.33301 -77.667 13 -113l23 20c11.333 8.66699 19.666 13 24.999 13
c3.33301 0 9.16602 -1.66699 17.499 -5zM624.999 566.004c0 -19.333 -12.667 -42.001 -38 -68.001s-50.333 -39 -75 -39c-16 0 -34.333 15 -55 45c-10 14.667 -20.667 22 -32 22c-16 0 -35.833 -11.833 -59.5 -35.5s-39.5 -35.5 -47.5 -35.5c-10 0 -15 6 -15 18
c0 12.667 15.5 29.834 46.5 51.501s55.167 32.5 72.5 32.5c26.667 0 49.334 -15 68.001 -45c9.33301 -14.667 17.666 -22 24.999 -22c17.333 0 34.333 14.833 51 44.5s32 46.167 46 49.5c8.66699 -2 13 -8 13 -18z" />
    <glyph glyph-name="ograve" unicode="&#xf2;" horiz-adv-x="370" 
d="M374 349c0 -74 -17.001 -145.667 -51.001 -215c-42 -85.333 -96.333 -128 -163 -128c-41.333 0 -72.833 14.667 -94.5 44s-32.5 65 -32.5 107c0 36 7.83301 82.167 23.5 138.5s34.167 93.833 55.5 112.5c9.33301 8.66699 18.333 14.167 27 16.5s18.667 3.5 30 3.5h17
c10.667 0 20.334 1.66699 29.001 5c22 10 36 16 42 18c16.667 6 32 9 46 9c29.333 0 49.333 -12 60 -36c7.33301 -16 11 -41 11 -75zM316.999 317c0 15.333 -1 28.667 -3 40s-6 23 -12 35c-14 -10 -47.667 -23.333 -101 -40c-67.333 -21.333 -101 -75 -101 -161
c0 -38 6.66699 -67.667 20 -89c11.333 -18 26.333 -27 45 -27c40 0 76.333 31.333 109 94c28.667 54.667 43 104 43 148zM286.999 528.001c0 -2.66699 -0.666992 -6.99805 -2 -12.998s-2 -10.333 -2 -13c-44 0 -93.667 11.333 -149 34
c-67.333 27.333 -101 58.666 -101 93.999c0 12 2 23.667 6 35c13.333 0 32 -9.33301 56 -28c55.333 -44 85.5 -66.5 90.5 -67.5s13.833 -2.33301 26.5 -4s23.5 -3.33398 32.5 -5.00098s17.167 -4.16699 24.5 -7.5c12 -6 18 -14.333 18 -25z" />
    <glyph glyph-name="oacute" unicode="&#xf3;" horiz-adv-x="370" 
d="M374 349c0 -74 -17.001 -145.667 -51.001 -215c-42 -85.333 -96.333 -128 -163 -128c-41.333 0 -72.833 14.667 -94.5 44s-32.5 65 -32.5 107c0 36 7.83301 82.167 23.5 138.5s34.167 93.833 55.5 112.5c9.33301 8.66699 18.333 14.167 27 16.5s18.667 3.5 30 3.5h17
c10.667 0 20.334 1.66699 29.001 5c22 10 36 16 42 18c16.667 6 32 9 46 9c29.333 0 49.333 -12 60 -36c7.33301 -16 11 -41 11 -75zM316.999 317c0 15.333 -1 28.667 -3 40s-6 23 -12 35c-14 -10 -47.667 -23.333 -101 -40c-67.333 -21.333 -101 -75 -101 -161
c0 -38 6.66699 -67.667 20 -89c11.333 -18 26.333 -27 45 -27c40 0 76.333 31.333 109 94c28.667 54.667 43 104 43 148zM427.999 673.001c-25.333 -43.333 -46.334 -74.332 -63.001 -92.999c-28 -30.667 -59.333 -49.334 -94 -56.001
c-3.33301 9.33301 -5.66602 16.5 -6.99902 21.5s-2 9.83301 -2 14.5c0 7.33301 2.66699 15.333 8 24l68 76l29 52c7.33301 13.333 14 23.333 20 30c10.667 12 20.667 18 30 18c3.33301 0 7 -1 11 -3c12.667 -7.33301 19 -18 19 -32c0 -7.33301 -0.833008 -13.5 -2.5 -18.5
s-7.16699 -16.167 -16.5 -33.5z" />
    <glyph glyph-name="ocircumflex" unicode="&#xf4;" horiz-adv-x="370" 
d="M374 349c0 -74 -17.001 -145.667 -51.001 -215c-42 -85.333 -96.333 -128 -163 -128c-41.333 0 -72.833 14.667 -94.5 44s-32.5 65 -32.5 107c0 36 7.83301 82.167 23.5 138.5s34.167 93.833 55.5 112.5c9.33301 8.66699 18.333 14.167 27 16.5s18.667 3.5 30 3.5h17
c10.667 0 20.334 1.66699 29.001 5c22 10 36 16 42 18c16.667 6 32 9 46 9c29.333 0 49.333 -12 60 -36c7.33301 -16 11 -41 11 -75zM316.999 317c0 15.333 -1 28.667 -3 40s-6 23 -12 35c-14 -10 -47.667 -23.333 -101 -40c-67.333 -21.333 -101 -75 -101 -161
c0 -38 6.66699 -67.667 20 -89c11.333 -18 26.333 -27 45 -27c40 0 76.333 31.333 109 94c28.667 54.667 43 104 43 148zM397.999 512.001c0 -7.33301 -3.16895 -12.999 -9.50195 -16.999s-14.166 -6 -23.499 -6c-6 0 -12 1.66699 -18 5c-2 0.666992 -5 3 -9 7l-86 134
c-10.667 -8 -23 -25.667 -37 -53c-25.333 -48 -47 -72 -65 -72c-9.33301 0 -16.666 1.5 -21.999 4.5s-8 8.5 -8 16.5c0 4.66699 13.5 31.5 40.5 80.5s44.167 77.333 51.5 85s12.666 12.5 15.999 14.5c7.33301 4.66699 15 7 23 7c22.667 0 41.667 -16.333 57 -49l30 -71
c20.667 -23.333 35.834 -41.333 45.501 -54s14.5 -23.334 14.5 -32.001z" />
    <glyph glyph-name="otilde" unicode="&#xf5;" horiz-adv-x="370" 
d="M374 349c0 -74 -17.001 -145.667 -51.001 -215c-42 -85.333 -96.333 -128 -163 -128c-41.333 0 -72.833 14.667 -94.5 44s-32.5 65 -32.5 107c0 36 7.83301 82.167 23.5 138.5s34.167 93.833 55.5 112.5c9.33301 8.66699 18.333 14.167 27 16.5s18.667 3.5 30 3.5h17
c10.667 0 20.334 1.66699 29.001 5c22 10 36 16 42 18c16.667 6 32 9 46 9c29.333 0 49.333 -12 60 -36c7.33301 -16 11 -41 11 -75zM316.999 317c0 15.333 -1 28.667 -3 40s-6 23 -12 35c-14 -10 -47.667 -23.333 -101 -40c-67.333 -21.333 -101 -75 -101 -161
c0 -38 6.66699 -67.667 20 -89c11.333 -18 26.333 -27 45 -27c40 0 76.333 31.333 109 94c28.667 54.667 43 104 43 148zM418.999 619.001c0 -19.333 -12.667 -42.001 -38 -68.001s-50.333 -39 -75 -39c-16 0 -34.333 15 -55 45c-10 14.667 -20.667 22 -32 22
c-16 0 -35.833 -11.833 -59.5 -35.5s-39.5 -35.5 -47.5 -35.5c-10 0 -15 6 -15 18c0 12.667 15.5 29.834 46.5 51.501s55.167 32.5 72.5 32.5c26.667 0 49.334 -15 68.001 -45c9.33301 -14.667 17.666 -22 24.999 -22c17.333 0 34.333 14.833 51 44.5s32 46.167 46 49.5
c8.66699 -2 13 -8 13 -18z" />
    <glyph glyph-name="odieresis" unicode="&#xf6;" horiz-adv-x="370" 
d="M374 349c0 -74 -17.001 -145.667 -51.001 -215c-42 -85.333 -96.333 -128 -163 -128c-41.333 0 -72.833 14.667 -94.5 44s-32.5 65 -32.5 107c0 36 7.83301 82.167 23.5 138.5s34.167 93.833 55.5 112.5c9.33301 8.66699 18.333 14.167 27 16.5s18.667 3.5 30 3.5h17
c10.667 0 20.334 1.66699 29.001 5c22 10 36 16 42 18c16.667 6 32 9 46 9c29.333 0 49.333 -12 60 -36c7.33301 -16 11 -41 11 -75zM316.999 317c0 15.333 -1 28.667 -3 40s-6 23 -12 35c-14 -10 -47.667 -23.333 -101 -40c-67.333 -21.333 -101 -75 -101 -161
c0 -38 6.66699 -67.667 20 -89c11.333 -18 26.333 -27 45 -27c40 0 76.333 31.333 109 94c28.667 54.667 43 104 43 148zM442.999 583.001c0 -20 -7.5 -38.668 -22.5 -56.001s-32.833 -26 -53.5 -26c-17.333 0 -31.833 6.5 -43.5 19.5s-17.5 28.5 -17.5 46.5
c0 20.667 8.33301 39 25 55s35.667 24 57 24c16.667 0 30 -6.16699 40 -18.5s15 -27.166 15 -44.499zM254.999 587c0 -20 -7.5 -38.668 -22.5 -56.001s-32.833 -26 -53.5 -26c-17.333 0 -31.833 6.5 -43.5 19.5s-17.5 28.5 -17.5 46.5c0 20.667 8.33301 39 25 55
s35.667 24 57 24c16.667 0 30 -6.16699 40 -18.5s15 -27.166 15 -44.499z" />
    <glyph glyph-name="divide" unicode="&#xf7;" horiz-adv-x="429" 
d="M300 443c0 -20 -7.5 -38.668 -22.5 -56.001s-32.833 -26 -53.5 -26c-17.333 0 -31.833 6.5 -43.5 19.5s-17.5 28.5 -17.5 46.5c0 20.667 8.33301 39 25 55s35.667 24 57 24c16.667 0 30 -6.16699 40 -18.5s15 -27.166 15 -44.499zM392 286.999
c0 -20 -9.33398 -34.333 -28.001 -43c-14 -6.66699 -32.333 -10 -55 -10c-14 0 -43 3.33301 -87 10c-22 3.33301 -39.333 5 -52 5c-11.333 0 -21.666 -0.666992 -30.999 -2c-32 -4.66699 -49 -7 -51 -7c-14 0 -24.667 4 -32 12s-12.666 19.667 -15.999 35
c22 6.66699 38 11 48 13c18 4 34.667 6 50 6c14 0 30.667 -1 50 -3c45.333 -4.66699 74 -7 86 -7c8.66699 0 23.167 1.83301 43.5 5.5s34.166 5.5 41.499 5.5c8 0 15.5 -0.833008 22.5 -2.5s10.5 -7.5 10.5 -17.5zM271.999 137.999c0 -20 -7.5 -38.668 -22.5 -56.001
s-32.833 -26 -53.5 -26c-17.333 0 -31.833 6.5 -43.5 19.5s-17.5 28.5 -17.5 46.5c0 20.667 8.33301 39 25 55s35.667 24 57 24c16.667 0 30 -6.16699 40 -18.5s15 -27.166 15 -44.499z" />
    <glyph glyph-name="oslash" unicode="&#xf8;" horiz-adv-x="370" 
d="M418 481c-1.33301 -6 -3.83691 -11.667 -7.50391 -17s-8.5 -11.333 -14.5 -18l-29 -33c2.66699 -9.33301 4.5 -18.666 5.5 -27.999s1.5 -21.333 1.5 -36c0 -74 -17 -145.667 -51 -215c-42 -85.333 -96.333 -128 -163 -128c-28.667 0 -53.667 8 -75 24
c-10.667 -18 -16.334 -27.333 -17.001 -28c-3.33301 -4.66699 -8 -8.66699 -14 -12c-9.33301 -7.33301 -18.666 -12.333 -27.999 -15c-5.33301 3.33301 -7.33301 9.33301 -6 18c2.66699 12.667 15 36 37 70c-16 27.333 -24 58.666 -24 93.999
c0 36 7.83301 82.167 23.5 138.5s34.167 93.833 55.5 112.5c9.33301 8.66699 18.333 14.167 27 16.5s18.667 3.5 30 3.5h17c10.667 0 20.334 1.66699 29.001 5c22 10 36 16 42 18c16.667 6 32 9 46 9c16.667 0 30.334 -4.33301 41.001 -13c14 16 26.5 29.167 37.5 39.5
s17.833 15.5 20.5 15.5c4.66699 0 8.83398 -2 12.501 -6s4.83398 -9 3.50098 -15zM292.996 386c-60.667 -19.333 -103.333 -35.333 -128 -48c-43.333 -22.667 -65 -71.667 -65 -147c0 -16.667 2 -34.667 6 -54l92 127zM316.997 317l-3.00098 34.999
c-33.333 -41.333 -66.333 -86.666 -99 -135.999c-13.333 -21.333 -31.666 -47 -54.999 -77c-20 -26 -31.333 -41 -34 -45c10.667 -12.667 23.667 -19 39 -19c40 0 76.333 31.333 109 94c28.667 54.667 43 104 43 148z" />
    <glyph glyph-name="ugrave" unicode="&#xf9;" horiz-adv-x="594" 
d="M578 20c0 -7.33301 -1.50195 -13.333 -4.50195 -18s-8.16699 -7 -15.5 -7c-32.667 0 -57.667 30.333 -75 91c-2 6.66699 -10.333 51.334 -25 134.001c-40 -78.667 -79.667 -143.667 -119 -195c-36 -46.667 -64 -70 -84 -70c-19.333 0 -34.166 10.167 -44.499 30.5
s-15.5 40.833 -15.5 61.5c0 26.667 7 87.667 21 183c6.66699 45.333 10 82.333 10 111l-2 13c-22.667 -8.66699 -53 -33.5 -91 -74.5s-69.333 -64.167 -94 -69.5l-3 21c0 27.333 32.833 73.833 98.5 139.5s110.834 98.5 135.501 98.5c13.333 0 22.666 -4.16699 27.999 -12.5
s8 -19.833 8 -34.5c0 -30 -4.33301 -67 -13 -111c-19.333 -97.333 -29 -160.333 -29 -189c0 -28 3 -56 9 -84c4.66699 6 9.66699 11.333 15 16s11.333 8.33398 18 11.001l-6 4c0 1.33301 13.833 22.666 41.5 63.999s43.834 67 48.501 77l65 148c36 76.667 62.333 118 79 124
c8.66699 -4 16 -11 22 -21s9 -20 9 -30c0 -28.667 -2 -64.334 -6 -107.001c-8.66699 -92 -13 -152 -13 -180c0 -12.667 7 -38 21 -76c7.33301 -20 11 -36 11 -48zM431.998 563c0 -2.66699 -0.666992 -6.99805 -2 -12.998s-2 -10.333 -2 -13c-44 0 -93.667 11.333 -149 34
c-67.333 27.333 -101 58.666 -101 93.999c0 12 2 23.667 6 35c13.333 0 32 -9.33301 56 -28c55.333 -44 85.5 -66.5 90.5 -67.5s13.833 -2.33301 26.5 -4s23.5 -3.33398 32.5 -5.00098s17.167 -4.16699 24.5 -7.5c12 -6 18 -14.333 18 -25z" />
    <glyph glyph-name="uacute" unicode="&#xfa;" horiz-adv-x="594" 
d="M578 20c0 -7.33301 -1.50195 -13.333 -4.50195 -18s-8.16699 -7 -15.5 -7c-32.667 0 -57.667 30.333 -75 91c-2 6.66699 -10.333 51.334 -25 134.001c-40 -78.667 -79.667 -143.667 -119 -195c-36 -46.667 -64 -70 -84 -70c-19.333 0 -34.166 10.167 -44.499 30.5
s-15.5 40.833 -15.5 61.5c0 26.667 7 87.667 21 183c6.66699 45.333 10 82.333 10 111l-2 13c-22.667 -8.66699 -53 -33.5 -91 -74.5s-69.333 -64.167 -94 -69.5l-3 21c0 27.333 32.833 73.833 98.5 139.5s110.834 98.5 135.501 98.5c13.333 0 22.666 -4.16699 27.999 -12.5
s8 -19.833 8 -34.5c0 -30 -4.33301 -67 -13 -111c-19.333 -97.333 -29 -160.333 -29 -189c0 -28 3 -56 9 -84c4.66699 6 9.66699 11.333 15 16s11.333 8.33398 18 11.001l-6 4c0 1.33301 13.833 22.666 41.5 63.999s43.834 67 48.501 77l65 148c36 76.667 62.333 118 79 124
c8.66699 -4 16 -11 22 -21s9 -20 9 -30c0 -28.667 -2 -64.334 -6 -107.001c-8.66699 -92 -13 -152 -13 -180c0 -12.667 7 -38 21 -76c7.33301 -20 11 -36 11 -48zM565.998 679c-25.333 -43.333 -46.334 -74.332 -63.001 -92.999c-28 -30.667 -59.333 -49.334 -94 -56.001
c-3.33301 9.33301 -5.66602 16.5 -6.99902 21.5s-2 9.83301 -2 14.5c0 7.33301 2.66699 15.333 8 24l68 76l29 52c7.33301 13.333 14 23.333 20 30c10.667 12 20.667 18 30 18c3.33301 0 7 -1 11 -3c12.667 -7.33301 19 -18 19 -32c0 -7.33301 -0.833008 -13.5 -2.5 -18.5
s-7.16699 -16.167 -16.5 -33.5z" />
    <glyph glyph-name="ucircumflex" unicode="&#xfb;" horiz-adv-x="594" 
d="M578 20c0 -7.33301 -1.50195 -13.333 -4.50195 -18s-8.16699 -7 -15.5 -7c-32.667 0 -57.667 30.333 -75 91c-2 6.66699 -10.333 51.334 -25 134.001c-40 -78.667 -79.667 -143.667 -119 -195c-36 -46.667 -64 -70 -84 -70c-19.333 0 -34.166 10.167 -44.499 30.5
s-15.5 40.833 -15.5 61.5c0 26.667 7 87.667 21 183c6.66699 45.333 10 82.333 10 111l-2 13c-22.667 -8.66699 -53 -33.5 -91 -74.5s-69.333 -64.167 -94 -69.5l-3 21c0 27.333 32.833 73.833 98.5 139.5s110.834 98.5 135.501 98.5c13.333 0 22.666 -4.16699 27.999 -12.5
s8 -19.833 8 -34.5c0 -30 -4.33301 -67 -13 -111c-19.333 -97.333 -29 -160.333 -29 -189c0 -28 3 -56 9 -84c4.66699 6 9.66699 11.333 15 16s11.333 8.33398 18 11.001l-6 4c0 1.33301 13.833 22.666 41.5 63.999s43.834 67 48.501 77l65 148c36 76.667 62.333 118 79 124
c8.66699 -4 16 -11 22 -21s9 -20 9 -30c0 -28.667 -2 -64.334 -6 -107.001c-8.66699 -92 -13 -152 -13 -180c0 -12.667 7 -38 21 -76c7.33301 -20 11 -36 11 -48zM544.998 543c0 -7.33301 -3.16895 -12.999 -9.50195 -16.999s-14.166 -6 -23.499 -6c-6 0 -12 1.66699 -18 5
c-2 0.666992 -5 3 -9 7l-86 134c-10.667 -8 -23 -25.667 -37 -53c-25.333 -48 -47 -72 -65 -72c-9.33301 0 -16.666 1.5 -21.999 4.5s-8 8.5 -8 16.5c0 4.66699 13.5 31.5 40.5 80.5s44.167 77.333 51.5 85s12.666 12.5 15.999 14.5c7.33301 4.66699 15 7 23 7
c22.667 0 41.667 -16.333 57 -49l30 -71c20.667 -23.333 35.834 -41.333 45.501 -54s14.5 -23.334 14.5 -32.001z" />
    <glyph glyph-name="udieresis" unicode="&#xfc;" horiz-adv-x="594" 
d="M578 20c0 -7.33301 -1.50195 -13.333 -4.50195 -18s-8.16699 -7 -15.5 -7c-32.667 0 -57.667 30.333 -75 91c-2 6.66699 -10.333 51.334 -25 134.001c-40 -78.667 -79.667 -143.667 -119 -195c-36 -46.667 -64 -70 -84 -70c-19.333 0 -34.166 10.167 -44.499 30.5
s-15.5 40.833 -15.5 61.5c0 26.667 7 87.667 21 183c6.66699 45.333 10 82.333 10 111l-2 13c-22.667 -8.66699 -53 -33.5 -91 -74.5s-69.333 -64.167 -94 -69.5l-3 21c0 27.333 32.833 73.833 98.5 139.5s110.834 98.5 135.501 98.5c13.333 0 22.666 -4.16699 27.999 -12.5
s8 -19.833 8 -34.5c0 -30 -4.33301 -67 -13 -111c-19.333 -97.333 -29 -160.333 -29 -189c0 -28 3 -56 9 -84c4.66699 6 9.66699 11.333 15 16s11.333 8.33398 18 11.001l-6 4c0 1.33301 13.833 22.666 41.5 63.999s43.834 67 48.501 77l65 148c36 76.667 62.333 118 79 124
c8.66699 -4 16 -11 22 -21s9 -20 9 -30c0 -28.667 -2 -64.334 -6 -107.001c-8.66699 -92 -13 -152 -13 -180c0 -12.667 7 -38 21 -76c7.33301 -20 11 -36 11 -48zM580.998 606c0 -20 -7.5 -38.668 -22.5 -56.001s-32.833 -26 -53.5 -26c-17.333 0 -31.833 6.5 -43.5 19.5
s-17.5 28.5 -17.5 46.5c0 20.667 8.33301 39 25 55s35.667 24 57 24c16.667 0 30 -6.16699 40 -18.5s15 -27.166 15 -44.499zM392.998 609.999c0 -20 -7.5 -38.668 -22.5 -56.001s-32.833 -26 -53.5 -26c-17.333 0 -31.833 6.5 -43.5 19.5s-17.5 28.5 -17.5 46.5
c0 20.667 8.33301 39 25 55s35.667 24 57 24c16.667 0 30 -6.16699 40 -18.5s15 -27.166 15 -44.499z" />
    <glyph glyph-name="yacute" unicode="&#xfd;" horiz-adv-x="633" 
d="M633 290l-7 -28.998c-8.66699 -4.66699 -17 -7.66699 -25 -9s-16 -2 -24 -2h-19c-22 0 -38.833 -8 -50.5 -24s-17.5 -35 -17.5 -57c0 -38.667 2.66699 -82.667 8 -132c12.667 -118 19 -192 19 -222c0 -68 -5.33301 -133.333 -16 -196
c-15.333 -88.667 -38.666 -157.334 -69.999 -206.001c-40.667 -63.333 -94.334 -95 -161.001 -95c-52.667 0 -91.667 26 -117 78c-19.333 40 -29 89 -29 147c0 75.333 20.333 163 61 263l107 251c-42.667 0 -73 14 -91 42c-14 22 -21 54.667 -21 98
c0 20.667 1 41.334 3 62.001c6 62 9 93.333 9 94c0 13.333 -0.333008 24.166 -1 32.499s-2.66699 17.166 -6 26.499c-12 -5.33301 -38.333 -26.333 -79 -63c-32.667 -29.333 -62 -44 -88 -44l-18 2c14 32 43.667 66.667 89 104c48.667 40 89 60 121 60
c24 -10.667 38.833 -20.167 44.5 -28.5s8.5 -25.166 8.5 -50.499c0 -22 -1.66699 -46.667 -5 -74c-8 -66.667 -12 -108.334 -12 -125.001c0 -15.333 0.5 -27.833 1.5 -37.5s2.83301 -20.167 5.5 -31.5c42.667 30 77.334 77.667 104.001 143l66 165l22 10
c21.333 -9.33301 35.666 -39.333 42.999 -90c2.66699 -22 5.66699 -43.667 9 -65l50 22c24.667 10 42 15 52 15c11.333 0 19.333 -3 24 -9c2 -2.66699 5.33301 -11 10 -25zM422 255.002l-3.00098 32.001c-19.333 -24 -35.333 -46.333 -48 -67
c-17.333 -28.667 -27.333 -54 -30 -76c24.667 11.333 44.334 26.166 59.001 44.499s22 40.5 22 66.5zM467.999 -181.997c0 68 -2.66699 127.166 -8 177.499s-15.666 102.833 -30.999 157.5c-72 -70.667 -131.5 -166.5 -178.5 -287.5s-70.5 -234.167 -70.5 -339.5
c0 -39.333 6 -73.333 18 -102c16.667 -39.333 42 -59 76 -59c48 0 88.333 31 121 93c25.333 48.667 44.666 113.334 57.999 194.001c10 60.667 15 116 15 166zM523.999 697.002c-25.333 -43.333 -46.334 -74.332 -63.001 -92.999c-28 -30.667 -59.333 -49.334 -94 -56.001
c-3.33301 9.33301 -5.66602 16.5 -6.99902 21.5s-2 9.83301 -2 14.5c0 7.33301 2.66699 15.333 8 24l68 76l29 52c7.33301 13.333 14 23.333 20 30c10.667 12 20.667 18 30 18c3.33301 0 7 -1 11 -3c12.667 -7.33301 19 -18 19 -32c0 -7.33301 -0.833008 -13.5 -2.5 -18.5
s-7.16699 -16.167 -16.5 -33.5z" />
    <glyph glyph-name="thorn" unicode="&#xfe;" horiz-adv-x="390" 
d="M392 247c0 -73.333 -23.665 -132.667 -70.998 -178s-108.333 -68 -183 -68c-4.66699 0 -9.33398 -0.5 -14.001 -1.5s-9.33398 -2.83301 -14.001 -5.5c-8.66699 -13.333 -14.5 -32.5 -17.5 -57.5s-4.5 -56.833 -4.5 -95.5c0 -26.667 0.333008 -50.667 1 -72l2 -61
c0 -22 -2.66699 -39.333 -8 -52c-8 -18.667 -21.667 -28 -41 -28c-12 0 -19.833 6.33301 -23.5 19s-5.5 27.334 -5.5 44.001c0 75.333 8.16699 192.5 24.5 351.5s35.666 306.333 57.999 442s41.5 213.834 57.5 234.501c2.66699 3.33301 11.334 7.66602 26.001 12.999
c8 2.66699 15.333 4.66699 22 6c0 -25.333 -7 -82.333 -21 -171s-21 -137.667 -21 -147c15.333 3.33301 33 6.16602 53 8.49902s34.667 3.5 44 3.5c44 0 78.667 -20.667 104 -62c21.333 -35.333 32 -76.333 32 -123zM337.002 246.999
c0 30.667 -8.66602 59.666 -25.999 86.999c-20.667 32 -45.667 48 -75 48c-38.667 0 -71.334 -35.333 -98.001 -106c-21.333 -57.333 -32 -109.666 -32 -156.999c0 -21.333 4.16699 -38.833 12.5 -52.5s22.833 -20.5 43.5 -20.5c48 0 89.667 22 125 66
c33.333 41.333 50 86.333 50 135z" />
    <glyph glyph-name="ydieresis" unicode="&#xff;" horiz-adv-x="633" 
d="M633 290l-7 -28.998c-8.66699 -4.66699 -17 -7.66699 -25 -9s-16 -2 -24 -2h-19c-22 0 -38.833 -8 -50.5 -24s-17.5 -35 -17.5 -57c0 -38.667 2.66699 -82.667 8 -132c12.667 -118 19 -192 19 -222c0 -68 -5.33301 -133.333 -16 -196
c-15.333 -88.667 -38.666 -157.334 -69.999 -206.001c-40.667 -63.333 -94.334 -95 -161.001 -95c-52.667 0 -91.667 26 -117 78c-19.333 40 -29 89 -29 147c0 75.333 20.333 163 61 263l107 251c-42.667 0 -73 14 -91 42c-14 22 -21 54.667 -21 98
c0 20.667 1 41.334 3 62.001c6 62 9 93.333 9 94c0 13.333 -0.333008 24.166 -1 32.499s-2.66699 17.166 -6 26.499c-12 -5.33301 -38.333 -26.333 -79 -63c-32.667 -29.333 -62 -44 -88 -44l-18 2c14 32 43.667 66.667 89 104c48.667 40 89 60 121 60
c24 -10.667 38.833 -20.167 44.5 -28.5s8.5 -25.166 8.5 -50.499c0 -22 -1.66699 -46.667 -5 -74c-8 -66.667 -12 -108.334 -12 -125.001c0 -15.333 0.5 -27.833 1.5 -37.5s2.83301 -20.167 5.5 -31.5c42.667 30 77.334 77.667 104.001 143l66 165l22 10
c21.333 -9.33301 35.666 -39.333 42.999 -90c2.66699 -22 5.66699 -43.667 9 -65l50 22c24.667 10 42 15 52 15c11.333 0 19.333 -3 24 -9c2 -2.66699 5.33301 -11 10 -25zM422 255.002l-3.00098 32.001c-19.333 -24 -35.333 -46.333 -48 -67
c-17.333 -28.667 -27.333 -54 -30 -76c24.667 11.333 44.334 26.166 59.001 44.499s22 40.5 22 66.5zM467.999 -181.997c0 68 -2.66699 127.166 -8 177.499s-15.666 102.833 -30.999 157.5c-72 -70.667 -131.5 -166.5 -178.5 -287.5s-70.5 -234.167 -70.5 -339.5
c0 -39.333 6 -73.333 18 -102c16.667 -39.333 42 -59 76 -59c48 0 88.333 31 121 93c25.333 48.667 44.666 113.334 57.999 194.001c10 60.667 15 116 15 166zM521.999 622.002c0 -20 -7.5 -38.668 -22.5 -56.001s-32.833 -26 -53.5 -26c-17.333 0 -31.833 6.5 -43.5 19.5
s-17.5 28.5 -17.5 46.5c0 20.667 8.33301 39 25 55s35.667 24 57 24c16.667 0 30 -6.16699 40 -18.5s15 -27.166 15 -44.499zM333.999 626.001c0 -20 -7.5 -38.668 -22.5 -56.001s-32.833 -26 -53.5 -26c-17.333 0 -31.833 6.5 -43.5 19.5s-17.5 28.5 -17.5 46.5
c0 20.667 8.33301 39 25 55s35.667 24 57 24c16.667 0 30 -6.16699 40 -18.5s15 -27.166 15 -44.499z" />
    </font>
</defs>
</svg>
